<svg width="378" height="169" viewBox="0 0 378 169" fill="none" xmlns="http://www.w3.org/2000/svg">
<g clip-path="url(#clip0_388_5436)">
<path d="M311.747 45.7004L290.123 39.5008C293.091 26.7852 298.88 1.93419 299.114 0.701742C299.113 0.683619 299.114 0.670694 299.117 0.663081C299.124 0.643171 299.123 0.656642 299.114 0.701742C299.156 2.02617 307.515 31.1225 311.747 45.7004Z" fill="#9E9E9E"/>
<path d="M311.702 46.0567L292.243 70.8376L264.907 61.2563L289.699 39.8697L311.702 46.0567Z" fill="#BDBDBD"/>
<path d="M289.627 39.4956L263.941 28.179L298.79 0.211944L289.627 39.4956Z" fill="#676767"/>
<path d="M289.126 39.7935L264.651 60.937L263.643 28.4832L289.126 39.7935Z" fill="#7E7E7E"/>
<path d="M264.286 61.0569L248.183 51.672L263.218 28.8209L264.286 61.0569Z" fill="#747474"/>
<path d="M292.568 70.9071L302.217 71.8854L311.627 46.695L292.568 70.9071Z" fill="#CACACA"/>
<path d="M292.431 71.1796L262.248 95.821C275.17 88.1075 301.966 72.1559 301.966 72.1559L292.431 71.1796Z" fill="#CECECE"/>
<path d="M292.037 71.1324L264.822 61.6123L262.108 95.5477L292.037 71.1324Z" fill="#D1D1D1"/>
<path d="M264.421 61.5426L248.541 52.353L261.85 95.4195L264.421 61.5426Z" fill="#9C9C9C"/>
<path d="M261.082 23.736L263.381 27.9342L248.488 50.3736L261.082 23.736Z" fill="#6C6C6C"/>
<path d="M261.382 23.6373L263.715 27.799L297.83 0.528086L261.382 23.6373Z" fill="#5A5A5A"/>
<g style="mix-blend-mode:color">
<path d="M311.747 45.7004L290.123 39.5008C293.091 26.7852 298.88 1.93419 299.114 0.701742C299.113 0.683619 299.114 0.670694 299.117 0.663081C299.124 0.643171 299.123 0.656642 299.114 0.701742C299.156 2.02617 307.515 31.1225 311.747 45.7004Z" fill="#8863D5"/>
<path d="M311.702 46.0567L292.243 70.8376L264.907 61.2563L289.699 39.8697L311.702 46.0567Z" fill="#8863D5"/>
<path d="M289.627 39.4956L263.941 28.179L298.79 0.211944L289.627 39.4956Z" fill="#8863D5"/>
<path d="M289.126 39.7935L264.651 60.937L263.643 28.4832L289.126 39.7935Z" fill="#8863D5"/>
<path d="M264.286 61.0569L248.183 51.672L263.218 28.8209L264.286 61.0569Z" fill="#8863D5"/>
<path d="M292.568 70.9071L302.217 71.8854L311.627 46.695L292.568 70.9071Z" fill="#8863D5"/>
<path d="M292.431 71.1796L262.248 95.821C275.17 88.1075 301.966 72.1559 301.966 72.1559L292.431 71.1796Z" fill="#8863D5"/>
<path d="M292.037 71.1324L264.822 61.6123L262.108 95.5477L292.037 71.1324Z" fill="#8863D5"/>
<path d="M264.421 61.5426L248.541 52.353L261.85 95.4195L264.421 61.5426Z" fill="#8863D5"/>
<path d="M261.082 23.736L263.381 27.9342L248.488 50.3736L261.082 23.736Z" fill="#8863D5"/>
<path d="M261.382 23.6373L263.715 27.799L297.83 0.528086L261.382 23.6373Z" fill="#8863D5"/>
</g>
<g style="mix-blend-mode:multiply" opacity="0.3" filter="url(#filter0_f_388_5436)">
<path d="M271.638 38.08L240.36 77.4413L271.638 145.621L283.447 81.8393L301.528 69.9441L271.638 38.08Z" fill="black"/>
</g>
<g style="mix-blend-mode:overlay" filter="url(#filter1_f_388_5436)">
<path d="M261.092 148.823L285.048 82.132L297.245 69.4682L305.81 38.0648L294.866 8.08875L249.156 48.1178L168.482 73.7452L261.092 148.823Z" fill="#47057A"/>
</g>
<path d="M206.792 38.5135L198.434 84.8089C171.353 81.3023 118.43 74.4774 115.816 74.2492C115.779 74.2542 115.752 74.2548 115.735 74.2511C115.692 74.2413 115.721 74.2408 115.816 74.2492C118.563 73.8833 177.348 50.3793 206.792 38.5135Z" fill="#9E9E9E"/>
<path d="M207.542 38.533L263.19 73.8164L248.995 132.706L199.29 85.6138L207.542 38.533Z" fill="#BDBDBD"/>
<path d="M198.526 85.8421L180.375 141.664L114.865 75.0255L198.526 85.8421Z" fill="#676767"/>
<path d="M199.251 86.8217L248.385 133.306L181.07 142.22L199.251 86.8217Z" fill="#7E7E7E"/>
<path d="M248.711 134.04L232.565 169.516L181.862 143.033L248.711 134.04Z" fill="#747474"/>
<path d="M263.266 73.1239L263.275 52.8429L208.886 38.5536L263.266 73.1239Z" fill="#CACACA"/>
<path d="M263.862 73.3529L321.472 130.979C302.709 105.712 263.891 53.309 263.891 53.309L263.862 73.3529Z" fill="#CECECE"/>
<path d="M263.847 74.1827L249.754 132.807L320.933 131.327L263.847 74.1827Z" fill="#D1D1D1"/>
<path d="M249.693 133.657L233.907 168.629L320.721 131.891L249.693 133.657Z" fill="#9C9C9C"/>
<path d="M171.731 148.544L179.983 142.88L229.8 169.154L171.731 148.544Z" fill="#6C6C6C"/>
<path d="M171.462 147.94L179.631 142.214L115.724 76.9578L171.462 147.94Z" fill="#5A5A5A"/>
<g style="mix-blend-mode:color">
<path d="M198.434 84.8088L206.792 38.5134C176.945 50.5416 115.735 74.251 115.735 74.251C115.735 74.251 170.362 81.1739 198.434 84.8088Z" fill="#8863D5"/>
<path d="M207.542 38.5328L263.19 73.8161L248.996 132.705L199.29 85.6136L207.542 38.5328Z" fill="#8863D5"/>
<path d="M198.527 85.842L180.375 141.664L114.865 75.0254L198.527 85.842Z" fill="#8863D5"/>
<path d="M199.251 86.8216L248.385 133.306L181.07 142.219L199.251 86.8216Z" fill="#8863D5"/>
<path d="M248.711 134.039L232.566 169.515L181.862 143.032L248.711 134.039Z" fill="#8863D5"/>
<path d="M263.266 73.1237L263.276 52.8426L208.886 38.5533L263.266 73.1237Z" fill="#8863D5"/>
<path d="M263.862 73.3529L321.472 130.979C302.709 105.712 263.891 53.309 263.891 53.309L263.862 73.3529Z" fill="#8863D5"/>
<path d="M263.847 74.1827L249.754 132.807L320.933 131.327L263.847 74.1827Z" fill="#8863D5"/>
<path d="M249.693 133.657L233.908 168.629L320.721 131.891L249.693 133.657Z" fill="#8863D5"/>
<path d="M171.731 148.544L179.983 142.88L229.8 169.154L171.731 148.544Z" fill="#8863D5"/>
<path d="M171.462 147.94L179.632 142.214L115.725 76.9576L171.462 147.94Z" fill="#8863D5"/>
</g>
<g style="mix-blend-mode:overlay" filter="url(#filter2_f_388_5436)">
<path d="M206.366 41.3954L118.462 75.6906L173.034 148.922L233.425 157.349L289.633 134.178L206.366 41.3954Z" fill="#47057A"/>
</g>
</g>
<defs>
<filter id="filter0_f_388_5436" x="214.666" y="12.3862" width="112.555" height="158.928" filterUnits="userSpaceOnUse" color-interpolation-filters="sRGB">
<feFlood flood-opacity="0" result="BackgroundImageFix"/>
<feBlend mode="normal" in="SourceGraphic" in2="BackgroundImageFix" result="shape"/>
<feGaussianBlur stdDeviation="12.8469" result="effect1_foregroundBlur_388_5436"/>
</filter>
<filter id="filter1_f_388_5436" x="142.788" y="-17.605" width="188.715" height="192.122" filterUnits="userSpaceOnUse" color-interpolation-filters="sRGB">
<feFlood flood-opacity="0" result="BackgroundImageFix"/>
<feBlend mode="normal" in="SourceGraphic" in2="BackgroundImageFix" result="shape"/>
<feGaussianBlur stdDeviation="12.8469" result="effect1_foregroundBlur_388_5436"/>
</filter>
<filter id="filter2_f_388_5436" x="88.0097" y="10.9436" width="232.075" height="176.857" filterUnits="userSpaceOnUse" color-interpolation-filters="sRGB">
<feFlood flood-opacity="0" result="BackgroundImageFix"/>
<feBlend mode="normal" in="SourceGraphic" in2="BackgroundImageFix" result="shape"/>
<feGaussianBlur stdDeviation="15.2259" result="effect1_foregroundBlur_388_5436"/>
</filter>
<clipPath id="clip0_388_5436">
<rect width="378" height="169" fill="white"/>
</clipPath>
</defs>
</svg>
