<svg width="436" height="356" viewBox="0 0 436 356" fill="none" xmlns="http://www.w3.org/2000/svg">
<path d="M414.477 96.048L369.03 83.0183C375.27 56.2943 387.435 4.06536 387.927 1.47514C387.926 1.43705 387.928 1.40989 387.933 1.39389C387.948 1.35204 387.945 1.38035 387.927 1.47514C388.016 4.25865 405.584 65.4098 414.477 96.048Z" fill="#9E9E9E"/>
<path d="M414.382 96.7963L373.486 148.878L316.036 128.741L368.139 83.7933L414.382 96.7963Z" fill="#BDBDBD"/>
<path d="M367.988 83.0071L314.004 59.2232L387.247 0.445512L367.988 83.0071Z" fill="#676767"/>
<path d="M366.935 83.6331L315.496 128.07L313.378 59.8625L366.935 83.6331Z" fill="#7E7E7E"/>
<path d="M314.73 128.322L280.888 108.598L312.485 60.5719L314.73 128.322Z" fill="#747474"/>
<path d="M374.171 149.024L394.449 151.08L414.226 98.1381L374.171 149.024Z" fill="#CACACA"/>
<path d="M373.882 149.597L310.447 201.385C337.605 185.174 393.921 151.648 393.921 151.648L373.882 149.597Z" fill="#CECECE"/>
<path d="M373.053 149.498L315.857 129.49L310.153 200.811L373.053 149.498Z" fill="#D1D1D1"/>
<path d="M315.013 129.343L281.638 110.029L309.61 200.541L315.013 129.343Z" fill="#9C9C9C"/>
<path d="M307.996 49.8854L312.827 58.7084L281.528 105.869L307.996 49.8854Z" fill="#6C6C6C"/>
<path d="M308.628 49.6779L313.529 58.4245L385.228 1.1098L308.628 49.6779Z" fill="#5A5A5A"/>
<g style="mix-blend-mode:color">
<path d="M414.477 96.048L369.03 83.0183C375.27 56.2943 387.435 4.06536 387.927 1.47514C387.926 1.43705 387.928 1.40989 387.933 1.39389C387.948 1.35204 387.945 1.38035 387.927 1.47514C388.016 4.25865 405.584 65.4098 414.477 96.048Z" fill="#8863D5"/>
<path d="M414.382 96.7963L373.486 148.878L316.036 128.741L368.139 83.7933L414.382 96.7963Z" fill="#8863D5"/>
<path d="M367.988 83.0071L314.004 59.2232L387.247 0.445512L367.988 83.0071Z" fill="#8863D5"/>
<path d="M366.935 83.6331L315.496 128.07L313.378 59.8625L366.935 83.6331Z" fill="#8863D5"/>
<path d="M314.73 128.322L280.888 108.598L312.485 60.5719L314.73 128.322Z" fill="#8863D5"/>
<path d="M374.171 149.024L394.449 151.08L414.226 98.1381L374.171 149.024Z" fill="#8863D5"/>
<path d="M373.882 149.597L310.447 201.385C337.605 185.174 393.921 151.648 393.921 151.648L373.882 149.597Z" fill="#8863D5"/>
<path d="M373.053 149.498L315.857 129.49L310.153 200.811L373.053 149.498Z" fill="#8863D5"/>
<path d="M315.013 129.343L281.638 110.029L309.61 200.541L315.013 129.343Z" fill="#8863D5"/>
<path d="M307.996 49.8854L312.827 58.7084L281.528 105.869L307.996 49.8854Z" fill="#8863D5"/>
<path d="M308.628 49.6779L313.529 58.4245L385.228 1.1098L308.628 49.6779Z" fill="#8863D5"/>
</g>
<g style="mix-blend-mode:multiply" opacity="0.3" filter="url(#filter0_f_1_1918)">
<path d="M330.182 80.0319L264.445 162.757L330.182 306.048L355 172L393 147L330.182 80.0319Z" fill="black"/>
</g>
<g style="mix-blend-mode:overlay" filter="url(#filter1_f_1_1918)">
<path d="M308.016 312.778L358.364 172.615L384 146L402 80L379 17L282.932 101.128L113.38 154.989L308.016 312.778Z" fill="#47057A"/>
</g>
<path d="M193.895 80.9429L176.329 178.241C119.414 170.871 8.18646 156.528 2.69368 156.048C2.61467 156.058 2.55773 156.06 2.5233 156.052C2.43326 156.031 2.49266 156.03 2.69368 156.048C8.46671 155.279 132.014 105.881 193.895 80.9429Z" fill="#9E9E9E"/>
<path d="M195.472 80.9837L312.427 155.138L282.594 278.904L178.129 179.932L195.472 80.9837Z" fill="#BDBDBD"/>
<path d="M176.524 180.412L138.375 297.732L0.694166 157.679L176.524 180.412Z" fill="#676767"/>
<path d="M178.047 182.471L281.31 280.167L139.836 298.9L178.047 182.471Z" fill="#7E7E7E"/>
<path d="M281.996 281.708L248.064 356.268L141.5 300.609L281.996 281.708Z" fill="#747474"/>
<path d="M312.587 153.683L312.606 111.059L198.296 81.0272L312.587 153.683Z" fill="#CACACA"/>
<path d="M313.839 154.164L434.917 275.275C395.482 222.172 313.899 112.038 313.899 112.038L313.839 154.164Z" fill="#CECECE"/>
<path d="M313.807 155.908L284.188 279.118L433.784 276.007L313.807 155.908Z" fill="#D1D1D1"/>
<path d="M284.06 280.905L250.884 354.405L433.337 277.194L284.06 280.905Z" fill="#9C9C9C"/>
<path d="M120.208 312.193L137.552 300.289L242.252 355.508L120.208 312.193Z" fill="#6C6C6C"/>
<path d="M119.643 310.923L136.813 298.888L2.50042 161.741L119.643 310.923Z" fill="#5A5A5A"/>
<g style="mix-blend-mode:color">
<path d="M176.329 178.241L193.895 80.9426C131.167 106.222 2.52356 156.052 2.52356 156.052C2.52356 156.052 117.331 170.601 176.329 178.241Z" fill="#8863D5"/>
<path d="M195.472 80.9836L312.427 155.138L282.594 278.904L178.129 179.932L195.472 80.9836Z" fill="#8863D5"/>
<path d="M176.525 180.412L138.375 297.731L0.694502 157.679L176.525 180.412Z" fill="#8863D5"/>
<path d="M178.048 182.471L281.31 280.167L139.837 298.9L178.048 182.471Z" fill="#8863D5"/>
<path d="M281.996 281.708L248.064 356.267L141.501 300.608L281.996 281.708Z" fill="#8863D5"/>
<path d="M312.587 153.683L312.606 111.058L198.296 81.0268L312.587 153.683Z" fill="#8863D5"/>
<path d="M313.839 154.164L434.917 275.275C395.483 222.172 313.9 112.038 313.9 112.038L313.839 154.164Z" fill="#8863D5"/>
<path d="M313.807 155.908L284.188 279.118L433.784 276.007L313.807 155.908Z" fill="#8863D5"/>
<path d="M284.061 280.905L250.884 354.405L433.338 277.193L284.061 280.905Z" fill="#8863D5"/>
<path d="M120.208 312.193L137.552 300.289L242.252 355.508L120.208 312.193Z" fill="#8863D5"/>
<path d="M119.644 310.923L136.813 298.887L2.50073 161.74L119.644 310.923Z" fill="#8863D5"/>
</g>
<g style="mix-blend-mode:overlay" filter="url(#filter2_f_1_1918)">
<path d="M193 87L8.2533 159.078L122.947 312.987L249.87 330.697L368 282L193 87Z" fill="#47057A"/>
</g>
<defs>
<filter id="filter0_f_1_1918" x="210.445" y="26.0319" width="236.555" height="334.016" filterUnits="userSpaceOnUse" color-interpolation-filters="sRGB">
<feFlood flood-opacity="0" result="BackgroundImageFix"/>
<feBlend mode="normal" in="SourceGraphic" in2="BackgroundImageFix" result="shape"/>
<feGaussianBlur stdDeviation="27" result="effect1_foregroundBlur_1_1918"/>
</filter>
<filter id="filter1_f_1_1918" x="59.3805" y="-37" width="396.62" height="403.778" filterUnits="userSpaceOnUse" color-interpolation-filters="sRGB">
<feFlood flood-opacity="0" result="BackgroundImageFix"/>
<feBlend mode="normal" in="SourceGraphic" in2="BackgroundImageFix" result="shape"/>
<feGaussianBlur stdDeviation="27" result="effect1_foregroundBlur_1_1918"/>
</filter>
<filter id="filter2_f_1_1918" x="-55.7467" y="23" width="487.747" height="371.697" filterUnits="userSpaceOnUse" color-interpolation-filters="sRGB">
<feFlood flood-opacity="0" result="BackgroundImageFix"/>
<feBlend mode="normal" in="SourceGraphic" in2="BackgroundImageFix" result="shape"/>
<feGaussianBlur stdDeviation="32" result="effect1_foregroundBlur_1_1918"/>
</filter>
</defs>
</svg>
