<svg width="1512" height="720" viewBox="0 0 1512 720" fill="none" xmlns="http://www.w3.org/2000/svg">
<mask id="mask0_39_408" style="mask-type:alpha" maskUnits="userSpaceOnUse" x="0" y="0" width="1512" height="721">
<rect y="0.48877" width="1512" height="719.573" fill="#D9D9D9"/>
</mask>
<g mask="url(#mask0_39_408)">
<g opacity="0.3">
<path d="M207.074 671.044C207.074 669.339 205.692 667.957 203.988 667.957C202.283 667.957 200.902 669.339 200.902 671.044C200.902 672.749 202.283 674.131 203.988 674.131C205.692 674.131 207.074 672.749 207.074 671.044Z" fill="#8863D5"/>
<path d="M153.196 604.523C153.196 602.819 151.814 601.437 150.109 601.437C148.405 601.437 147.023 602.819 147.023 604.523C147.023 606.228 148.405 607.61 150.109 607.61C151.814 607.61 153.196 606.228 153.196 604.523Z" fill="#8863D5"/>
<path d="M238.416 588.187C238.416 586.482 237.034 585.1 235.329 585.1C233.625 585.1 232.243 586.482 232.243 588.187C232.243 589.891 233.625 591.273 235.329 591.273C237.034 591.273 238.416 589.891 238.416 588.187Z" fill="#8863D5"/>
<path d="M135.602 455.901C135.602 454.197 134.22 452.815 132.516 452.815C130.811 452.815 129.429 454.197 129.429 455.901C129.429 457.606 130.811 458.988 132.516 458.988C134.22 458.988 135.602 457.606 135.602 455.901Z" fill="#C4A5D0"/>
<path d="M147.023 233.911C147.023 232.206 145.641 230.824 143.937 230.824C142.232 230.824 140.85 232.206 140.85 233.911C140.85 235.616 142.232 236.998 143.937 236.998C145.641 236.998 147.023 235.616 147.023 233.911Z" fill="#8863D5"/>
<path d="M319.294 634.058C319.294 632.353 317.912 630.971 316.207 630.971C314.503 630.971 313.121 632.353 313.121 634.058C313.121 635.762 314.503 637.145 316.207 637.145C317.912 637.145 319.294 635.762 319.294 634.058Z" fill="#A984DA"/>
<path d="M359.513 464.503C359.513 462.798 358.131 461.416 356.427 461.416C354.722 461.416 353.34 462.798 353.34 464.503C353.34 466.208 354.722 467.59 356.427 467.59C358.131 467.59 359.513 466.208 359.513 464.503Z" fill="#C7AACF"/>
<path d="M571.911 426.905C571.911 425.201 570.53 423.818 568.825 423.818C567.121 423.818 565.739 425.201 565.739 426.905C565.739 428.61 567.121 429.992 568.825 429.992C570.53 429.992 571.911 428.61 571.911 426.905Z" fill="#B897D4"/>
<path d="M479.122 640.134C479.122 638.429 477.74 637.047 476.036 637.047C474.331 637.047 472.949 638.429 472.949 640.134C472.949 641.838 474.331 643.22 476.036 643.22C477.74 643.22 479.122 641.838 479.122 640.134Z" fill="#8863D5"/>
<path d="M565.739 657.56C565.739 655.855 564.357 654.473 562.653 654.473C560.948 654.473 559.566 655.855 559.566 657.56C559.566 659.264 560.948 660.646 562.653 660.646C564.357 660.646 565.739 659.264 565.739 657.56Z" fill="#A983DB"/>
<path d="M777.04 630.971C777.04 629.266 775.659 627.884 773.954 627.884C772.25 627.884 770.868 629.266 770.868 630.971C770.868 632.676 772.25 634.058 773.954 634.058C775.659 634.058 777.04 632.676 777.04 630.971Z" fill="#A680DB"/>
<path d="M753.173 516.43C753.173 514.725 751.791 513.343 750.087 513.343C748.382 513.343 747.001 514.725 747.001 516.43C747.001 518.135 748.382 519.517 750.087 519.517C751.791 519.517 753.173 518.135 753.173 516.43Z" fill="#B897D4"/>
<path d="M795.213 286.343C795.213 284.638 793.831 283.256 792.127 283.256C790.422 283.256 789.041 284.638 789.041 286.343C789.041 288.048 790.422 289.43 792.127 289.43C793.831 289.43 795.213 288.048 795.213 286.343Z" fill="#A681DB"/>
<path d="M269.074 401.585C269.074 399.88 267.693 398.498 265.988 398.498C264.283 398.498 262.902 399.88 262.902 401.585C262.902 403.29 264.283 404.672 265.988 404.672C267.693 404.672 269.074 403.29 269.074 401.585Z" fill="#A681DB"/>
<path d="M302.001 309.527C302.001 307.823 300.619 306.441 298.914 306.441C297.21 306.441 295.828 307.823 295.828 309.527C295.828 311.232 297.21 312.614 298.914 312.614C300.619 312.614 302.001 311.232 302.001 309.527Z" fill="#A681DB"/>
<path d="M81.2826 80.0087C81.2826 78.3039 79.9008 76.9219 78.1963 76.9219C76.4917 76.9219 75.11 78.3039 75.11 80.0087C75.11 81.7135 76.4917 83.0956 78.1963 83.0956C79.9008 83.0956 81.2826 81.7135 81.2826 80.0087Z" fill="#704BE1"/>
<path d="M443.173 138.328C443.173 136.623 441.791 135.241 440.087 135.241C438.382 135.241 437.001 136.623 437.001 138.328C437.001 140.033 438.382 141.415 440.087 141.415C441.791 141.415 443.173 140.033 443.173 138.328Z" fill="#7655E1"/>
<path d="M1391.27 54.0792C1391.27 52.3743 1389.89 50.9923 1388.19 50.9923C1386.48 50.9923 1385.1 52.3743 1385.1 54.0792C1385.1 55.784 1386.48 57.166 1388.19 57.166C1389.89 57.166 1391.27 55.784 1391.27 54.0792Z" fill="#AB89D7"/>
<path d="M878.556 286.343C878.556 284.638 877.174 283.256 875.47 283.256C873.765 283.256 872.383 284.638 872.383 286.343C872.383 288.048 873.765 289.43 875.47 289.43C877.174 289.43 878.556 288.048 878.556 286.343Z" fill="#8863D5"/>
<path d="M1061.57 147.131C1061.57 143.722 1058.81 140.957 1055.4 140.957C1051.99 140.957 1049.23 143.722 1049.23 147.131C1049.23 150.541 1051.99 153.305 1055.4 153.305C1058.81 153.305 1061.57 150.541 1061.57 147.131Z" fill="#C7AACF"/>
<path d="M12.3461 487.046C12.3461 483.637 9.58254 480.873 6.17346 480.873C2.76438 480.873 0.000732422 483.637 0.000732422 487.046C0.000732422 490.456 2.76438 493.22 6.17346 493.22C9.58254 493.22 12.3461 490.456 12.3461 487.046Z" fill="#BF9FD2"/>
<path d="M856.04 569.666C856.04 566.256 853.277 563.492 849.868 563.492C846.459 563.492 843.695 566.256 843.695 569.666C843.695 573.075 846.459 575.839 849.868 575.839C853.277 575.839 856.04 573.075 856.04 569.666Z" fill="#A781DB"/>
<path d="M701.706 649.474C701.706 646.064 698.942 643.3 695.533 643.3C692.124 643.3 689.361 646.064 689.361 649.474C689.361 652.883 692.124 655.647 695.533 655.647C698.942 655.647 701.706 652.883 701.706 649.474Z" fill="#773AE9"/>
<path d="M508.549 312.615C508.549 309.205 505.786 306.441 502.377 306.441C498.968 306.441 496.204 309.205 496.204 312.615C496.204 316.024 498.968 318.788 502.377 318.788C505.786 318.788 508.549 316.024 508.549 312.615Z" fill="#B18ED7"/>
<path d="M894.346 654.473C894.346 651.064 891.583 648.3 888.173 648.3C884.764 648.3 882.001 651.064 882.001 654.473C882.001 657.883 884.764 660.647 888.173 660.647C891.583 660.647 894.346 657.883 894.346 654.473Z" fill="#8863D5"/>
<path d="M1359.97 138.329C1359.97 134.919 1357.21 132.155 1353.8 132.155C1350.39 132.155 1347.63 134.919 1347.63 138.329C1347.63 141.738 1350.39 144.502 1353.8 144.502C1357.21 144.502 1359.97 141.738 1359.97 138.329Z" fill="#8863D5"/>
<path d="M678.123 442.34C678.123 438.931 675.359 436.166 671.95 436.166C668.541 436.166 665.777 438.931 665.777 442.34C665.777 445.75 668.541 448.514 671.95 448.514C675.359 448.514 678.123 445.75 678.123 442.34Z" fill="#8863D5"/>
<path d="M50.0594 283.256C50.0594 279.847 47.2959 277.082 43.8868 277.082C40.4778 277.082 37.7141 279.847 37.7141 283.256C37.7141 286.666 40.4778 289.43 43.8868 289.43C47.2959 289.43 50.0594 286.666 50.0594 283.256Z" fill="#8863D5"/>
<path d="M1281.44 73.6244C1281.44 70.2147 1278.68 67.4507 1275.27 67.4507C1271.86 67.4507 1269.1 70.2147 1269.1 73.6244C1269.1 77.034 1271.86 79.7981 1275.27 79.7981C1278.68 79.7981 1281.44 77.034 1281.44 73.6244Z" fill="#8863D5"/>
<path d="M1464.32 104.333C1464.32 98.8778 1459.9 94.4552 1454.44 94.4552C1448.99 94.4552 1444.57 98.8778 1444.57 104.333C1444.57 109.789 1448.99 114.211 1454.44 114.211C1459.9 114.211 1464.32 109.789 1464.32 104.333Z" fill="#8863D5"/>
<path d="M591.664 173.338C591.664 167.882 587.243 163.46 581.788 163.46C576.334 163.46 571.912 167.882 571.912 173.338C571.912 178.793 576.334 183.216 581.788 183.216C587.243 183.216 591.664 178.793 591.664 173.338Z" fill="#724CE3"/>
<path d="M405.9 67.0446C405.9 61.5892 401.479 57.1666 396.024 57.1666C390.57 57.1666 386.148 61.5892 386.148 67.0446C386.148 72.5001 390.57 76.9226 396.024 76.9226C401.479 76.9226 405.9 72.5001 405.9 67.0446Z" fill="#8365CF"/>
</g>
<g filter="url(#filter0_f_39_408)">
<path d="M43.2828 552.531C43.2828 554.236 41.9011 555.618 40.1965 555.618C38.492 555.618 37.1102 554.236 37.1102 552.531C37.1102 550.826 38.492 549.444 40.1965 549.444C41.9011 549.444 43.2828 550.826 43.2828 552.531Z" fill="#B593D6"/>
<path d="M43.3336 329.579C43.3336 331.283 41.9519 332.665 40.2473 332.665C38.5428 332.665 37.161 331.283 37.161 329.579C37.161 327.874 38.5428 326.492 40.2473 326.492C41.9519 326.492 43.3336 327.874 43.3336 329.579Z" fill="#CCA9C7"/>
<path d="M295.828 467.591C295.828 469.296 294.446 470.678 292.742 470.678C291.037 470.678 289.656 469.296 289.656 467.591C289.656 465.886 291.037 464.504 292.742 464.504C294.446 464.504 295.828 465.886 295.828 467.591Z" fill="#8863D5"/>
<path d="M165.196 675.744C165.196 677.449 163.814 678.831 162.109 678.831C160.405 678.831 159.023 677.449 159.023 675.744C159.023 674.039 160.405 672.657 162.109 672.657C163.814 672.657 165.196 674.039 165.196 675.744Z" fill="#8863D5"/>
<path d="M250.416 692.081C250.416 693.786 249.034 695.168 247.33 695.168C245.625 695.168 244.243 693.786 244.243 692.081C244.243 690.376 245.625 688.994 247.33 688.994C249.034 688.994 250.416 690.376 250.416 692.081Z" fill="#8863D5"/>
<path d="M168.282 166.546C168.282 168.251 166.9 169.633 165.196 169.633C163.491 169.633 162.109 168.251 162.109 166.546C162.109 164.842 163.491 163.459 165.196 163.459C166.9 163.459 168.282 164.842 168.282 166.546Z" fill="#9D84CB"/>
<path d="M316.207 180.128C316.207 181.833 314.826 183.215 313.121 183.215C311.417 183.215 310.035 181.833 310.035 180.128C310.035 178.424 311.417 177.042 313.121 177.042C314.826 177.042 316.207 178.424 316.207 180.128Z" fill="#8863D5"/>
<path d="M1489.85 147.589C1489.85 149.294 1488.47 150.676 1486.76 150.676C1485.06 150.676 1483.68 149.294 1483.68 147.589C1483.68 145.884 1485.06 144.502 1486.76 144.502C1488.47 144.502 1489.85 145.884 1489.85 147.589Z" fill="#BEA6CD"/>
<path d="M863.458 461.416C863.458 463.121 862.076 464.503 860.372 464.503C858.667 464.503 857.285 463.121 857.285 461.416C857.285 459.711 858.667 458.329 860.372 458.329C862.076 458.329 863.458 459.711 863.458 461.416Z" fill="#8863D5"/>
<path d="M37.7141 47.9058C37.7141 49.6106 36.3323 50.9927 34.6278 50.9927C32.9233 50.9927 31.5415 49.6106 31.5415 47.9058C31.5415 46.201 32.9233 44.819 34.6278 44.819C36.3323 44.819 37.7141 46.201 37.7141 47.9058Z" fill="#8863D5"/>
<path d="M789.041 432.138C789.041 433.843 787.659 435.225 785.954 435.225C784.25 435.225 782.868 433.843 782.868 432.138C782.868 430.434 784.25 429.052 785.954 429.052C787.659 429.052 789.041 430.434 789.041 432.138Z" fill="#8863D5"/>
<path d="M636.297 702.474C636.297 704.178 634.915 705.56 633.21 705.56C631.506 705.56 630.124 704.178 630.124 702.474C630.124 700.769 631.506 699.387 633.21 699.387C634.915 699.387 636.297 700.769 636.297 702.474Z" fill="#8863D5"/>
<path d="M229.157 114.211C229.157 117.62 226.393 120.385 222.984 120.385C219.575 120.385 216.812 117.62 216.812 114.211C216.812 110.801 219.575 108.037 222.984 108.037C226.393 108.037 229.157 110.801 229.157 114.211Z" fill="#C7A9CF"/>
<path d="M723.375 582.013C723.375 585.422 720.611 588.187 717.202 588.187C713.793 588.187 711.029 585.422 711.029 582.013C711.029 578.603 713.793 575.839 717.202 575.839C720.611 575.839 723.375 578.603 723.375 582.013Z" fill="#C7AACF"/>
<path d="M1169.71 223.264C1169.71 226.673 1166.94 229.437 1163.53 229.437C1160.12 229.437 1157.36 226.673 1157.36 223.264C1157.36 219.854 1160.12 217.09 1163.53 217.09C1166.94 217.09 1169.71 219.854 1169.71 223.264Z" fill="#AB95D2"/>
</g>
<path d="M43.2828 562.531C43.2828 564.236 41.9011 565.618 40.1965 565.618C38.492 565.618 37.1102 564.236 37.1102 562.531C37.1102 560.826 38.492 559.444 40.1965 559.444C41.9011 559.444 43.2828 560.826 43.2828 562.531Z" fill="#B593D6"/>
<path d="M43.3336 339.579C43.3336 341.283 41.9519 342.665 40.2473 342.665C38.5428 342.665 37.161 341.283 37.161 339.579C37.161 337.874 38.5428 336.492 40.2473 336.492C41.9519 336.492 43.3336 337.874 43.3336 339.579Z" fill="#CCA9C7"/>
<path d="M295.828 477.591C295.828 479.296 294.446 480.678 292.742 480.678C291.037 480.678 289.656 479.296 289.656 477.591C289.656 475.886 291.037 474.504 292.742 474.504C294.446 474.504 295.828 475.886 295.828 477.591Z" fill="#8863D5"/>
<path d="M165.196 685.744C165.196 687.449 163.814 688.831 162.109 688.831C160.405 688.831 159.023 687.449 159.023 685.744C159.023 684.039 160.405 682.657 162.109 682.657C163.814 682.657 165.196 684.039 165.196 685.744Z" fill="#8863D5"/>
<path d="M250.416 702.081C250.416 703.786 249.034 705.168 247.33 705.168C245.625 705.168 244.243 703.786 244.243 702.081C244.243 700.376 245.625 698.994 247.33 698.994C249.034 698.994 250.416 700.376 250.416 702.081Z" fill="#8863D5"/>
<path d="M168.282 176.546C168.282 178.251 166.9 179.633 165.196 179.633C163.491 179.633 162.109 178.251 162.109 176.546C162.109 174.842 163.491 173.459 165.196 173.459C166.9 173.459 168.282 174.842 168.282 176.546Z" fill="#9D84CB"/>
<path d="M316.207 190.128C316.207 191.833 314.826 193.215 313.121 193.215C311.417 193.215 310.035 191.833 310.035 190.128C310.035 188.424 311.417 187.042 313.121 187.042C314.826 187.042 316.207 188.424 316.207 190.128Z" fill="#8863D5"/>
<path d="M1489.85 157.589C1489.85 159.294 1488.47 160.676 1486.76 160.676C1485.06 160.676 1483.68 159.294 1483.68 157.589C1483.68 155.884 1485.06 154.502 1486.76 154.502C1488.47 154.502 1489.85 155.884 1489.85 157.589Z" fill="#BEA6CD"/>
<path d="M863.458 471.416C863.458 473.121 862.076 474.503 860.372 474.503C858.667 474.503 857.285 473.121 857.285 471.416C857.285 469.711 858.667 468.329 860.372 468.329C862.076 468.329 863.458 469.711 863.458 471.416Z" fill="#8863D5"/>
<path d="M37.7141 57.9058C37.7141 59.6106 36.3323 60.9927 34.6278 60.9927C32.9233 60.9927 31.5415 59.6106 31.5415 57.9058C31.5415 56.201 32.9233 54.819 34.6278 54.819C36.3323 54.819 37.7141 56.201 37.7141 57.9058Z" fill="#8863D5"/>
<path d="M789.041 442.138C789.041 443.843 787.659 445.225 785.954 445.225C784.25 445.225 782.868 443.843 782.868 442.138C782.868 440.434 784.25 439.052 785.954 439.052C787.659 439.052 789.041 440.434 789.041 442.138Z" fill="#8863D5"/>
<path d="M636.297 712.474C636.297 714.178 634.915 715.56 633.21 715.56C631.506 715.56 630.124 714.178 630.124 712.474C630.124 710.769 631.506 709.387 633.21 709.387C634.915 709.387 636.297 710.769 636.297 712.474Z" fill="#8863D5"/>
<path d="M229.157 124.211C229.157 127.62 226.393 130.385 222.984 130.385C219.575 130.385 216.812 127.62 216.812 124.211C216.812 120.801 219.575 118.037 222.984 118.037C226.393 118.037 229.157 120.801 229.157 124.211Z" fill="#C7A9CF"/>
<path d="M723.375 592.013C723.375 595.422 720.611 598.187 717.202 598.187C713.793 598.187 711.029 595.422 711.029 592.013C711.029 588.603 713.793 585.839 717.202 585.839C720.611 585.839 723.375 588.603 723.375 592.013Z" fill="#C7AACF"/>
<path d="M1169.71 233.264C1169.71 236.673 1166.94 239.437 1163.53 239.437C1160.12 239.437 1157.36 236.673 1157.36 233.264C1157.36 229.854 1160.12 227.09 1163.53 227.09C1166.94 227.09 1169.71 229.854 1169.71 233.264Z" fill="#AB95D2"/>
<g opacity="0.7">
<path d="M1002.97 324.229L1020.34 320.957L1025.75 331.859L1002.97 324.229Z" fill="#D4B295"/>
<path d="M1047.28 370.298L1036.08 374.783L1034.64 387.768L1047.28 370.298Z" fill="#A78260"/>
<path d="M1034.36 387.59L1016.38 391.019L1035.77 374.89L1034.36 387.59Z" fill="#9F7959"/>
<path d="M1016.08 391.275L1017.82 394.649L1034.36 387.896L1016.08 391.275Z" fill="#8B644D"/>
<path d="M1036.27 374.205L1047.15 369.851L1048.18 349.797L1044.82 350.426L1036.27 374.205Z" fill="#B69272"/>
<path d="M1035.96 374.304L1028.64 353.573L1044.53 350.552L1035.96 374.304Z" fill="#BF9A7D"/>
<path d="M1028.44 353.753L1011.4 371.335L1035.66 374.371L1028.44 353.753Z" fill="#B99374"/>
<path d="M1035.64 374.64L1015.92 391.097L1011.23 371.595L1035.64 374.64Z" fill="#A88462"/>
<path d="M1010.93 371.747L994.72 385.233L1015.64 390.974L1010.93 371.747Z" fill="#A07A5A"/>
<path d="M994.596 384.93L986.012 362.244L1010.71 371.608L994.596 384.93Z" fill="#AA8564"/>
<path d="M1011.18 371.234L1028.26 353.617L1005.57 343.965L1011.18 371.234Z" fill="#C29D80"/>
<path d="M1005.31 344.074L985.992 361.948L1010.94 371.359L1005.31 344.074Z" fill="#BA9576"/>
<path d="M1025.87 332.427L1005.72 343.793L1028.35 353.384L1025.87 332.427Z" fill="#CEAC8F"/>
<path d="M1026.16 332.325L1038.92 331.516L1044.53 350.264L1028.59 353.36L1026.16 332.325Z" fill="#CBA98C"/>
<path d="M1044.79 350.191L1048.19 349.607L1039.27 331.585L1044.79 350.191Z" fill="#C6A385"/>
<path d="M1020.64 320.953L1026.18 332.019L1038.81 331.191L1020.64 320.953Z" fill="#D2B094"/>
<path d="M1005.43 343.623L1002.68 324.36L1025.75 332.153L1005.43 343.623Z" fill="#D1AF92"/>
<path d="M1005.13 343.652L985.629 338.849L1002.36 324.454L1005.13 343.652Z" fill="#CAA88B"/>
<path d="M985.503 338.672L983.773 330.445L1002.49 320.719L1002.39 324.044L985.503 338.672Z" fill="#C29C80"/>
<path d="M1002.7 324.057L1020.17 320.653L1002.8 320.736L1002.7 324.057Z" fill="#CDAA8E"/>
<path d="M985.978 361.666L1005.13 343.918L985.603 339.117L985.978 361.666Z" fill="#BD9779"/>
<path d="M985.339 338.965L973.546 351.174L983.587 330.716L985.339 338.965Z" fill="#B38E6E"/>
<path d="M973.67 351.321L985.705 361.646L985.326 339.401L973.67 351.321Z" fill="#AE8969"/>
<path d="M985.669 362.235L978.626 375.926L974.287 364.639L985.669 362.235Z" fill="#9A7355"/>
<path d="M974.23 364.415L973.568 351.509L985.695 361.974L974.23 364.415Z" fill="#9F7959"/>
<path d="M994.394 385.62L979.656 377.178L995.509 392.457L994.394 385.62Z" fill="#936C4B"/>
<path d="M985.825 362.401L978.736 376.228L994.386 385.257L985.825 362.401Z" fill="#9D7757"/>
<path d="M1017.53 394.647L1015.78 391.26L994.645 385.498L995.803 392.627L1017.53 394.647Z" fill="#9C7556"/>
<g style="mix-blend-mode:overlay">
<path d="M1003.06 324.207L1020.43 320.98L1025.82 331.896L1003.06 324.207Z" fill="#02257E"/>
<path d="M1047.25 370.392L1036.03 374.848L1034.57 387.83L1047.25 370.392Z" fill="#02257E"/>
<path d="M1034.29 387.651L1016.29 391.033L1035.73 374.954L1034.29 387.651Z" fill="#02257E"/>
<path d="M1016 391.289L1017.73 394.668L1034.28 387.957L1016 391.289Z" fill="#02257E"/>
<path d="M1036.23 374.271L1047.12 369.945L1048.2 349.893L1044.84 350.513L1036.23 374.271Z" fill="#02257E"/>
<path d="M1035.91 374.369L1028.66 353.618L1044.55 350.639L1035.91 374.369Z" fill="#02257E"/>
<path d="M1028.45 353.798L1011.37 371.336L1035.62 374.435L1028.45 353.798Z" fill="#02257E"/>
<path d="M1035.6 374.704L1015.84 391.111L1011.2 371.596L1035.6 374.704Z" fill="#02257E"/>
<path d="M1010.9 371.747L994.651 385.191L1015.55 390.987L1010.9 371.747Z" fill="#02257E"/>
<path d="M994.527 384.887L986.001 362.179L1010.68 371.607L994.527 384.887Z" fill="#02257E"/>
<path d="M1011.14 371.234L1028.27 353.662L1005.6 343.95L1011.14 371.234Z" fill="#02257E"/>
<path d="M1005.35 344.059L985.982 361.883L1010.9 371.359L1005.35 344.059Z" fill="#02257E"/>
<path d="M1025.94 332.465L1005.75 343.778L1028.36 353.429L1025.94 332.465Z" fill="#02257E"/>
<path d="M1026.22 332.363L1038.99 331.587L1044.56 350.351L1028.6 353.405L1026.22 332.363Z" fill="#02257E"/>
<path d="M1044.81 350.278L1048.21 349.703L1039.34 331.657L1044.81 350.278Z" fill="#02257E"/>
<path d="M1020.74 320.977L1026.25 332.057L1038.88 331.262L1020.74 320.977Z" fill="#02257E"/>
<path d="M1005.47 343.607L1002.76 324.337L1025.81 332.19L1005.47 343.607Z" fill="#02257E"/>
<path d="M1005.17 343.636L985.679 338.782L1002.45 324.43L1005.17 343.636Z" fill="#02257E"/>
<path d="M985.553 338.605L983.844 330.373L1002.59 320.695L1002.48 324.021L985.553 338.605Z" fill="#02257E"/>
<path d="M1002.79 324.034L1020.26 320.675L1002.89 320.713L1002.79 324.034Z" fill="#02257E"/>
<path d="M985.969 361.6L1005.17 343.902L985.652 339.05L985.969 361.6Z" fill="#02257E"/>
<path d="M985.388 338.898L973.564 351.076L983.657 330.644L985.388 338.898Z" fill="#02257E"/>
<path d="M973.687 351.223L985.696 361.58L985.374 339.333L973.687 351.223Z" fill="#02257E"/>
<path d="M985.658 362.169L978.58 375.842L974.27 364.544L985.658 362.169Z" fill="#02257E"/>
<path d="M974.214 364.319L973.585 351.411L985.685 361.907L974.214 364.319Z" fill="#02257E"/>
<path d="M994.324 385.577L979.608 377.096L995.421 392.418L994.324 385.577Z" fill="#02257E"/>
<path d="M985.814 362.335L978.69 376.144L994.316 385.214L985.814 362.335Z" fill="#02257E"/>
<path d="M1017.43 394.665L1015.69 391.273L994.575 385.456L995.714 392.588L1017.43 394.665Z" fill="#02257E"/>
</g>
<g style="mix-blend-mode:overlay" filter="url(#filter1_f_39_408)">
<path d="M1061 338.955L1063.05 365.007L1053.31 380.971L1032.72 397.625L1007.02 394.582L998.42 384.147L989.418 360.365L1008.83 323.023L1035.4 318.21L1046.36 322.022L1055.24 329.861L1061 338.955Z" fill="url(#paint0_radial_39_408)"/>
</g>
<g style="mix-blend-mode:color" filter="url(#filter2_f_39_408)">
<path d="M997.951 334.237L1022.09 344.257L1031.87 360.194L1037.35 386.097L1022.96 407.606L1009.75 410.524L984.478 407.731L960.041 373.468L967.835 347.61L976.214 339.579L987.232 335.234L997.951 334.237Z" fill="url(#paint1_radial_39_408)"/>
</g>
</g>
<g opacity="0.7">
<g style="mix-blend-mode:color" filter="url(#filter3_f_39_408)">
<path d="M-13.5183 62.9727L18.109 55.6005L39.5404 64.5962L63.8401 86.7788L50.1483 110.314L27.8676 124.091L-19.515 116.028L-34.2329 98.2957L-31.5932 84.117L-23.6174 71.7456L-13.5183 62.9727Z" fill="url(#paint2_radial_39_408)"/>
</g>
<path d="M-16.4686 88.1239L-1.31046 72.2397L12.0533 79.324L-16.4686 88.1239Z" fill="#D4B295"/>
<path d="M61.6426 102.531L53.5855 115.176L61.5445 129.326L61.6426 102.531Z" fill="#A78260"/>
<path d="M61.1326 129.349L45.4591 145.844L53.3531 115.505L61.1326 129.349Z" fill="#9F7959"/>
<path d="M45.3493 146.315L49.5524 148.459L61.3495 129.661L45.3493 146.315Z" fill="#8B644D"/>
<path d="M53.3613 114.452L61.1937 102.17L47.6949 81.1827L44.7674 84.2464L53.3613 114.452Z" fill="#B69272"/>
<path d="M53.1159 114.78L30.7124 99.1477L44.5639 84.5855L53.1159 114.78Z" fill="#BF9A7D"/>
<path d="M30.6333 99.4805L26.1734 129.576L52.8692 115.059L30.6333 99.4805Z" fill="#B99374"/>
<path d="M53.0437 115.346L45.0593 146.251L26.1912 129.961L53.0437 115.346Z" fill="#A88462"/>
<path d="M26.0005 130.331L19.4039 155.694L44.6814 146.334L26.0005 130.331Z" fill="#A07A5A"/>
<path d="M19.0583 155.478L-6.04677 138.795L25.6741 130.352L19.0583 155.478Z" fill="#AA8564"/>
<path d="M25.8734 129.636L30.3544 99.4725L0.449206 106.172L25.8734 129.636Z" fill="#C29D80"/>
<path d="M0.273631 106.465L-6.28086 138.51L25.7215 129.937L0.273631 106.465Z" fill="#BA9576"/>
<path d="M12.5902 79.8079L0.477747 105.887L30.2806 99.1693L12.5902 79.8079Z" fill="#CEAC8F"/>
<path d="M12.8046 79.4983L25.1047 69.4319L44.3575 84.2926L30.5048 98.9708L12.8046 79.4983Z" fill="#CBA98C"/>
<path d="M44.5599 84.0351L47.5693 80.9824L25.5086 69.2479L44.5599 84.0351Z" fill="#C6A385"/>
<path d="M-1.00564 72.0154L12.6044 79.1736L24.7554 69.1858L-1.00564 72.0154Z" fill="#D2B094"/>
<path d="M0.0661419 105.922L-16.6717 88.4699L12.2639 79.6233L0.0661419 105.922Z" fill="#D1AF92"/>
<path d="M-0.218581 106.173L-23.3852 115.452L-16.9244 88.7951L-0.218581 106.173Z" fill="#CAA88B"/>
<path d="M-6.49895 138.235L-0.0247929 106.44L-23.2174 115.741L-6.49895 138.235Z" fill="#BD9779"/>
<path d="M-6.39887 139.034L-3.58878 157.96L-16.1479 149.709L-6.39887 139.034Z" fill="#9A7355"/>
<path d="M19.3554 156.321L-1.64152 158.477L25.4355 162.416L19.3554 156.321Z" fill="#936C4B"/>
<path d="M-6.12105 139.089L-3.25888 158.185L19.0834 155.96L-6.12105 139.089Z" fill="#9D7757"/>
<path d="M49.2496 148.673L45.0282 146.521L19.5201 156.015L25.8547 162.375L49.2496 148.673Z" fill="#9C7556"/>
<g style="mix-blend-mode:overlay">
<path d="M-16.3973 88.0386L-1.19802 72.1938L12.148 79.3128L-16.3973 88.0386Z" fill="#02257E"/>
<path d="M61.6794 102.649L53.5897 115.272L61.5127 129.443L61.6794 102.649Z" fill="#02257E"/>
<path d="M61.1008 129.465L45.3846 145.919L53.3565 115.601L61.1008 129.465Z" fill="#02257E"/>
<path d="M45.2735 146.39L49.4712 148.546L61.3168 129.778L45.2735 146.39Z" fill="#261593"/>
<path d="M53.3673 114.548L61.2314 102.287L47.7859 81.2641L44.8505 84.3201L53.3673 114.548Z" fill="#02257E"/>
<path d="M53.1211 114.876L30.7569 99.185L44.6461 84.6588L53.1211 114.876Z" fill="#02257E"/>
<path d="M30.677 99.5175L26.1399 129.602L52.8736 115.154L30.677 99.5175Z" fill="#02257E"/>
<path d="M53.0474 115.441L44.9836 146.325L26.1567 129.987L53.0474 115.441Z" fill="#02257E"/>
<path d="M25.965 130.356L19.3032 155.702L44.6055 146.407L25.965 130.356Z" fill="#02257E"/>
<path d="M18.9582 155.485L-6.1049 138.736L25.6385 130.376L18.9582 155.485Z" fill="#02257E"/>
<path d="M25.8397 129.661L30.3981 99.5089L0.474826 106.13L25.8397 129.661Z" fill="#02257E"/>
<path d="M0.298462 106.423L-6.3383 138.451L25.687 129.961L0.298462 106.423Z" fill="#02257E"/>
<path d="M12.6837 79.7981L0.504053 105.846L30.325 99.2055L12.6837 79.7981Z" fill="#02257E"/>
<path d="M12.8989 79.489L25.2252 69.4546L44.4405 84.3654L30.5498 99.0076L12.8989 79.489Z" fill="#02257E"/>
<path d="M44.6435 84.1085L47.6609 81.0636L25.6295 69.2717L44.6435 84.1085Z" fill="#02257E"/>
<path d="M-0.892589 71.9702L12.6996 79.1639L24.8765 69.2076L-0.892589 71.9702Z" fill="#02257E"/>
<path d="M0.0923524 105.88L-16.6013 88.3841L12.3579 79.6127L0.0923524 105.88Z" fill="#02257E"/>
<path d="M-0.192989 106.129L-23.3841 115.349L-16.8548 88.7085L-0.192989 106.129Z" fill="#02257E"/>
<path d="M-6.55571 138.176L8.59888e-05 106.397L-23.217 115.639L-6.55571 138.176Z" fill="#02257E"/>
<path d="M-6.45764 138.975L-3.69593 157.909L-16.2343 149.625L-6.45764 138.975Z" fill="#02257E"/>
<path d="M19.2532 156.329L-1.74993 158.43L25.3178 162.44L19.2532 156.329Z" fill="#02257E"/>
<path d="M-6.17995 139.03L-3.36659 158.134L18.982 155.967L-6.17995 139.03Z" fill="#02257E"/>
<path d="M49.1678 148.759L44.9518 146.596L19.4186 156.024L25.7372 162.4L49.1678 148.759Z" fill="#02257E"/>
</g>
<g style="mix-blend-mode:overlay" filter="url(#filter4_f_39_408)">
<path d="M47.4014 80.6446L61.6857 103.06L61.6857 128.332L49.3792 148.11L24.9862 161.516L22.3526 151.917L-3.9697 134.429L-11.4323 82.6648L-0.0662706 71.8543L24.9861 69.2172L47.4014 80.6446Z" fill="url(#paint3_radial_39_408)"/>
</g>
<g style="mix-blend-mode:color" filter="url(#filter5_f_39_408)">
<path d="M-19.8913 99.2308L11.736 91.8586L33.1674 100.854L57.4672 123.037L43.7753 146.572L21.4946 160.349L-25.888 152.286L-40.6059 134.554L-37.9662 120.375L-29.9904 108.004L-19.8913 99.2308Z" fill="url(#paint4_radial_39_408)"/>
</g>
</g>
<path d="M1212.93 267.48L1366.9 233.628L1418.11 329.408L1212.93 267.48Z" fill="#D4B295"/>
<path d="M1620.49 666.472L1521.81 709.494L1512.49 825.699L1620.49 666.472Z" fill="#A78260"/>
<path d="M1509.95 824.184L1350.45 859.608L1519.1 710.525L1509.95 824.184Z" fill="#9F7959"/>
<path d="M1523.37 704.285L1619.26 662.522L1622.99 483.376L1593.26 489.889L1523.37 704.285Z" fill="#B69272"/>
<path d="M1520.59 705.254L1449.8 522.309L1590.69 491.094L1520.59 705.254Z" fill="#BF9A7D"/>
<path d="M1447.99 523.975L1300.78 685.379L1518.01 705.927L1447.99 523.975Z" fill="#B99374"/>
<path d="M1517.9 708.335L1346.44 860.43L1299.34 687.744L1517.9 708.335Z" fill="#A88462"/>
<path d="M1296.72 689.18L1155.74 813.829L1343.85 859.409L1296.72 689.18Z" fill="#A07A5A"/>
<path d="M1154.55 811.152L1071.88 611.117L1294.69 687.996L1154.55 811.152Z" fill="#AA8564"/>
<path d="M1298.75 684.535L1446.36 522.81L1241.36 442.821L1298.75 684.535Z" fill="#C29D80"/>
<path d="M1239.14 443.862L1071.63 608.483L1296.64 685.717L1239.14 443.862Z" fill="#BA9576"/>
<path d="M1419.37 334.444L1242.67 441.243L1447.14 520.707L1419.37 334.444Z" fill="#CEAC8F"/>
<path d="M1421.89 333.459L1535.52 322.805L1590.64 488.521L1449.27 520.423L1421.89 333.459Z" fill="#CBA98C"/>
<path d="M1592.88 487.799L1623.04 481.679L1538.66 323.329L1592.88 487.799Z" fill="#C6A385"/>
<path d="M1369.62 233.513L1422 330.722L1534.43 319.939L1369.62 233.513Z" fill="#D2B094"/>
<path d="M1240.07 439.801L1210.33 268.728L1418.17 332.036L1240.07 439.801Z" fill="#D1AF92"/>
<path d="M1237.38 440.148L1062.17 402.55L1207.52 269.651L1237.38 440.148Z" fill="#CAA88B"/>
<path d="M1061 401.006L1043.35 328.094L1207.71 236.305L1207.71 265.991L1061 401.006Z" fill="#C29C80"/>
<path d="M1210.43 266.025L1365.3 230.962L1210.43 236.375L1210.43 266.025Z" fill="#CDAA8E"/>
<path d="M1071.43 605.971L1237.46 442.517L1062.01 404.945L1071.43 605.971Z" fill="#BD9779"/>
<path d="M1059.61 403.667L957.716 515.733L1041.76 330.558L1059.61 403.667Z" fill="#B38E6E"/>
<path d="M958.856 517.011L1068.98 605.865L1059.61 407.552L958.856 517.011Z" fill="#AE8969"/>
<path d="M1068.82 611.134L1009.69 735.146L967.95 635.639L1068.82 611.134Z" fill="#9A7355"/>
<path d="M967.379 633.649L958.002 518.716L1068.98 608.792L967.379 633.649Z" fill="#9F7959"/>
<path d="M1152.94 817.369L1019.22 746.028L1164.73 878.052L1152.94 817.369Z" fill="#936C4B"/>
<path d="M1070.26 612.571L1010.75 737.807L1152.77 814.126L1070.26 612.571Z" fill="#9D7757"/>
<g style="mix-blend-mode:overlay">
<path d="M1212.93 267.48L1366.9 233.628L1418.11 329.408L1212.93 267.48Z" fill="#730984"/>
<path d="M1620.49 666.472L1521.81 709.494L1512.49 825.699L1620.49 666.472Z" fill="#730984"/>
<path d="M1509.95 824.184L1350.45 859.608L1519.1 710.525L1509.95 824.184Z" fill="#730984"/>
<path d="M1523.37 704.285L1619.26 662.522L1622.99 483.376L1593.26 489.889L1523.37 704.285Z" fill="#730984"/>
<path d="M1520.59 705.254L1449.8 522.309L1590.69 491.094L1520.59 705.254Z" fill="#730984"/>
<path d="M1447.99 523.975L1300.78 685.379L1518 705.927L1447.99 523.975Z" fill="#730984"/>
<path d="M1517.89 708.335L1346.44 860.43L1299.34 687.744L1517.89 708.335Z" fill="#730984"/>
<path d="M1296.72 689.18L1155.74 813.829L1343.85 859.409L1296.72 689.18Z" fill="#730984"/>
<path d="M1154.55 811.152L1071.88 611.117L1294.69 687.996L1154.55 811.152Z" fill="#730984"/>
<path d="M1298.75 684.535L1446.36 522.81L1241.36 442.821L1298.75 684.535Z" fill="#730984"/>
<path d="M1239.14 443.862L1071.63 608.483L1296.64 685.717L1239.14 443.862Z" fill="#730984"/>
<path d="M1419.37 334.444L1242.67 441.243L1447.14 520.707L1419.37 334.444Z" fill="#730984"/>
<path d="M1421.89 333.459L1535.52 322.805L1590.64 488.521L1449.27 520.423L1421.89 333.459Z" fill="#730984"/>
<path d="M1592.87 487.799L1623.04 481.679L1538.66 323.329L1592.87 487.799Z" fill="#730984"/>
<path d="M1369.62 233.513L1422 330.722L1534.43 319.939L1369.62 233.513Z" fill="#730984"/>
<path d="M1240.07 439.801L1210.33 268.728L1418.17 332.036L1240.07 439.801Z" fill="#730984"/>
<path d="M1237.38 440.148L1062.17 402.55L1207.52 269.651L1237.38 440.148Z" fill="#730984"/>
<path d="M1061 401.006L1043.35 328.094L1207.71 236.305L1207.71 265.991L1061 401.006Z" fill="#730984"/>
<path d="M1210.43 266.025L1365.3 230.962L1210.43 236.375L1210.43 266.025Z" fill="#730984"/>
<path d="M1071.43 605.971L1237.46 442.517L1062.01 404.945L1071.43 605.971Z" fill="#730984"/>
<path d="M1059.61 403.667L957.715 515.733L1041.76 330.558L1059.61 403.667Z" fill="#730984"/>
<path d="M958.856 517.011L1068.98 605.865L1059.61 407.552L958.856 517.011Z" fill="#730984"/>
<path d="M1068.82 611.134L1009.69 735.146L967.95 635.639L1068.82 611.134Z" fill="#730984"/>
<path d="M967.378 633.649L958.001 518.716L1068.98 608.792L967.378 633.649Z" fill="#730984"/>
<path d="M1152.94 817.369L1019.22 746.028L1164.73 878.052L1152.94 817.369Z" fill="#730984"/>
<path d="M1070.26 612.571L1010.75 737.807L1152.77 814.126L1070.26 612.571Z" fill="#730984"/>
</g>
<g opacity="0.6" filter="url(#filter6_f_39_408)">
<path d="M1344.29 642.274L1226.4 795.868L939.395 758.316L904.98 466.753L960.606 326.632L1312.16 226.458L1373.9 440.489L1344.29 642.274Z" fill="url(#paint5_radial_39_408)"/>
</g>
<path d="M900.071 568.326L930.641 562.602L940.206 581.863L900.071 568.326Z" fill="#D4B295"/>
<path d="M978.24 649.785L958.527 657.67L956.036 680.589L978.24 649.785Z" fill="#A78260"/>
<path d="M955.542 680.273L923.874 686.273L957.987 657.857L955.542 680.273Z" fill="#9F7959"/>
<path d="M923.359 686.725L926.436 692.687L955.534 680.813L923.359 686.725Z" fill="#8B644D"/>
<path d="M958.865 656.65L978.02 648.996L979.762 613.597L973.861 614.698L958.865 656.65Z" fill="#B69272"/>
<path d="M958.312 656.824L945.373 620.205L973.347 614.92L958.312 656.824Z" fill="#BF9A7D"/>
<path d="M945.007 620.523L915.053 651.51L957.797 656.941L945.007 620.523Z" fill="#B99374"/>
<path d="M957.762 657.417L923.078 686.411L914.757 651.969L957.762 657.417Z" fill="#A88462"/>
<path d="M914.232 652.236L885.716 675.995L922.574 686.192L914.232 652.236Z" fill="#A07A5A"/>
<path d="M885.496 675.459L870.31 635.385L913.838 651.989L885.496 675.459Z" fill="#AA8564"/>
<path d="M914.658 651.331L944.692 620.282L904.695 603.175L914.658 651.331Z" fill="#C29D80"/>
<path d="M904.251 603.367L870.274 634.863L914.235 651.551L904.251 603.367Z" fill="#BA9576"/>
<path d="M940.426 582.867L904.962 602.871L944.857 619.871L940.426 582.867Z" fill="#CEAC8F"/>
<path d="M940.929 582.688L963.408 581.297L973.35 614.411L945.279 619.829L940.929 582.688Z" fill="#CBA98C"/>
<path d="M973.796 614.282L979.782 613.262L964.025 581.42L973.796 614.282Z" fill="#C6A385"/>
<path d="M931.178 562.596L940.966 582.147L963.208 580.723L931.178 562.596Z" fill="#D2B094"/>
<path d="M904.458 602.57L899.552 568.556L940.202 582.383L904.458 602.57Z" fill="#D1AF92"/>
<path d="M903.924 602.622L869.567 594.084L898.992 568.721L903.924 602.622Z" fill="#CAA88B"/>
<path d="M869.344 593.771L866.272 579.244L899.218 562.129L899.051 567.999L869.344 593.771Z" fill="#C29C80"/>
<path d="M899.587 568.023L930.341 562.065L899.754 562.16L899.587 568.023Z" fill="#CDAA8E"/>
<path d="M870.25 634.365L903.927 603.091L869.522 594.557L870.25 634.365Z" fill="#BD9779"/>
<path d="M869.057 594.289L848.322 615.806L865.945 579.721L869.057 594.289Z" fill="#B38E6E"/>
<path d="M848.54 616.066L869.767 634.328L869.035 595.057L848.54 616.066Z" fill="#AE8969"/>
<path d="M869.706 635.369L857.342 659.518L849.667 639.579L869.706 635.369Z" fill="#9A7355"/>
<path d="M849.565 639.182L848.361 616.398L869.751 634.907L849.565 639.182Z" fill="#9F7959"/>
<path d="M885.143 676.678L859.161 661.73L887.128 688.751L885.143 676.678Z" fill="#936C4B"/>
<path d="M869.982 635.662L857.537 660.051L885.128 676.035L869.982 635.662Z" fill="#9D7757"/>
<path d="M925.911 692.682L922.819 686.697L885.585 676.462L887.645 689.052L925.911 692.682Z" fill="#9C7556"/>
<g style="mix-blend-mode:overlay">
<path d="M900.234 568.33L930.797 562.689L940.306 581.961L900.234 568.33Z" fill="#02257E"/>
<path d="M978.137 649.934L958.419 657.763L955.87 680.659L978.137 649.934Z" fill="#02257E"/>
<path d="M955.378 680.342L923.718 686.256L957.879 657.948L955.378 680.342Z" fill="#02257E"/>
<path d="M923.202 686.706L926.261 692.672L955.369 680.882L923.202 686.706Z" fill="#02257E"/>
<path d="M958.759 656.744L977.92 649.145L979.751 613.775L973.852 614.86L958.759 656.744Z" fill="#02257E"/>
<path d="M958.206 656.917L945.37 620.289L973.338 615.081L958.206 656.917Z" fill="#02257E"/>
<path d="M945.004 620.606L914.992 651.494L957.691 657.032L945.004 620.606Z" fill="#02257E"/>
<path d="M957.655 657.507L922.921 686.391L914.695 651.952L957.655 657.507Z" fill="#02257E"/>
<path d="M914.17 652.218L885.613 675.886L922.418 686.172L914.17 652.218Z" fill="#02257E"/>
<path d="M885.395 675.35L870.322 635.265L913.777 651.97L885.395 675.35Z" fill="#02257E"/>
<path d="M914.598 651.314L944.69 620.365L904.765 603.166L914.598 651.314Z" fill="#02257E"/>
<path d="M904.321 603.357L870.289 634.742L914.174 651.533L904.321 603.357Z" fill="#02257E"/>
<path d="M940.523 582.965L905.033 602.863L944.856 619.955L940.523 582.965Z" fill="#02257E"/>
<path d="M941.026 582.787L963.492 581.455L973.342 614.572L945.278 619.913L941.026 582.787Z" fill="#02257E"/>
<path d="M973.788 614.445L979.772 613.441L964.108 581.58L973.788 614.445Z" fill="#02257E"/>
<path d="M931.333 562.685L941.064 582.247L963.294 580.882L931.333 562.685Z" fill="#02257E"/>
<path d="M904.53 602.561L899.715 568.559L940.301 582.481L904.53 602.561Z" fill="#02257E"/>
<path d="M903.996 602.611L869.686 593.991L899.155 568.722L903.996 602.611Z" fill="#02257E"/>
<path d="M869.464 593.678L866.432 579.152L899.398 562.135L899.216 568L869.464 593.678Z" fill="#02257E"/>
<path d="M899.752 568.025L930.498 562.151L899.933 562.167L899.752 568.025Z" fill="#02257E"/>
<path d="M870.265 634.245L903.998 603.08L869.64 594.463L870.265 634.245Z" fill="#02257E"/>
<path d="M869.175 594.194L848.401 615.642L866.104 579.628L869.175 594.194Z" fill="#02257E"/>
<path d="M848.618 615.902L869.783 634.207L869.152 594.961L848.618 615.902Z" fill="#02257E"/>
<path d="M869.719 635.247L857.302 659.347L849.683 639.402L869.719 635.247Z" fill="#02257E"/>
<path d="M849.583 639.006L848.439 616.234L869.765 634.786L849.583 639.006Z" fill="#02257E"/>
<path d="M885.039 676.567L859.114 661.562L886.991 688.637L885.039 676.567Z" fill="#02257E"/>
<path d="M869.994 635.541L857.496 659.88L885.025 675.925L869.994 635.541Z" fill="#02257E"/>
<path d="M925.737 692.665L922.662 686.676L885.482 676.352L887.507 688.939L925.737 692.665Z" fill="#02257E"/>
</g>
<g style="mix-blend-mode:color" filter="url(#filter7_f_39_408)">
<path d="M924.118 546.585L966.656 564.346L983.945 592.509L993.67 638.253L968.381 676.181L945.133 681.293L900.607 676.288L857.465 615.728L871.116 570.102L885.848 555.951L905.243 548.313L924.118 546.585Z" fill="url(#paint6_radial_39_408)"/>
</g>
<g style="mix-blend-mode:overlay" filter="url(#filter8_f_39_408)">
<path d="M956.671 602.626L864.66 590.756L902.443 556.849L973.84 539.354L956.671 602.626Z" fill="url(#paint7_radial_39_408)"/>
</g>
<g opacity="0.7" filter="url(#filter9_f_39_408)">
<path d="M982.464 537.153C964.78 495.104 934.815 498.019 922.043 504.732L906.815 507.679C912.547 523.235 939.629 554.739 941.201 556.311C943.166 558.276 987.377 582.837 1010.46 584.802C1028.93 586.374 1030.6 569.083 1029.13 560.241C1020.94 570.065 1000.15 579.202 982.464 537.153Z" fill="url(#paint8_radial_39_408)"/>
</g>
<g opacity="0.4" filter="url(#filter10_f_39_408)">
<path d="M975.564 588.986C975.564 593.259 950.35 594.921 931.826 594.921C913.302 594.921 886.213 580.433 886.213 576.16C886.213 571.887 905.896 569.928 924.42 569.928C942.944 569.928 975.564 584.713 975.564 588.986Z" fill="black"/>
</g>
<g filter="url(#filter11_f_39_408)">
<path d="M967.111 587.63C967.414 589.07 956.49 586.536 951.293 587.63C946.095 588.723 937.467 585.438 937.164 583.998C936.861 582.557 942.245 580.735 947.442 579.642C952.639 578.548 966.808 586.189 967.111 587.63Z" fill="url(#paint9_linear_39_408)"/>
</g>
<g filter="url(#filter12_f_39_408)">
<path d="M990.18 592.648C990.742 591.288 974.509 590.034 969.6 588.006C964.692 585.977 941.178 581.129 940.616 582.489C937.59 589.81 980.713 600.288 985.622 602.317C990.53 604.345 989.618 594.009 990.18 592.648Z" fill="url(#paint10_linear_39_408)"/>
</g>
<g filter="url(#filter13_f_39_408)">
<path d="M939.065 594.297C939.368 595.737 928.445 593.203 923.247 594.297C918.05 595.39 909.422 592.105 909.119 590.665C908.816 589.224 914.199 587.402 919.397 586.309C924.594 585.215 938.762 592.856 939.065 594.297Z" fill="url(#paint11_linear_39_408)"/>
</g>
<g filter="url(#filter14_f_39_408)">
<path d="M911.35 581.993C911.556 582.972 904.072 581.26 900.509 582.01C896.945 582.759 891.035 580.533 890.829 579.553C890.623 578.574 894.315 577.328 897.878 576.578C901.441 575.829 911.144 581.013 911.35 581.993Z" fill="url(#paint12_linear_39_408)"/>
</g>
<g filter="url(#filter15_f_39_408)">
<path d="M926.384 578.716C926.591 579.696 919.107 577.983 915.543 578.733C911.98 579.482 906.07 577.256 905.864 576.277C905.658 575.297 909.349 574.051 912.913 573.301C916.476 572.552 926.178 577.736 926.384 578.716Z" fill="url(#paint13_linear_39_408)"/>
</g>
<path d="M946.621 523.162L942.065 515.531L929.893 511.132L936.105 517.79L946.621 523.162Z" fill="#3D72AE"/>
<path d="M945.524 531.341L950.204 533.131L946.633 523.246L936.275 517.962L945.524 531.341Z" fill="#245693"/>
<path d="M940.945 585.499L947.196 586.815L947.196 582.767L940.945 581.615L940.945 585.499Z" fill="#044659"/>
<path d="M942.782 577.11L947.227 578.024L947.227 582.685L940.964 581.542L942.782 577.11Z" fill="#0C5C6F"/>
<path d="M940.497 563.264L946.511 569.004L947.227 577.962L942.787 577.046L940.497 563.264Z" fill="#044B5E"/>
<path d="M947.278 577.951L952.613 576.675L952.613 573.911L946.584 569.113L947.278 577.951Z" fill="#001C17"/>
<path d="M947.297 578.042C947.297 578.042 947.313 582.626 947.275 582.721L954.371 581.03L952.661 576.723L947.297 578.042Z" fill="#02354E"/>
<path d="M947.288 582.776L947.288 586.816L954.448 585.017L954.448 581.084L947.288 582.776Z" fill="#001100"/>
<path d="M925.876 556.2L923.691 559.253L915.456 561.189L917.522 552.8L922.547 552.594L925.876 556.2Z" fill="#011A1C"/>
<path d="M925.902 556.154L932.811 555.981L928.982 552.389L922.658 552.627L925.902 556.154Z" fill="#011D1F"/>
<path d="M908.952 573.299L911.345 573.889L909.125 567.264L908.952 573.299Z" fill="#044B5E"/>
<path d="M909.091 577.149L912.698 578.016L911.414 573.958L909.091 573.264L909.091 577.149Z" fill="#023F4F"/>
<path d="M907.149 572.189L909.091 568.998L908.917 573.195L907.149 572.189Z" fill="#003A3B"/>
<path d="M909.022 573.229L909.084 577.106L907.183 575.9L907.183 572.224L909.022 573.229Z" fill="#082E2F"/>
<path d="M925.435 527.643L916.416 520.749L913.382 534.751L921.827 538.618L934.907 536.262L925.435 527.643Z" fill="#157484"/>
<path d="M929 552.298L934.906 536.357L921.676 538.687L917.54 552.718L929 552.298Z" fill="#003538"/>
<path d="M921.677 538.543L913.408 534.86L911.228 551.021L917.467 552.75L921.677 538.543Z" fill="#0E6678"/>
<path d="M910.814 561.711L915.363 561.169L917.449 552.828L911.225 551.128L910.814 561.711Z" fill="#064C5B"/>
<path d="M910.702 519.074L916.333 520.74L913.308 534.768L907.331 534.939L910.702 519.074Z" fill="#0C6375"/>
<path d="M905.317 549.714L899.89 535.021L907.291 535.021L905.317 549.714Z" fill="#033034"/>
<path d="M899.862 535.076L896.546 534.309L905.372 550.07L899.862 535.076Z" fill="#021C1F"/>
<path d="M905.294 548.66L911.161 550.881L913.336 534.888L907.313 535.006L905.294 548.66Z" fill="#0A5A6C"/>
<path d="M906.342 561.695L910.777 561.695L911.152 550.963L905.29 548.766L906.342 561.695Z" fill="#044655"/>
<path d="M917.942 566.317L915.456 561.254L923.706 559.29L924.458 565.003L917.942 566.317Z" fill="#075165"/>
<path d="M917.978 566.39L924.476 565.056L925.381 583.379L919.742 584.951L917.978 566.39Z" fill="#042B37"/>
<path d="M920.007 589.978L927.623 587.949L925.408 583.472L919.779 585.024L920.007 589.978Z" fill="#003841"/>
<path d="M920.053 590.033L920.053 593.963L927.623 591.642L927.623 588.022L920.053 590.033Z" fill="#000217"/>
<path d="M914.376 592.426L914.597 588.917L919.971 590.005L919.971 593.917L914.376 592.426Z" fill="#04475B"/>
<path d="M919.962 589.932L919.706 585.015L915.703 583.928L914.625 588.845L919.962 589.932Z" fill="#0B5E6F"/>
<path d="M912.318 566.919L917.914 566.417L919.669 584.933L915.694 583.854L912.318 566.919Z" fill="#044B5E"/>
<path d="M915.374 561.235L910.804 561.775L912.395 566.856L917.869 566.344L915.374 561.235Z" fill="#054554"/>
<path d="M937.627 565.604L940.397 563.173L932.848 556.035L937.627 565.604Z" fill="#023E4E"/>
<path d="M940.973 576.224L942.727 577.001L940.435 563.187L937.671 565.641L940.973 576.224Z" fill="#013453"/>
<path d="M940.9 581.515L937.408 579.404L940.983 576.294L942.709 577.083C942.755 577.083 940.9 581.515 940.9 581.515Z" fill="#074F60"/>
<path d="M940.888 581.609L940.888 585.47L937.218 582.967L937.384 579.464L940.888 581.609Z" fill="#002F35"/>
<path d="M910.75 561.756L906.345 561.756L909.215 567.576L912.343 566.977L910.75 561.756Z" fill="#003541"/>
<path d="M910.213 586.426L914.573 588.831L915.639 583.927L914.515 583.114L910.213 586.426Z" fill="#095768"/>
<path d="M914.533 588.9L914.305 592.436L910.289 590.26L910.289 586.501L914.533 588.9Z" fill="#003A45"/>
<path d="M910.584 519.105L902.833 519.105L899.878 535.01L907.268 534.933L910.584 519.105Z" fill="#0B5A6D"/>
<path d="M899.781 534.966L896.632 534.346L898.117 520.688L902.717 519.095L899.781 534.966Z" fill="#064C5B"/>
<path d="M896.55 534.166L891.965 524.555L898.01 520.695L896.55 534.166Z" fill="#07515B"/>
<path d="M896.532 534.408L889.945 533.294L891.906 524.622L896.532 534.408Z" fill="#054856"/>
<path d="M896.515 547.544L889.695 544.966L889.945 533.388L896.515 534.474L896.515 547.544Z" fill="#044B5E"/>
<path d="M893.15 562.898L898.234 563.802L896.546 547.661L889.692 545.008C890.945 550.896 893.15 562.898 893.15 562.898Z" fill="#023C48"/>
<path d="M895.176 571.913L898.753 573.592L898.245 563.87L893.319 562.868L895.176 571.913Z" fill="#003841"/>
<path d="M895.147 572.042L894.951 576.709L899.259 577.77L898.818 573.772L895.147 572.042Z" fill="#044B5E"/>
<path d="M899.275 577.917L899.275 581.719L895 580.577L895 576.856L899.275 577.917Z" fill="#02414E"/>
<path d="M894.853 576.628L895 572.026L892.634 575.6L894.853 576.628Z" fill="#04465B"/>
<path d="M892.573 579.505L894.865 580.564L894.865 576.743L892.573 575.685L892.573 579.505Z" fill="#002E41"/>
<path d="M896.599 547.706L896.599 534.363C898.823 538.458 903.359 546.765 903.359 546.765L896.599 547.706Z" fill="#02434F"/>
<path d="M903.567 562.447C903.567 562.447 898.438 563.78 898.257 563.81L896.648 547.786L903.382 546.833L903.567 562.447Z" fill="#00322F"/>
<path d="M903.599 572.444L898.835 573.56L898.299 563.875L903.599 562.522L903.599 572.444Z" fill="#00151C"/>
<path d="M904.04 576.676L899.373 577.835L898.933 573.674L903.616 572.532L904.04 576.676Z" fill="#002231"/>
<path d="M899.427 577.966L899.427 581.735L904.087 580.826L904.087 576.767L899.427 577.966Z" fill="#01001C"/>
<path d="M914.535 583.006L915.641 583.844L912.365 566.97L909.198 567.559L914.535 583.006Z" fill="#05322F"/>
<path d="M936.039 517.83L929.741 511.089L916.499 520.669L925.502 527.571L936.039 517.83Z" fill="#2B92AA"/>
<path d="M925.559 527.621L934.923 536.164L945.478 531.405L936.111 517.852C932.703 521.047 925.559 527.621 925.559 527.621Z" fill="#1F7A95"/>
<path d="M935.005 536.213L945.551 531.46L955.094 559.392L948.035 563.484L935.005 536.213Z" fill="#12687C"/>
<path d="M945.624 531.479L950.203 533.224L958.949 560.523L955.166 559.362L945.624 531.479Z" fill="#011F49"/>
<path d="M955.156 559.444L958.986 560.604L971.307 577.011L970.217 577.777L955.156 559.444Z" fill="#205191"/>
<path d="M966.607 580.455L970.181 577.804L955.092 559.481L948.11 563.493L966.607 580.455Z" fill="#1C758E"/>
<path d="M970.245 577.804L992.818 593.405L983.073 590.287L966.654 580.517L970.245 577.804Z" fill="#217995"/>
<path d="M970.281 577.777L971.326 577.049L981.211 585.355L970.281 577.777Z" fill="#275792"/>
<path d="M982.455 593.021L983.085 590.398L992.893 593.509L982.455 593.021Z" fill="#073E4A"/>
<path d="M965.784 584.302L966.635 580.583L983.012 590.362L982.356 592.997L965.784 584.302Z" fill="#064C5B"/>
<path d="M946.785 569.141L948.01 563.502L966.589 580.509L965.73 584.211C959.405 579.062 946.785 569.141 946.785 569.141Z" fill="#034453"/>
<path d="M929.043 552.374L934.982 536.363L947.946 563.465L946.74 569.104L929.043 552.374Z" fill="#064C5B"/>
<path d="M910.64 518.994L921.863 507.47L911.933 509.091C908.959 512.393 902.98 518.997 902.859 518.997C902.738 518.997 907.981 518.994 910.64 518.994Z" fill="#1A718C"/>
<path d="M916.334 520.649L929.695 511.016L921.936 507.489L910.768 518.995L916.334 520.649Z" fill="#27809C"/>
<path d="M902.79 518.958L911.764 509.143L904.788 511.965L898.058 520.585L902.79 518.958Z" fill="#156689"/>
<path d="M897.945 520.585L891.992 524.45L897.809 514.827L904.69 511.957L897.945 520.585Z" fill="#0D5873"/>
<path d="M891.859 524.481L888.038 504.337L884.698 507.309C886.398 515.827 889.859 533.216 889.859 533.216C889.859 533.216 891.203 527.492 891.859 524.481Z" fill="#034453"/>
<path d="M891.931 524.397L897.693 514.771L894.583 502.252L888.112 504.336L891.931 524.397Z" fill="#136479"/>
<path d="M897.799 514.699L900.925 513.429L897.285 502.444L894.674 502.248L897.799 514.699Z" fill="#092D5E"/>
<path d="M883.632 467.43L878.331 461.893L881.657 463.022C883.357 464.742 886.777 468.323 886.777 468.323L883.632 467.43Z" fill="#4772B5"/>
<path d="M883.908 484.202L880.935 487.39L884.658 507.214L888.002 504.281L883.908 484.202Z" fill="#075368"/>
<path d="M883.954 484.065L889.182 482.009L894.519 502.169L888.076 504.253L883.954 484.065Z" fill="#166B84"/>
<path d="M889.241 481.978L892.323 482.391L897.3 502.31L894.601 502.13L889.241 481.978Z" fill="#0D3773"/>
<path d="M886.802 468.366L883.667 467.47L889.214 481.935L892.3 482.353L886.802 468.366Z" fill="#275A98"/>
<path d="M879.203 469.825L883.628 467.489L889.127 481.926L883.963 483.992L879.203 469.825Z" fill="#1F7A91"/>
<path d="M883.887 484.087C882.371 479.401 879.198 469.985 879.198 469.985L878.609 476.668L880.935 487.315L883.887 484.087Z" fill="#054760"/>
<path d="M875.187 464.161L878.226 461.845L883.609 467.45L879.171 469.771L875.187 464.161Z" fill="#247E97"/>
<path d="M872.87 468.759L871.013 469.003L871.013 473.028L872.87 474.181L872.87 468.759Z" fill="#07515B"/>
<path d="M874.617 473.51L874.617 468.035L872.923 468.75L872.89 474.192L874.617 473.51Z" fill="#054550"/>
<path d="M874.656 468.045L879.15 469.916L878.551 476.644L874.656 473.499L874.656 468.045Z" fill="#075365"/>
<path d="M870.988 473.012L870.988 468.993L868.644 467.469L869.208 472.168L870.988 473.012Z" fill="#034453"/>
<path d="M868.609 467.466L867.91 465.821L867.218 466.454L866.463 466.355L865.974 470.372L869.175 472.153L868.609 467.466Z" fill="#034453"/>
<path d="M872.332 466.013L871.011 465.653L871.011 467.595L872.332 467.724L872.332 466.013Z" fill="#075365"/>
<path d="M870.351 465.482L869.34 464.576L867.931 465.797L868.628 467.419L870.351 467.138L870.351 465.482Z" fill="#07515B"/>
<path d="M872.341 467.778L872.902 468.716L871.011 468.95L868.692 467.447L870.343 467.169L870.981 467.64L872.341 467.778Z" fill="#0C5C6F"/>
<path d="M868.296 465.438L866.468 466.317L867.206 466.423L868.296 465.438Z" fill="#0B3F6C"/>
<path d="M865.891 467.564L866.429 466.349L865.941 470.372L865.891 467.564Z" fill="#04303E"/>
<path d="M870.402 467.145L870.402 465.499L870.975 465.653L870.975 467.561L870.402 467.145Z" fill="#012127"/>
<path d="M873.101 465.602L872.365 466.004L872.365 467.733L872.885 468.614L873.101 465.602Z" fill="#044955"/>
<path d="M874.18 462.223L876.464 462.286L873.112 465.567L869.333 464.52L870.635 463.073L874.18 462.223Z" fill="#1F6E92"/>
<path d="M870.418 465.478L869.333 464.52L873.149 465.568L872.353 465.984L870.418 465.478Z" fill="black"/>
<path d="M879.139 469.847L874.631 467.982L875.159 464.181L879.139 469.847Z" fill="#0D6375"/>
<path d="M873.142 465.608L875.119 464.214L874.58 467.996L872.92 468.701L873.142 465.608Z" fill="#0C5A6A"/>
<path d="M876.676 462.127C875.515 463.251 873.209 465.516 873.127 465.583L875.138 464.147L878.232 461.784L876.676 462.127Z" fill="#135B7D"/>
<g opacity="0.6" filter="url(#filter16_f_39_408)">
<path d="M782.4 324.144C782.4 330.306 726.578 333.266 655.846 338.895C580.995 338.895 553.203 330.306 553.203 324.144C553.203 317.983 572.619 307.251 647.47 307.251C723.786 314.652 782.4 317.983 782.4 324.144Z" fill="#FF00B8"/>
</g>
<g filter="url(#filter17_f_39_408)">
<path d="M677.526 324.1C677.526 330.261 663.039 335.256 635.758 335.256C608.477 335.256 593.991 330.261 593.991 324.1C593.991 317.939 608.477 312.944 635.758 312.944C663.039 312.944 677.526 317.939 677.526 324.1Z" fill="#FF00B8"/>
</g>
<g filter="url(#filter18_f_39_408)">
<path d="M675.013 324.786C675.013 333.981 660.962 341.435 634.502 341.435C608.042 341.435 593.991 333.981 593.991 324.786C593.991 315.592 608.042 308.138 634.502 308.138C660.962 308.138 675.013 315.592 675.013 324.786Z" fill="url(#paint14_linear_39_408)"/>
</g>
<path d="M669.166 323.585C669.166 332.116 656.129 339.032 631.578 339.032C607.028 339.032 593.991 332.116 593.991 323.585C593.991 315.054 607.028 308.138 631.578 308.138C656.129 308.138 669.166 315.054 669.166 323.585Z" fill="url(#paint15_linear_39_408)"/>
<path d="M594.706 326.756C597.736 333.669 610.355 338.837 631.579 338.837C652.602 338.837 665.183 333.766 668.364 326.951C660.004 329.652 647.747 331.315 631.83 331.315C615.533 331.315 603.073 329.572 594.706 326.756Z" fill="url(#paint16_linear_39_408)"/>
<path d="M594.706 326.951C597.736 333.864 610.355 339.032 631.579 339.032C652.602 339.032 665.183 333.96 668.364 327.146C660.004 329.847 647.747 331.51 631.83 331.51C615.533 331.51 603.073 329.767 594.706 326.951Z" fill="#DF1BFF"/>
<path fill-rule="evenodd" clip-rule="evenodd" d="M594.706 326.951C597.736 333.863 610.355 339.032 631.579 339.032C652.602 339.032 665.182 333.96 668.363 327.146C660.004 329.847 647.747 331.51 631.83 331.51C615.533 331.51 603.073 329.767 594.706 326.951Z" fill="url(#paint17_linear_39_408)"/>
<ellipse cx="632.864" cy="327.124" rx="1.32915" ry="1.31558" fill="url(#paint18_linear_39_408)"/>
<circle cx="633.063" cy="327.258" r="1.0598" fill="url(#paint19_linear_39_408)"/>
<ellipse cx="647.575" cy="326.199" rx="1.32915" ry="1.31558" fill="url(#paint20_linear_39_408)"/>
<circle cx="647.775" cy="326.333" r="1.0598" fill="url(#paint21_linear_39_408)"/>
<ellipse cx="661.236" cy="324.493" rx="1.32915" ry="1.31558" fill="url(#paint22_linear_39_408)"/>
<circle cx="661.435" cy="324.627" r="1.0598" fill="url(#paint23_linear_39_408)"/>
<ellipse cx="617.991" cy="326.589" rx="1.32915" ry="1.31558" fill="url(#paint24_linear_39_408)"/>
<circle cx="618.19" cy="326.723" r="1.0598" fill="url(#paint25_linear_39_408)"/>
<ellipse cx="603.118" cy="324.786" rx="1.32915" ry="1.31558" fill="url(#paint26_linear_39_408)"/>
<circle cx="603.317" cy="324.92" r="1.0598" fill="url(#paint27_linear_39_408)"/>
</g>
<defs>
<filter id="filter0_f_39_408" x="-56.8665" y="20.819" width="1570.72" height="1150.06" filterUnits="userSpaceOnUse" color-interpolation-filters="sRGB">
<feFlood flood-opacity="0" result="BackgroundImageFix"/>
<feBlend mode="normal" in="SourceGraphic" in2="BackgroundImageFix" result="shape"/>
<feGaussianBlur stdDeviation="12" result="effect1_foregroundBlur_39_408"/>
</filter>
<filter id="filter1_f_39_408" x="949.418" y="278.21" width="153.632" height="159.415" filterUnits="userSpaceOnUse" color-interpolation-filters="sRGB">
<feFlood flood-opacity="0" result="BackgroundImageFix"/>
<feBlend mode="normal" in="SourceGraphic" in2="BackgroundImageFix" result="shape"/>
<feGaussianBlur stdDeviation="20" result="effect1_foregroundBlur_39_408"/>
</filter>
<filter id="filter2_f_39_408" x="920.041" y="294.237" width="157.311" height="156.287" filterUnits="userSpaceOnUse" color-interpolation-filters="sRGB">
<feFlood flood-opacity="0" result="BackgroundImageFix"/>
<feBlend mode="normal" in="SourceGraphic" in2="BackgroundImageFix" result="shape"/>
<feGaussianBlur stdDeviation="20" result="effect1_foregroundBlur_39_408"/>
</filter>
<filter id="filter3_f_39_408" x="-74.2329" y="15.6005" width="178.073" height="148.49" filterUnits="userSpaceOnUse" color-interpolation-filters="sRGB">
<feFlood flood-opacity="0" result="BackgroundImageFix"/>
<feBlend mode="normal" in="SourceGraphic" in2="BackgroundImageFix" result="shape"/>
<feGaussianBlur stdDeviation="20" result="effect1_foregroundBlur_39_408"/>
</filter>
<filter id="filter4_f_39_408" x="-51.4323" y="29.2172" width="153.118" height="172.298" filterUnits="userSpaceOnUse" color-interpolation-filters="sRGB">
<feFlood flood-opacity="0" result="BackgroundImageFix"/>
<feBlend mode="normal" in="SourceGraphic" in2="BackgroundImageFix" result="shape"/>
<feGaussianBlur stdDeviation="20" result="effect1_foregroundBlur_39_408"/>
</filter>
<filter id="filter5_f_39_408" x="-80.6059" y="51.8585" width="178.073" height="148.49" filterUnits="userSpaceOnUse" color-interpolation-filters="sRGB">
<feFlood flood-opacity="0" result="BackgroundImageFix"/>
<feBlend mode="normal" in="SourceGraphic" in2="BackgroundImageFix" result="shape"/>
<feGaussianBlur stdDeviation="20" result="effect1_foregroundBlur_39_408"/>
</filter>
<filter id="filter6_f_39_408" x="864.98" y="186.458" width="548.92" height="649.41" filterUnits="userSpaceOnUse" color-interpolation-filters="sRGB">
<feFlood flood-opacity="0" result="BackgroundImageFix"/>
<feBlend mode="normal" in="SourceGraphic" in2="BackgroundImageFix" result="shape"/>
<feGaussianBlur stdDeviation="20" result="effect1_foregroundBlur_39_408"/>
</filter>
<filter id="filter7_f_39_408" x="817.465" y="506.585" width="216.204" height="214.708" filterUnits="userSpaceOnUse" color-interpolation-filters="sRGB">
<feFlood flood-opacity="0" result="BackgroundImageFix"/>
<feBlend mode="normal" in="SourceGraphic" in2="BackgroundImageFix" result="shape"/>
<feGaussianBlur stdDeviation="20" result="effect1_foregroundBlur_39_408"/>
</filter>
<filter id="filter8_f_39_408" x="848.66" y="523.354" width="141.18" height="95.272" filterUnits="userSpaceOnUse" color-interpolation-filters="sRGB">
<feFlood flood-opacity="0" result="BackgroundImageFix"/>
<feBlend mode="normal" in="SourceGraphic" in2="BackgroundImageFix" result="shape"/>
<feGaussianBlur stdDeviation="8" result="effect1_foregroundBlur_39_408"/>
</filter>
<filter id="filter9_f_39_408" x="886.815" y="480.803" width="162.728" height="124.099" filterUnits="userSpaceOnUse" color-interpolation-filters="sRGB">
<feFlood flood-opacity="0" result="BackgroundImageFix"/>
<feBlend mode="normal" in="SourceGraphic" in2="BackgroundImageFix" result="shape"/>
<feGaussianBlur stdDeviation="10" result="effect1_foregroundBlur_39_408"/>
</filter>
<filter id="filter10_f_39_408" x="879.213" y="562.928" width="103.351" height="38.9932" filterUnits="userSpaceOnUse" color-interpolation-filters="sRGB">
<feFlood flood-opacity="0" result="BackgroundImageFix"/>
<feBlend mode="normal" in="SourceGraphic" in2="BackgroundImageFix" result="shape"/>
<feGaussianBlur stdDeviation="3.5" result="effect1_foregroundBlur_39_408"/>
</filter>
<filter id="filter11_f_39_408" x="935.152" y="577.535" width="33.9652" height="12.5505" filterUnits="userSpaceOnUse" color-interpolation-filters="sRGB">
<feFlood flood-opacity="0" result="BackgroundImageFix"/>
<feBlend mode="normal" in="SourceGraphic" in2="BackgroundImageFix" result="shape"/>
<feGaussianBlur stdDeviation="1" result="effect1_foregroundBlur_39_408"/>
</filter>
<filter id="filter12_f_39_408" x="937.464" y="579.252" width="55.7301" height="26.3274" filterUnits="userSpaceOnUse" color-interpolation-filters="sRGB">
<feFlood flood-opacity="0" result="BackgroundImageFix"/>
<feBlend mode="normal" in="SourceGraphic" in2="BackgroundImageFix" result="shape"/>
<feGaussianBlur stdDeviation="1.5" result="effect1_foregroundBlur_39_408"/>
</filter>
<filter id="filter13_f_39_408" x="907.106" y="584.202" width="33.9652" height="12.5505" filterUnits="userSpaceOnUse" color-interpolation-filters="sRGB">
<feFlood flood-opacity="0" result="BackgroundImageFix"/>
<feBlend mode="normal" in="SourceGraphic" in2="BackgroundImageFix" result="shape"/>
<feGaussianBlur stdDeviation="1" result="effect1_foregroundBlur_39_408"/>
</filter>
<filter id="filter14_f_39_408" x="888.821" y="574.504" width="24.5329" height="9.7998" filterUnits="userSpaceOnUse" color-interpolation-filters="sRGB">
<feFlood flood-opacity="0" result="BackgroundImageFix"/>
<feBlend mode="normal" in="SourceGraphic" in2="BackgroundImageFix" result="shape"/>
<feGaussianBlur stdDeviation="1" result="effect1_foregroundBlur_39_408"/>
</filter>
<filter id="filter15_f_39_408" x="903.856" y="571.228" width="24.5329" height="9.7998" filterUnits="userSpaceOnUse" color-interpolation-filters="sRGB">
<feFlood flood-opacity="0" result="BackgroundImageFix"/>
<feBlend mode="normal" in="SourceGraphic" in2="BackgroundImageFix" result="shape"/>
<feGaussianBlur stdDeviation="1" result="effect1_foregroundBlur_39_408"/>
</filter>
<filter id="filter16_f_39_408" x="522.203" y="276.251" width="291.197" height="93.6434" filterUnits="userSpaceOnUse" color-interpolation-filters="sRGB">
<feFlood flood-opacity="0" result="BackgroundImageFix"/>
<feBlend mode="normal" in="SourceGraphic" in2="BackgroundImageFix" result="shape"/>
<feGaussianBlur stdDeviation="15.5" result="effect1_foregroundBlur_39_408"/>
</filter>
<filter id="filter17_f_39_408" x="569.991" y="288.944" width="131.536" height="70.3124" filterUnits="userSpaceOnUse" color-interpolation-filters="sRGB">
<feFlood flood-opacity="0" result="BackgroundImageFix"/>
<feBlend mode="normal" in="SourceGraphic" in2="BackgroundImageFix" result="shape"/>
<feGaussianBlur stdDeviation="12" result="effect1_foregroundBlur_39_408"/>
</filter>
<filter id="filter18_f_39_408" x="580.991" y="295.138" width="107.022" height="59.2969" filterUnits="userSpaceOnUse" color-interpolation-filters="sRGB">
<feFlood flood-opacity="0" result="BackgroundImageFix"/>
<feBlend mode="normal" in="SourceGraphic" in2="BackgroundImageFix" result="shape"/>
<feGaussianBlur stdDeviation="6.5" result="effect1_foregroundBlur_39_408"/>
</filter>
<radialGradient id="paint0_radial_39_408" cx="0" cy="0" r="1" gradientUnits="userSpaceOnUse" gradientTransform="translate(1003.98 354.599) rotate(26.1818) scale(31.318 6.82107)">
<stop stop-color="#620000" stop-opacity="0.29"/>
<stop offset="1" stop-color="#330404" stop-opacity="0.64"/>
</radialGradient>
<radialGradient id="paint1_radial_39_408" cx="0" cy="0" r="1" gradientUnits="userSpaceOnUse" gradientTransform="translate(949.574 336.417) rotate(41.5166) scale(93.9882 20.4706)">
<stop stop-color="#620000"/>
<stop offset="1" stop-color="#330404" stop-opacity="0.8"/>
</radialGradient>
<radialGradient id="paint2_radial_39_408" cx="0" cy="0" r="1" gradientUnits="userSpaceOnUse" gradientTransform="translate(-60.7796 100.228) rotate(5.84836) scale(116.801 25.4393)">
<stop/>
<stop offset="1" stop-opacity="0.6"/>
</radialGradient>
<radialGradient id="paint3_radial_39_408" cx="0" cy="0" r="1" gradientUnits="userSpaceOnUse" gradientTransform="translate(6.55848 118.054) rotate(-9.48646) scale(38.9197 8.4767)">
<stop stop-color="#620000" stop-opacity="0.29"/>
<stop offset="1" stop-color="#330404" stop-opacity="0.64"/>
</radialGradient>
<radialGradient id="paint4_radial_39_408" cx="0" cy="0" r="1" gradientUnits="userSpaceOnUse" gradientTransform="translate(-67.1526 136.487) rotate(5.84836) scale(116.801 25.4393)">
<stop stop-color="#620000"/>
<stop offset="1" stop-color="#330404" stop-opacity="0.8"/>
</radialGradient>
<radialGradient id="paint5_radial_39_408" cx="0" cy="0" r="1" gradientUnits="userSpaceOnUse" gradientTransform="translate(937.925 693.306) rotate(-42.4317) scale(507.037 451.817)">
<stop/>
<stop offset="0.255208" stop-opacity="0.74"/>
<stop offset="1" stop-color="#010101" stop-opacity="0"/>
</radialGradient>
<radialGradient id="paint6_radial_39_408" cx="0" cy="0" r="1" gradientUnits="userSpaceOnUse" gradientTransform="translate(947.131 552.709) rotate(114.277) scale(153.338 130.53)">
<stop stop-color="#620000"/>
<stop offset="1" stop-color="#010101" stop-opacity="0"/>
</radialGradient>
<radialGradient id="paint7_radial_39_408" cx="0" cy="0" r="1" gradientUnits="userSpaceOnUse" gradientTransform="translate(912.321 585.118) rotate(8.3717) scale(71.8781 25.5557)">
<stop stop-color="#134162"/>
<stop offset="1" stop-color="#081648" stop-opacity="0"/>
</radialGradient>
<radialGradient id="paint8_radial_39_408" cx="0" cy="0" r="1" gradientUnits="userSpaceOnUse" gradientTransform="translate(922.043 530.767) rotate(26.9742) scale(153.783 196.573)">
<stop stop-color="#181616"/>
<stop offset="1" stop-color="#181616" stop-opacity="0"/>
</radialGradient>
<linearGradient id="paint9_linear_39_408" x1="945.297" y1="583.472" x2="960.767" y2="590.322" gradientUnits="userSpaceOnUse">
<stop/>
<stop offset="1" stop-opacity="0"/>
</linearGradient>
<linearGradient id="paint10_linear_39_408" x1="928.579" y1="582.842" x2="992.116" y2="601.626" gradientUnits="userSpaceOnUse">
<stop stop-opacity="0.74"/>
<stop offset="1" stop-opacity="0"/>
</linearGradient>
<linearGradient id="paint11_linear_39_408" x1="917.252" y1="590.139" x2="932.721" y2="596.989" gradientUnits="userSpaceOnUse">
<stop/>
<stop offset="1" stop-opacity="0"/>
</linearGradient>
<linearGradient id="paint12_linear_39_408" x1="896.404" y1="579.187" x2="906.964" y2="583.91" gradientUnits="userSpaceOnUse">
<stop/>
<stop offset="1" stop-opacity="0"/>
</linearGradient>
<linearGradient id="paint13_linear_39_408" x1="911.439" y1="575.91" x2="921.998" y2="580.633" gradientUnits="userSpaceOnUse">
<stop/>
<stop offset="1" stop-opacity="0"/>
</linearGradient>
<linearGradient id="paint14_linear_39_408" x1="623.719" y1="306.288" x2="653.686" y2="350.684" gradientUnits="userSpaceOnUse">
<stop stop-color="#D9D9D9"/>
<stop offset="1" stop-color="#D9D9D9" stop-opacity="0"/>
</linearGradient>
<linearGradient id="paint15_linear_39_408" x1="621.574" y1="306.422" x2="649.378" y2="347.614" gradientUnits="userSpaceOnUse">
<stop stop-color="#D9D9D9"/>
<stop offset="1" stop-color="#D9D9D9" stop-opacity="0"/>
</linearGradient>
<linearGradient id="paint16_linear_39_408" x1="671.857" y1="337.521" x2="590.857" y2="322.521" gradientUnits="userSpaceOnUse">
<stop/>
<stop offset="0.307292" stop-color="#CBCBCB"/>
<stop offset="0.703125" stop-color="white"/>
<stop offset="1" stop-color="#141414"/>
</linearGradient>
<linearGradient id="paint17_linear_39_408" x1="621.574" y1="306.422" x2="649.377" y2="347.614" gradientUnits="userSpaceOnUse">
<stop stop-color="#D9D9D9"/>
<stop offset="1" stop-color="#D9D9D9" stop-opacity="0"/>
</linearGradient>
<linearGradient id="paint18_linear_39_408" x1="632.864" y1="325.808" x2="630.986" y2="327.255" gradientUnits="userSpaceOnUse">
<stop stop-color="#530F5E"/>
<stop offset="1" stop-opacity="0"/>
</linearGradient>
<linearGradient id="paint19_linear_39_408" x1="633.063" y1="326.198" x2="633.063" y2="328.318" gradientUnits="userSpaceOnUse">
<stop stop-color="#D5C4D2"/>
<stop offset="1" stop-color="#9D909C"/>
</linearGradient>
<linearGradient id="paint20_linear_39_408" x1="647.575" y1="324.883" x2="645.698" y2="326.33" gradientUnits="userSpaceOnUse">
<stop stop-color="#530F5E"/>
<stop offset="1" stop-opacity="0"/>
</linearGradient>
<linearGradient id="paint21_linear_39_408" x1="647.775" y1="325.273" x2="647.775" y2="327.393" gradientUnits="userSpaceOnUse">
<stop stop-color="#D5C4D2"/>
<stop offset="1" stop-color="#9D909C"/>
</linearGradient>
<linearGradient id="paint22_linear_39_408" x1="661.236" y1="323.177" x2="659.359" y2="324.624" gradientUnits="userSpaceOnUse">
<stop stop-color="#530F5E"/>
<stop offset="1" stop-opacity="0"/>
</linearGradient>
<linearGradient id="paint23_linear_39_408" x1="661.435" y1="323.568" x2="661.435" y2="325.687" gradientUnits="userSpaceOnUse">
<stop stop-color="#D5C4D2"/>
<stop offset="1" stop-color="#9D909C"/>
</linearGradient>
<linearGradient id="paint24_linear_39_408" x1="617.991" y1="325.273" x2="616.113" y2="326.72" gradientUnits="userSpaceOnUse">
<stop stop-color="#530F5E"/>
<stop offset="1" stop-opacity="0"/>
</linearGradient>
<linearGradient id="paint25_linear_39_408" x1="618.19" y1="325.663" x2="618.19" y2="327.783" gradientUnits="userSpaceOnUse">
<stop stop-color="#D5C4D2"/>
<stop offset="1" stop-color="#9D909C"/>
</linearGradient>
<linearGradient id="paint26_linear_39_408" x1="603.118" y1="323.471" x2="601.24" y2="324.917" gradientUnits="userSpaceOnUse">
<stop stop-color="#530F5E"/>
<stop offset="1" stop-opacity="0"/>
</linearGradient>
<linearGradient id="paint27_linear_39_408" x1="603.317" y1="323.861" x2="603.317" y2="325.98" gradientUnits="userSpaceOnUse">
<stop stop-color="#D5C4D2"/>
<stop offset="1" stop-color="#9D909C"/>
</linearGradient>
</defs>
</svg>
