<svg width="428" height="720" viewBox="0 0 428 720" fill="none" xmlns="http://www.w3.org/2000/svg">
<mask id="mask0_89_1246" style="mask-type:alpha" maskUnits="userSpaceOnUse" x="0" y="0" width="428" height="720">
<rect y="0.289307" width="428" height="719.573" fill="#D9D9D9"/>
</mask>
<g mask="url(#mask0_89_1246)">
<g opacity="0.3">
<path d="M261.51 601.668C261.51 600.633 260.671 599.794 259.636 599.794C258.601 599.794 257.762 600.633 257.762 601.668C257.762 602.704 258.601 603.543 259.636 603.543C260.671 603.543 261.51 602.704 261.51 601.668Z" fill="#B593D6"/>
<path d="M128.108 521.216C128.108 520.181 127.269 519.342 126.234 519.342C125.199 519.342 124.36 520.181 124.36 521.216C124.36 522.252 125.199 523.091 126.234 523.091C127.269 523.091 128.108 522.252 128.108 521.216Z" fill="#AF8BD8"/>
<path d="M159.706 599.794C159.706 598.759 158.867 597.92 157.832 597.92C156.797 597.92 155.958 598.759 155.958 599.794C155.958 600.829 156.797 601.668 157.832 601.668C158.867 601.668 159.706 600.829 159.706 599.794Z" fill="#B495B8"/>
<path d="M6.11575 594.665C6.11575 593.63 5.27674 592.791 4.24174 592.791C3.20675 592.791 2.36774 593.63 2.36774 594.665C2.36774 595.7 3.20675 596.539 4.24174 596.539C5.27674 596.539 6.11575 595.7 6.11575 594.665Z" fill="#CCA9C7"/>
<path d="M5.0997 487.826C5.0997 486.791 4.26069 485.952 3.22569 485.952C2.19069 485.952 1.35168 486.791 1.35168 487.826C1.35168 488.862 2.19069 489.701 3.22569 489.701C4.26069 489.701 5.0997 488.862 5.0997 487.826Z" fill="#C7AACF"/>
<path d="M112.826 424.864C112.826 423.829 111.987 422.99 110.952 422.99C109.917 422.99 109.078 423.829 109.078 424.864C109.078 425.899 109.917 426.739 110.952 426.739C111.987 426.739 112.826 425.899 112.826 424.864Z" fill="#8863D5"/>
<path d="M80.1107 384.473C80.1107 383.438 79.2717 382.598 78.2367 382.598C77.2017 382.598 76.3627 383.438 76.3627 384.473C76.3627 385.508 77.2017 386.347 78.2367 386.347C79.2717 386.347 80.1107 385.508 80.1107 384.473Z" fill="#8863D5"/>
<path d="M131.857 374.553C131.857 373.518 131.018 372.679 129.983 372.679C128.948 372.679 128.109 373.518 128.109 374.553C128.109 375.588 128.948 376.427 129.983 376.427C131.018 376.427 131.857 375.588 131.857 374.553Z" fill="#8863D5"/>
<path d="M69.4277 294.229C69.4277 293.194 68.5887 292.355 67.5537 292.355C66.5187 292.355 65.6797 293.194 65.6797 294.229C65.6797 295.264 66.5187 296.104 67.5537 296.104C68.5887 296.104 69.4277 295.264 69.4277 294.229Z" fill="#C4A5D0"/>
<path d="M76.3628 159.436C76.3628 158.401 75.5238 157.562 74.4888 157.562C73.4538 157.562 72.6147 158.401 72.6147 159.436C72.6147 160.472 73.4538 161.311 74.4888 161.311C75.5238 161.311 76.3628 160.472 76.3628 159.436Z" fill="#8863D5"/>
<path d="M180.966 402.406C180.966 401.371 180.127 400.532 179.092 400.532C178.057 400.532 177.218 401.371 177.218 402.406C177.218 403.441 178.057 404.28 179.092 404.28C180.127 404.28 180.966 403.441 180.966 402.406Z" fill="#A984DA"/>
<path d="M205.387 299.452C205.387 298.417 204.548 297.578 203.513 297.578C202.478 297.578 201.639 298.417 201.639 299.452C201.639 300.487 202.478 301.326 203.513 301.326C204.548 301.326 205.387 300.487 205.387 299.452Z" fill="#C7AACF"/>
<path d="M334.356 276.623C334.356 275.588 333.517 274.749 332.482 274.749C331.447 274.749 330.608 275.588 330.608 276.623C330.608 277.658 331.447 278.497 332.482 278.497C333.517 278.497 334.356 277.658 334.356 276.623Z" fill="#B897D4"/>
<path d="M278.014 406.095C278.014 405.06 277.175 404.221 276.14 404.221C275.105 404.221 274.266 405.06 274.266 406.095C274.266 407.13 275.105 407.97 276.14 407.97C277.175 407.97 278.014 407.13 278.014 406.095Z" fill="#8863D5"/>
<path d="M330.608 416.676C330.608 415.641 329.769 414.802 328.734 414.802C327.699 414.802 326.86 415.641 326.86 416.676C326.86 417.712 327.699 418.551 328.734 418.551C329.769 418.551 330.608 417.712 330.608 416.676Z" fill="#A983DB"/>
<path d="M150.472 261.248C150.472 260.213 149.633 259.374 148.598 259.374C147.563 259.374 146.724 260.213 146.724 261.248C146.724 262.283 147.563 263.123 148.598 263.123C149.633 263.123 150.472 262.283 150.472 261.248Z" fill="#A681DB"/>
<path d="M170.465 205.351C170.465 204.316 169.626 203.476 168.591 203.476C167.556 203.476 166.717 204.316 166.717 205.351C166.717 206.386 167.556 207.225 168.591 207.225C169.626 207.225 170.465 206.386 170.465 205.351Z" fill="#A681DB"/>
<path d="M36.445 65.9867C36.445 64.9516 35.606 64.1124 34.571 64.1124C33.536 64.1124 32.697 64.9516 32.697 65.9867C32.697 67.0219 33.536 67.8611 34.571 67.8611C35.606 67.8611 36.445 67.0219 36.445 65.9867Z" fill="#704BE1"/>
<path d="M256.186 101.398C256.186 100.363 255.347 99.524 254.312 99.524C253.277 99.524 252.438 100.363 252.438 101.398C252.438 102.434 253.277 103.273 254.312 103.273C255.347 103.273 256.186 102.434 256.186 101.398Z" fill="#7655E1"/>
<path d="M419.02 519.147C419.02 518.112 418.181 517.272 417.146 517.272C416.111 517.272 415.272 518.112 415.272 519.147C415.272 520.182 416.111 521.021 417.146 521.021C418.181 521.021 419.02 520.182 419.02 519.147Z" fill="#8863D5"/>
<path d="M237.726 631.489C237.726 629.419 236.048 627.741 233.978 627.741C231.908 627.741 230.229 629.419 230.229 631.489C230.229 633.56 231.908 635.238 233.978 635.238C236.048 635.238 237.726 633.56 237.726 631.489Z" fill="#C6A9CE"/>
<path d="M305.017 585.831C305.017 583.761 303.339 582.083 301.269 582.083C299.199 582.083 297.521 583.761 297.521 585.831C297.521 587.902 299.199 589.58 301.269 589.58C303.339 589.58 305.017 587.902 305.017 585.831Z" fill="#A780DB"/>
<path d="M353.442 526.346C353.442 524.276 351.764 522.598 349.694 522.598C347.624 522.598 345.946 524.276 345.946 526.346C345.946 528.417 347.624 530.095 349.694 530.095C351.764 530.095 353.442 528.417 353.442 526.346Z" fill="#8253EA"/>
<path d="M81.9846 554.89C81.9846 552.82 80.3066 551.141 78.2366 551.141C76.1666 551.141 74.4885 552.82 74.4885 554.89C74.4885 556.96 76.1666 558.639 78.2366 558.639C80.3066 558.639 81.9846 556.96 81.9846 554.89Z" fill="#C7A9CF"/>
<path d="M21.2343 508.412C21.2343 506.342 19.5562 504.664 17.4862 504.664C15.4163 504.664 13.7382 506.342 13.7382 508.412C13.7382 510.483 15.4163 512.161 17.4862 512.161C19.5562 512.161 21.2343 510.483 21.2343 508.412Z" fill="#C7AACF"/>
<path d="M413.167 411.767C413.167 409.696 411.489 408.018 409.419 408.018C407.349 408.018 405.671 409.696 405.671 411.767C405.671 413.837 407.349 415.515 409.419 415.515C411.489 415.515 413.167 413.837 413.167 411.767Z" fill="#773AE9"/>
<path d="M295.882 207.225C295.882 205.155 294.204 203.477 292.134 203.477C290.064 203.477 288.386 205.155 288.386 207.225C288.386 209.296 290.064 210.974 292.134 210.974C294.204 210.974 295.882 209.296 295.882 207.225Z" fill="#B18ED7"/>
<path d="M398.847 285.995C398.847 283.925 397.169 282.246 395.099 282.246C393.029 282.246 391.351 283.925 391.351 285.995C391.351 288.065 393.029 289.744 395.099 289.744C397.169 289.744 398.847 288.065 398.847 285.995Z" fill="#8863D5"/>
<path d="M17.4862 189.399C17.4862 187.329 15.8082 185.65 13.7382 185.65C11.6682 185.65 9.99011 187.329 9.99011 189.399C9.99011 191.469 11.6682 193.148 13.7382 193.148C15.8082 193.148 17.4862 191.469 17.4862 189.399Z" fill="#8863D5"/>
<path d="M346.35 122.656C346.35 119.344 343.665 116.658 340.353 116.658C337.041 116.658 334.356 119.344 334.356 122.656C334.356 125.969 337.041 128.654 340.353 128.654C343.665 128.654 346.35 125.969 346.35 122.656Z" fill="#724CE3"/>
<path d="M233.553 58.1148C233.553 54.8023 230.869 52.1169 227.556 52.1169C224.244 52.1169 221.56 54.8023 221.56 58.1148C221.56 61.4274 224.244 64.1128 227.556 64.1128C230.869 64.1128 233.553 61.4274 233.553 58.1148Z" fill="#8365CF"/>
</g>
<g filter="url(#filter0_f_89_1246)">
<path d="M13.3716 352.903C13.3716 353.938 12.5325 354.777 11.4975 354.777C10.4625 354.777 9.62354 353.938 9.62354 352.903C9.62354 351.868 10.4625 351.029 11.4975 351.029C12.5325 351.029 13.3716 351.868 13.3716 352.903Z" fill="#B593D6"/>
<path d="M13.4023 217.526C13.4023 218.561 12.5633 219.4 11.5283 219.4C10.4933 219.4 9.6543 218.561 9.6543 217.526C9.6543 216.491 10.4933 215.652 11.5283 215.652C12.5633 215.652 13.4023 216.491 13.4023 217.526Z" fill="#CCA9C7"/>
<path d="M166.717 301.327C166.717 302.362 165.878 303.201 164.843 303.201C163.808 303.201 162.969 302.362 162.969 301.327C162.969 300.292 163.808 299.453 164.843 299.453C165.878 299.453 166.717 300.292 166.717 301.327Z" fill="#8863D5"/>
<path d="M87.3972 427.718C87.3972 428.753 86.5582 429.592 85.5232 429.592C84.4882 429.592 83.6492 428.753 83.6492 427.718C83.6492 426.683 84.4882 425.844 85.5232 425.844C86.5582 425.844 87.3972 426.683 87.3972 427.718Z" fill="#8863D5"/>
<path d="M139.143 437.638C139.143 438.673 138.304 439.512 137.269 439.512C136.234 439.512 135.395 438.673 135.395 437.638C135.395 436.603 136.234 435.764 137.269 435.764C138.304 435.764 139.143 436.603 139.143 437.638Z" fill="#8863D5"/>
<path d="M67.5538 607.925C67.5538 608.96 66.7148 609.799 65.6798 609.799C64.6448 609.799 63.8058 608.96 63.8058 607.925C63.8058 606.89 64.6448 606.051 65.6798 606.051C66.7148 606.051 67.5538 606.89 67.5538 607.925Z" fill="#C4A5D0"/>
<path d="M184.714 552.826C184.714 553.862 183.875 554.701 182.84 554.701C181.805 554.701 180.966 553.862 180.966 552.826C180.966 551.791 181.805 550.952 182.84 550.952C183.875 550.952 184.714 551.791 184.714 552.826Z" fill="#8863D5"/>
<path d="M177.586 613.27C177.586 614.306 176.747 615.145 175.712 615.145C174.677 615.145 173.838 614.306 173.838 613.27C173.838 612.235 174.677 611.396 175.712 611.396C176.747 611.396 177.586 612.235 177.586 613.27Z" fill="#A984DA"/>
<path d="M105.264 679.185C105.264 680.221 104.425 681.06 103.39 681.06C102.355 681.06 101.516 680.221 101.516 679.185C101.516 678.15 102.355 677.311 103.39 677.311C104.425 677.311 105.264 678.15 105.264 679.185Z" fill="#C7AACF"/>
<path d="M209.135 664.099C209.135 665.134 208.296 665.973 207.261 665.973C206.226 665.973 205.387 665.134 205.387 664.099C205.387 663.064 206.226 662.225 207.261 662.225C208.296 662.225 209.135 663.064 209.135 664.099Z" fill="#B897D4"/>
<path d="M227.898 598.171C227.898 599.206 227.059 600.045 226.024 600.045C224.989 600.045 224.15 599.206 224.15 598.171C224.15 597.136 224.989 596.297 226.024 596.297C227.059 596.297 227.898 597.136 227.898 598.171Z" fill="#8863D5"/>
<path d="M289.048 660.35C289.048 661.385 288.209 662.225 287.174 662.225C286.139 662.225 285.3 661.385 285.3 660.35C285.3 659.315 286.139 658.476 287.174 658.476C288.209 658.476 289.048 659.315 289.048 660.35Z" fill="#A983DB"/>
<path d="M339.36 667.848C339.36 668.883 338.521 669.722 337.486 669.722C336.451 669.722 335.612 668.883 335.612 667.848C335.612 666.813 336.451 665.973 337.486 665.973C338.521 665.973 339.36 666.813 339.36 667.848Z" fill="#A680DB"/>
<path d="M89.2712 118.532C89.2712 119.568 88.4322 120.407 87.3972 120.407C86.3622 120.407 85.5232 119.568 85.5232 118.532C85.5232 117.497 86.3622 116.658 87.3972 116.658C88.4322 116.658 89.2712 117.497 89.2712 118.532Z" fill="#9D84CB"/>
<path d="M179.092 126.78C179.092 127.815 178.253 128.654 177.218 128.654C176.183 128.654 175.344 127.815 175.344 126.78C175.344 125.744 176.183 124.905 177.218 124.905C178.253 124.905 179.092 125.744 179.092 126.78Z" fill="#8863D5"/>
<path d="M9.99014 46.4938C9.99014 47.5289 9.15113 48.3681 8.11613 48.3681C7.08114 48.3681 6.24213 47.5289 6.24213 46.4938C6.24213 45.4586 7.08114 44.6194 8.11613 44.6194C9.15113 44.6194 9.99014 45.4586 9.99014 46.4938Z" fill="#8863D5"/>
<path d="M373.45 443.948C373.45 444.983 372.611 445.823 371.576 445.823C370.541 445.823 369.702 444.983 369.702 443.948C369.702 442.913 370.541 442.074 371.576 442.074C372.611 442.074 373.45 442.913 373.45 443.948Z" fill="#8863D5"/>
<path d="M221.56 468.54C221.56 470.61 219.882 472.289 217.812 472.289C215.742 472.289 214.064 470.61 214.064 468.54C214.064 466.47 215.742 464.791 217.812 464.791C219.882 464.791 221.56 466.47 221.56 468.54Z" fill="#A780DB"/>
<path d="M126.235 86.7543C126.235 88.8246 124.556 90.503 122.486 90.503C120.416 90.503 118.738 88.8246 118.738 86.7543C118.738 84.6839 120.416 83.0056 122.486 83.0056C124.556 83.0056 126.235 84.6839 126.235 86.7543Z" fill="#C7A9CF"/>
<path d="M426.324 370.804C426.324 372.875 424.646 374.553 422.576 374.553C420.506 374.553 418.828 372.875 418.828 370.804C418.828 368.734 420.506 367.056 422.576 367.056C424.646 367.056 426.324 368.734 426.324 370.804Z" fill="#C7AACF"/>
<path d="M56.5193 467.16C56.5193 469.23 54.8413 470.909 52.7713 470.909C50.7013 470.909 49.0232 469.23 49.0232 467.16C49.0232 465.09 50.7013 463.411 52.7713 463.411C54.8413 463.411 56.5193 465.09 56.5193 467.16Z" fill="#B492D6"/>
<path d="M9.62349 499.05C9.62349 501.121 7.94547 502.799 5.87547 502.799C3.80547 502.799 2.12738 501.121 2.12738 499.05C2.12738 496.98 3.80547 495.302 5.87547 495.302C7.94547 495.302 9.62349 496.98 9.62349 499.05Z" fill="#BF9FD2"/>
<path d="M29.1996 538.042C29.1996 540.112 27.5216 541.79 25.4516 541.79C23.3816 541.79 21.7035 540.112 21.7035 538.042C21.7035 535.971 23.3816 534.293 25.4516 534.293C27.5216 534.293 29.1996 535.971 29.1996 538.042Z" fill="#BE9DD2"/>
<path d="M121.986 558.449C121.986 560.519 120.308 562.198 118.238 562.198C116.168 562.198 114.49 560.519 114.49 558.449C114.49 556.379 116.168 554.7 118.238 554.7C120.308 554.7 121.986 556.379 121.986 558.449Z" fill="#A781DB"/>
<path d="M306.473 541.79C306.473 543.861 304.795 545.539 302.725 545.539C300.655 545.539 298.977 543.861 298.977 541.79C298.977 539.72 300.655 538.042 302.725 538.042C304.795 538.042 306.473 539.72 306.473 541.79Z" fill="#773AE9"/>
<path d="M276.293 675.437C276.293 677.507 274.615 679.185 272.545 679.185C270.475 679.185 268.797 677.507 268.797 675.437C268.797 673.366 270.475 671.688 272.545 671.688C274.615 671.688 276.293 673.366 276.293 675.437Z" fill="#B18ED7"/>
</g>
<path d="M13.3716 358.975C13.3716 360.01 12.5325 360.849 11.4975 360.849C10.4625 360.849 9.62354 360.01 9.62354 358.975C9.62354 357.94 10.4625 357.101 11.4975 357.101C12.5325 357.101 13.3716 357.94 13.3716 358.975Z" fill="#B593D6"/>
<path d="M13.4023 223.598C13.4023 224.633 12.5633 225.472 11.5283 225.472C10.4933 225.472 9.6543 224.633 9.6543 223.598C9.6543 222.563 10.4933 221.724 11.5283 221.724C12.5633 221.724 13.4023 222.563 13.4023 223.598Z" fill="#CCA9C7"/>
<path d="M166.717 307.399C166.717 308.434 165.878 309.273 164.843 309.273C163.808 309.273 162.969 308.434 162.969 307.399C162.969 306.364 163.808 305.525 164.843 305.525C165.878 305.525 166.717 306.364 166.717 307.399Z" fill="#8863D5"/>
<path d="M87.3972 433.79C87.3972 434.825 86.5582 435.664 85.5232 435.664C84.4882 435.664 83.6492 434.825 83.6492 433.79C83.6492 432.755 84.4882 431.916 85.5232 431.916C86.5582 431.916 87.3972 432.755 87.3972 433.79Z" fill="#8863D5"/>
<path d="M139.143 443.71C139.143 444.745 138.304 445.584 137.269 445.584C136.234 445.584 135.395 444.745 135.395 443.71C135.395 442.675 136.234 441.836 137.269 441.836C138.304 441.836 139.143 442.675 139.143 443.71Z" fill="#8863D5"/>
<path d="M67.5538 613.997C67.5538 615.032 66.7148 615.871 65.6798 615.871C64.6448 615.871 63.8058 615.032 63.8058 613.997C63.8058 612.962 64.6448 612.123 65.6798 612.123C66.7148 612.123 67.5538 612.962 67.5538 613.997Z" fill="#C4A5D0"/>
<path d="M184.714 558.898C184.714 559.934 183.875 560.773 182.84 560.773C181.805 560.773 180.966 559.934 180.966 558.898C180.966 557.863 181.805 557.024 182.84 557.024C183.875 557.024 184.714 557.863 184.714 558.898Z" fill="#8863D5"/>
<path d="M177.586 619.342C177.586 620.378 176.747 621.217 175.712 621.217C174.677 621.217 173.838 620.378 173.838 619.342C173.838 618.307 174.677 617.468 175.712 617.468C176.747 617.468 177.586 618.307 177.586 619.342Z" fill="#A984DA"/>
<path d="M105.264 685.258C105.264 686.293 104.425 687.132 103.39 687.132C102.355 687.132 101.516 686.293 101.516 685.258C101.516 684.222 102.355 683.383 103.39 683.383C104.425 683.383 105.264 684.222 105.264 685.258Z" fill="#C7AACF"/>
<path d="M209.135 670.171C209.135 671.206 208.296 672.045 207.261 672.045C206.226 672.045 205.387 671.206 205.387 670.171C205.387 669.136 206.226 668.297 207.261 668.297C208.296 668.297 209.135 669.136 209.135 670.171Z" fill="#B897D4"/>
<path d="M227.898 604.243C227.898 605.278 227.059 606.117 226.024 606.117C224.989 606.117 224.15 605.278 224.15 604.243C224.15 603.208 224.989 602.369 226.024 602.369C227.059 602.369 227.898 603.208 227.898 604.243Z" fill="#8863D5"/>
<path d="M289.048 666.422C289.048 667.457 288.209 668.297 287.174 668.297C286.139 668.297 285.3 667.457 285.3 666.422C285.3 665.387 286.139 664.548 287.174 664.548C288.209 664.548 289.048 665.387 289.048 666.422Z" fill="#A983DB"/>
<path d="M339.36 673.92C339.36 674.955 338.521 675.794 337.486 675.794C336.451 675.794 335.612 674.955 335.612 673.92C335.612 672.885 336.451 672.045 337.486 672.045C338.521 672.045 339.36 672.885 339.36 673.92Z" fill="#A680DB"/>
<path d="M89.2712 124.604C89.2712 125.64 88.4322 126.479 87.3972 126.479C86.3622 126.479 85.5232 125.64 85.5232 124.604C85.5232 123.569 86.3622 122.73 87.3972 122.73C88.4322 122.73 89.2712 123.569 89.2712 124.604Z" fill="#9D84CB"/>
<path d="M179.092 132.852C179.092 133.887 178.253 134.726 177.218 134.726C176.183 134.726 175.344 133.887 175.344 132.852C175.344 131.816 176.183 130.977 177.218 130.977C178.253 130.977 179.092 131.816 179.092 132.852Z" fill="#8863D5"/>
<path d="M9.99014 52.5658C9.99014 53.6009 9.15113 54.4401 8.11613 54.4401C7.08114 54.4401 6.24213 53.6009 6.24213 52.5658C6.24213 51.5306 7.08114 50.6914 8.11613 50.6914C9.15113 50.6914 9.99014 51.5306 9.99014 52.5658Z" fill="#8863D5"/>
<path d="M373.45 450.02C373.45 451.055 372.611 451.895 371.576 451.895C370.541 451.895 369.702 451.055 369.702 450.02C369.702 448.985 370.541 448.146 371.576 448.146C372.611 448.146 373.45 448.985 373.45 450.02Z" fill="#8863D5"/>
<path d="M221.56 474.612C221.56 476.682 219.882 478.361 217.812 478.361C215.742 478.361 214.064 476.682 214.064 474.612C214.064 472.542 215.742 470.863 217.812 470.863C219.882 470.863 221.56 472.542 221.56 474.612Z" fill="#A780DB"/>
<path d="M126.235 92.8263C126.235 94.8966 124.556 96.575 122.486 96.575C120.416 96.575 118.738 94.8966 118.738 92.8263C118.738 90.756 120.416 89.0776 122.486 89.0776C124.556 89.0776 126.235 90.756 126.235 92.8263Z" fill="#C7A9CF"/>
<path d="M426.324 376.876C426.324 378.947 424.646 380.625 422.576 380.625C420.506 380.625 418.828 378.947 418.828 376.876C418.828 374.806 420.506 373.128 422.576 373.128C424.646 373.128 426.324 374.806 426.324 376.876Z" fill="#C7AACF"/>
<path d="M56.5193 473.232C56.5193 475.302 54.8413 476.981 52.7713 476.981C50.7013 476.981 49.0232 475.302 49.0232 473.232C49.0232 471.162 50.7013 469.483 52.7713 469.483C54.8413 469.483 56.5193 471.162 56.5193 473.232Z" fill="#B492D6"/>
<path d="M9.62349 505.122C9.62349 507.193 7.94547 508.871 5.87547 508.871C3.80547 508.871 2.12738 507.193 2.12738 505.122C2.12738 503.052 3.80547 501.374 5.87547 501.374C7.94547 501.374 9.62349 503.052 9.62349 505.122Z" fill="#BF9FD2"/>
<path d="M29.1996 544.114C29.1996 546.184 27.5216 547.862 25.4516 547.862C23.3816 547.862 21.7035 546.184 21.7035 544.114C21.7035 542.043 23.3816 540.365 25.4516 540.365C27.5216 540.365 29.1996 542.043 29.1996 544.114Z" fill="#BE9DD2"/>
<path d="M121.986 564.521C121.986 566.591 120.308 568.27 118.238 568.27C116.168 568.27 114.49 566.591 114.49 564.521C114.49 562.451 116.168 560.772 118.238 560.772C120.308 560.772 121.986 562.451 121.986 564.521Z" fill="#A781DB"/>
<path d="M306.473 547.862C306.473 549.933 304.795 551.611 302.725 551.611C300.655 551.611 298.977 549.933 298.977 547.862C298.977 545.792 300.655 544.114 302.725 544.114C304.795 544.114 306.473 545.792 306.473 547.862Z" fill="#773AE9"/>
<path d="M276.293 681.509C276.293 683.579 274.615 685.257 272.545 685.257C270.475 685.257 268.797 683.579 268.797 681.509C268.797 679.438 270.475 677.76 272.545 677.76C274.615 677.76 276.293 679.438 276.293 681.509Z" fill="#B18ED7"/>
<g opacity="0.7">
<g style="mix-blend-mode:color" filter="url(#filter1_f_89_1246)">
<path d="M-14.2873 101.669L17.34 94.2963L38.7714 103.292L63.0712 125.475L49.4744 148.14L26.3875 162.688L-6.50332 157.621L-24.133 168.746L-35.0019 136.991L-32.3622 122.813L-24.3864 110.441L-14.2873 101.669Z" fill="url(#paint0_radial_89_1246)"/>
</g>
<path d="M-16.4686 87.9245L-1.3104 72.0403L12.0534 79.1246L-16.4686 87.9245Z" fill="#D4B295"/>
<path d="M61.6427 102.332L53.5856 114.976L61.5446 129.127L61.6427 102.332Z" fill="#A78260"/>
<path d="M61.1327 129.149L45.4592 145.644L53.3532 115.306L61.1327 129.149Z" fill="#9F7959"/>
<path d="M45.3492 146.115L49.5523 148.26L61.3495 129.462L45.3492 146.115Z" fill="#8B644D"/>
<path d="M53.3612 114.253L61.1936 101.971L47.6948 80.9833L44.7673 84.0469L53.3612 114.253Z" fill="#B69272"/>
<path d="M53.1159 114.58L30.7124 98.9482L44.5639 84.386L53.1159 114.58Z" fill="#BF9A7D"/>
<path d="M30.6333 99.281L26.1734 129.377L52.8691 114.86L30.6333 99.281Z" fill="#B99374"/>
<path d="M53.0437 115.146L45.0593 146.051L26.1912 129.762L53.0437 115.146Z" fill="#A88462"/>
<path d="M26.0005 130.131L19.4038 155.495L44.6814 146.134L26.0005 130.131Z" fill="#A07A5A"/>
<path d="M19.0583 155.278L-6.04677 138.595L25.6741 130.152L19.0583 155.278Z" fill="#AA8564"/>
<path d="M25.8734 129.437L30.3544 99.2731L0.449206 105.972L25.8734 129.437Z" fill="#C29D80"/>
<path d="M0.27357 106.265L-6.28092 138.311L25.7214 129.738L0.27357 106.265Z" fill="#BA9576"/>
<path d="M12.5902 79.6085L0.477686 105.688L30.2805 98.9698L12.5902 79.6085Z" fill="#CEAC8F"/>
<path d="M12.8047 79.2988L25.1048 69.2324L44.3575 84.0931L30.5049 98.7713L12.8047 79.2988Z" fill="#CBA98C"/>
<path d="M44.5598 83.8358L47.5693 80.783L25.5085 69.0486L44.5598 83.8358Z" fill="#C6A385"/>
<path d="M-1.00558 71.8159L12.6045 78.9742L24.7555 68.9863L-1.00558 71.8159Z" fill="#D2B094"/>
<path d="M0.0661419 105.723L-16.6717 88.2706L12.2639 79.4239L0.0661419 105.723Z" fill="#D1AF92"/>
<path d="M-0.218581 105.973L-23.3852 115.253L-16.9244 88.5956L-0.218581 105.973Z" fill="#CAA88B"/>
<path d="M-6.49895 138.036L-0.0247929 106.24L-23.2174 115.542L-6.49895 138.036Z" fill="#BD9779"/>
<path d="M-6.39887 138.835L-3.58878 157.761L-16.1479 149.51L-6.39887 138.835Z" fill="#9A7355"/>
<path d="M19.3554 156.122L-1.64152 158.277L25.4355 162.217L19.3554 156.122Z" fill="#936C4B"/>
<path d="M-6.12105 138.889L-3.25888 157.986L19.0834 155.761L-6.12105 138.889Z" fill="#9D7757"/>
<path d="M49.2496 148.474L45.0282 146.322L19.5201 155.816L25.8547 162.176L49.2496 148.474Z" fill="#9C7556"/>
<g style="mix-blend-mode:overlay">
<path d="M-16.3973 87.8392L-1.19802 71.9944L12.148 79.1134L-16.3973 87.8392Z" fill="#02257E"/>
<path d="M61.6795 102.45L53.5898 115.073L61.5128 129.244L61.6795 102.45Z" fill="#02257E"/>
<path d="M61.1008 129.266L45.3846 145.72L53.3565 115.402L61.1008 129.266Z" fill="#02257E"/>
<path d="M45.2735 146.191L49.4712 148.346L61.3169 129.579L45.2735 146.191Z" fill="#152869"/>
<path d="M53.3673 114.349L61.2314 102.088L47.7859 81.0648L44.8505 84.1208L53.3673 114.349Z" fill="#02257E"/>
<path d="M53.1211 114.676L30.7569 98.9856L44.6461 84.4594L53.1211 114.676Z" fill="#02257E"/>
<path d="M30.677 99.3182L26.1399 129.402L52.8737 114.955L30.677 99.3182Z" fill="#02257E"/>
<path d="M53.0475 115.242L44.9837 146.126L26.1568 129.787L53.0475 115.242Z" fill="#02257E"/>
<path d="M25.965 130.156L19.3032 155.503L44.6055 146.208L25.965 130.156Z" fill="#02257E"/>
<path d="M18.9582 155.285L-6.10496 138.537L25.6385 130.176L18.9582 155.285Z" fill="#02257E"/>
<path d="M25.8398 129.462L30.3981 99.3096L0.474887 105.931L25.8398 129.462Z" fill="#02257E"/>
<path d="M0.298401 106.223L-6.33836 138.252L25.6869 129.762L0.298401 106.223Z" fill="#02257E"/>
<path d="M12.6838 79.5987L0.504114 105.647L30.3251 99.0061L12.6838 79.5987Z" fill="#02257E"/>
<path d="M12.8989 79.2896L25.2252 69.2551L44.4405 84.1659L30.5498 98.8082L12.8989 79.2896Z" fill="#02257E"/>
<path d="M44.6435 83.9091L47.6609 80.8642L25.6295 69.0724L44.6435 83.9091Z" fill="#02257E"/>
<path d="M-0.89265 71.7708L12.6995 78.9645L24.8765 69.0082L-0.89265 71.7708Z" fill="#02257E"/>
<path d="M0.0924134 105.681L-16.6013 88.1848L12.3579 79.4133L0.0924134 105.681Z" fill="#02257E"/>
<path d="M-0.192989 105.93L-23.3841 115.15L-16.8548 88.5091L-0.192989 105.93Z" fill="#02257E"/>
<path d="M-6.55571 137.976L8.59888e-05 106.198L-23.217 115.439L-6.55571 137.976Z" fill="#02257E"/>
<path d="M-6.45764 138.776L-3.69593 157.709L-16.2343 149.425L-6.45764 138.776Z" fill="#02257E"/>
<path d="M19.2531 156.13L-1.74999 158.231L25.3177 162.24L19.2531 156.13Z" fill="#02257E"/>
<path d="M-6.17995 138.831L-3.36659 157.935L18.982 155.768L-6.17995 138.831Z" fill="#02257E"/>
<path d="M49.1678 148.559L44.9518 146.397L19.4186 155.824L25.7372 162.2L49.1678 148.559Z" fill="#02257E"/>
</g>
<g style="mix-blend-mode:overlay" filter="url(#filter2_f_89_1246)">
<path d="M47.5767 80.461L61.4921 101.65L61.4921 127.9L51.0556 148.457L33.9777 157.628L22.3526 151.717L-3.96973 134.23L-11.4323 82.4653L-3.96974 71.2895L22.3526 69.0757L47.5767 80.461Z" fill="url(#paint1_radial_89_1246)"/>
</g>
<g style="mix-blend-mode:color" filter="url(#filter3_f_89_1246)">
<path d="M-14.2873 101.669L17.34 94.2963L38.7714 103.292L63.0712 125.475L49.4744 148.14L26.3875 162.688L-6.50332 157.621L-24.133 168.746L-35.0019 136.991L-32.3622 122.813L-24.3864 110.441L-14.2873 101.669Z" fill="url(#paint2_radial_89_1246)"/>
</g>
</g>
<path d="M405.926 100.593L481.78 83.9169L507.008 131.101L405.926 100.593Z" fill="#D4B295"/>
<path d="M447.206 308.336L377.756 369.742L470.424 392.196L447.206 308.336Z" fill="#A07A5A"/>
<path d="M377.17 368.423L336.442 269.88L446.207 307.753L377.17 368.423Z" fill="#AA8564"/>
<path d="M448.204 306.047L520.925 226.377L419.932 186.972L448.204 306.047Z" fill="#C29D80"/>
<path d="M418.838 187.484L336.317 268.582L447.164 306.63L418.838 187.484Z" fill="#BA9576"/>
<path d="M507.628 133.582L420.577 186.194L521.307 225.341L507.628 133.582Z" fill="#CEAC8F"/>
<path d="M419.3 185.484L404.646 101.208L507.035 132.396L419.3 185.484Z" fill="#D1AF92"/>
<path d="M417.971 185.655L331.657 167.133L403.262 101.663L417.971 185.655Z" fill="#CAA88B"/>
<path d="M331.08 166.372L322.385 130.454L403.358 85.2353L403.358 99.8596L331.08 166.372Z" fill="#C29C80"/>
<path d="M404.697 99.8766L480.992 82.6035L404.697 85.2701L404.697 99.8766Z" fill="#CDAA8E"/>
<path d="M336.219 267.345L418.012 186.822L331.579 168.313L336.219 267.345Z" fill="#BD9779"/>
<path d="M330.399 167.683L280.201 222.89L321.604 131.667L330.399 167.683Z" fill="#B38E6E"/>
<path d="M280.763 223.52L335.013 267.292L330.399 169.597L280.763 223.52Z" fill="#AE8969"/>
<path d="M334.935 269.888L305.804 330.98L285.243 281.96L334.935 269.888Z" fill="#9A7355"/>
<path d="M284.961 280.98L280.342 224.36L335.013 268.734L284.961 280.98Z" fill="#9F7959"/>
<path d="M376.376 371.486L310.499 336.341L382.183 401.381L376.376 371.486Z" fill="#936C4B"/>
<path d="M335.643 270.596L306.329 332.291L376.291 369.888L335.643 270.596Z" fill="#9D7757"/>
<path d="M479.211 408.084L471.071 393.432L377.463 370.914L383.494 402.088L479.211 408.084Z" fill="#9C7556"/>
<g style="mix-blend-mode:overlay">
<path d="M405.925 100.593L481.78 83.9169L507.008 131.101L405.925 100.593Z" fill="#730984"/>
<path d="M447.206 308.336L377.756 369.742L470.424 392.196L447.206 308.336Z" fill="#730984"/>
<path d="M377.17 368.423L336.441 269.88L446.206 307.753L377.17 368.423Z" fill="#730984"/>
<path d="M448.204 306.047L520.924 226.377L419.932 186.972L448.204 306.047Z" fill="#730984"/>
<path d="M418.838 187.484L336.316 268.582L447.164 306.63L418.838 187.484Z" fill="#730984"/>
<path d="M507.627 133.582L420.577 186.194L521.307 225.341L507.627 133.582Z" fill="#730984"/>
<path d="M419.299 185.484L404.646 101.208L507.034 132.396L419.299 185.484Z" fill="#730984"/>
<path d="M417.97 185.655L331.657 167.133L403.262 101.663L417.97 185.655Z" fill="#730984"/>
<path d="M331.08 166.372L322.385 130.454L403.358 85.2353L403.358 99.8596L331.08 166.372Z" fill="#730984"/>
<path d="M404.697 99.8766L480.992 82.6035L404.697 85.2701L404.697 99.8766Z" fill="#730984"/>
<path d="M336.219 267.345L418.011 186.822L331.578 168.313L336.219 267.345Z" fill="#730984"/>
<path d="M330.399 167.683L280.201 222.89L321.603 131.667L330.399 167.683Z" fill="#730984"/>
<path d="M280.763 223.52L335.013 267.292L330.398 169.597L280.763 223.52Z" fill="#730984"/>
<path d="M334.934 269.888L305.804 330.98L285.243 281.96L334.934 269.888Z" fill="#730984"/>
<path d="M284.961 280.98L280.342 224.36L335.013 268.734L284.961 280.98Z" fill="#730984"/>
<path d="M376.376 371.486L310.499 336.341L382.182 401.381L376.376 371.486Z" fill="#730984"/>
<path d="M335.642 270.596L306.329 332.291L376.291 369.888L335.642 270.596Z" fill="#730984"/>
<path d="M479.21 408.084L471.071 393.432L377.463 370.914L383.494 402.088L479.21 408.084Z" fill="#730984"/>
</g>
<g style="mix-blend-mode:multiply" opacity="0.6" filter="url(#filter4_f_89_1246)">
<path d="M470.64 285.229L421.291 335.48L442.79 445.958L269.52 327.129L254.222 198.762L281.625 129.733L454.811 80.3846L485.226 185.823L470.64 285.229Z" fill="url(#paint3_radial_89_1246)"/>
</g>
<path d="M251.804 248.8L266.864 245.98L271.576 255.469L251.804 248.8Z" fill="#D4B295"/>
<path d="M290.312 288.929L280.601 292.814L279.373 304.104L290.312 288.929Z" fill="#A78260"/>
<path d="M279.13 303.948L263.53 306.904L280.335 292.906L279.13 303.948Z" fill="#9F7959"/>
<path d="M263.276 307.127L264.792 310.064L279.126 304.215L263.276 307.127Z" fill="#8B644D"/>
<path d="M280.767 292.311L290.204 288.54L291.062 271.102L288.155 271.644L280.767 292.311Z" fill="#B69272"/>
<path d="M280.495 292.397L274.121 274.357L287.902 271.753L280.495 292.397Z" fill="#BF9A7D"/>
<path d="M273.941 274.514L259.184 289.779L280.241 292.454L273.941 274.514Z" fill="#B99374"/>
<path d="M280.224 292.689L263.137 306.972L259.038 290.005L280.224 292.689Z" fill="#A88462"/>
<path d="M258.78 290.137L244.732 301.841L262.889 306.864L258.78 290.137Z" fill="#A07A5A"/>
<path d="M244.624 301.577L237.142 281.835L258.586 290.015L244.624 301.577Z" fill="#AA8564"/>
<path d="M258.99 289.69L273.785 274.395L254.081 265.967L258.99 289.69Z" fill="#C29D80"/>
<path d="M253.863 266.062L237.125 281.578L258.781 289.799L253.863 266.062Z" fill="#BA9576"/>
<path d="M271.684 255.963L254.213 265.818L273.867 274.193L271.684 255.963Z" fill="#CEAC8F"/>
<path d="M271.931 255.875L283.005 255.19L287.903 271.503L274.075 274.172L271.931 255.875Z" fill="#CBA98C"/>
<path d="M288.123 271.439L291.072 270.937L283.309 255.25L288.123 271.439Z" fill="#C6A385"/>
<path d="M267.128 245.977L271.95 255.609L282.907 254.907L267.128 245.977Z" fill="#D2B094"/>
<path d="M253.965 265.669L251.548 248.913L271.574 255.725L253.965 265.669Z" fill="#D1AF92"/>
<path d="M253.702 265.695L236.776 261.489L251.272 248.994L253.702 265.695Z" fill="#CAA88B"/>
<path d="M236.667 261.335L235.153 254.178L251.383 245.747L251.301 248.638L236.667 261.335Z" fill="#C29C80"/>
<path d="M251.565 248.65L266.715 245.715L251.647 245.762L251.565 248.65Z" fill="#CDAA8E"/>
<path d="M237.113 281.333L253.703 265.926L236.754 261.722L237.113 281.333Z" fill="#BD9779"/>
<path d="M236.525 261.59L226.31 272.19L234.992 254.413L236.525 261.59Z" fill="#B38E6E"/>
<path d="M226.418 272.318L236.875 281.315L236.514 261.968L226.418 272.318Z" fill="#AE8969"/>
<path d="M236.845 281.827L230.754 293.724L226.973 283.901L236.845 281.827Z" fill="#9A7355"/>
<path d="M226.923 283.706L226.33 272.481L236.867 281.6L226.923 283.706Z" fill="#9F7959"/>
<path d="M244.45 302.177L231.65 294.813L245.427 308.125L244.45 302.177Z" fill="#936C4B"/>
<path d="M236.981 281.972L230.85 293.986L244.442 301.861L236.981 281.972Z" fill="#9D7757"/>
<path d="M264.533 310.061L263.01 307.113L244.667 302.071L245.682 308.273L264.533 310.061Z" fill="#9C7556"/>
<g style="mix-blend-mode:overlay">
<path d="M251.884 248.802L266.94 246.023L271.624 255.517L251.884 248.802Z" fill="#02257E"/>
<path d="M290.261 289.003L280.547 292.859L279.292 304.139L290.261 289.003Z" fill="#02257E"/>
<path d="M279.049 303.983L263.453 306.896L280.281 292.95L279.049 303.983Z" fill="#02257E"/>
<path d="M263.198 307.117L264.706 310.056L279.045 304.248L263.198 307.117Z" fill="#02257E"/>
<path d="M280.715 292.357L290.154 288.614L291.056 271.19L288.15 271.724L280.715 292.357Z" fill="#02257E"/>
<path d="M280.442 292.442L274.119 274.399L287.897 271.833L280.442 292.442Z" fill="#02257E"/>
<path d="M273.939 274.555L259.154 289.771L280.189 292.499L273.939 274.555Z" fill="#02257E"/>
<path d="M280.171 292.733L263.06 306.962L259.008 289.997L280.171 292.733Z" fill="#02257E"/>
<path d="M258.749 290.128L244.681 301.787L262.812 306.854L258.749 290.128Z" fill="#02257E"/>
<path d="M244.574 301.523L237.148 281.776L258.556 290.006L244.574 301.523Z" fill="#02257E"/>
<path d="M258.96 289.682L273.784 274.436L254.116 265.963L258.96 289.682Z" fill="#02257E"/>
<path d="M253.897 266.057L237.132 281.519L258.751 289.79L253.897 266.057Z" fill="#02257E"/>
<path d="M271.732 256.011L254.248 265.814L273.866 274.234L271.732 256.011Z" fill="#02257E"/>
<path d="M271.979 255.924L283.047 255.268L287.899 271.582L274.074 274.213L271.979 255.924Z" fill="#02257E"/>
<path d="M288.119 271.519L291.067 271.025L283.35 255.329L288.119 271.519Z" fill="#02257E"/>
<path d="M267.204 246.021L271.998 255.658L282.949 254.985L267.204 246.021Z" fill="#02257E"/>
<path d="M254 265.665L251.628 248.914L271.622 255.773L254 265.665Z" fill="#02257E"/>
<path d="M253.737 265.69L236.835 261.443L251.352 248.995L253.737 265.69Z" fill="#02257E"/>
<path d="M236.726 261.289L235.232 254.133L251.472 245.75L251.382 248.639L236.726 261.289Z" fill="#02257E"/>
<path d="M251.646 248.652L266.793 245.758L251.736 245.766L251.646 248.652Z" fill="#02257E"/>
<path d="M237.12 281.273L253.738 265.921L236.812 261.676L237.12 281.273Z" fill="#02257E"/>
<path d="M236.583 261.543L226.349 272.109L235.07 254.367L236.583 261.543Z" fill="#02257E"/>
<path d="M226.456 272.237L236.883 281.255L236.572 261.921L226.456 272.237Z" fill="#02257E"/>
<path d="M236.851 281.767L230.734 293.639L226.981 283.814L236.851 281.767Z" fill="#02257E"/>
<path d="M226.932 283.619L226.368 272.401L236.874 281.54L226.932 283.619Z" fill="#02257E"/>
<path d="M244.398 302.123L231.627 294.731L245.36 308.069L244.398 302.123Z" fill="#02257E"/>
<path d="M236.987 281.912L230.83 293.902L244.392 301.806L236.987 281.912Z" fill="#02257E"/>
<path d="M264.447 310.053L262.932 307.103L244.616 302.017L245.614 308.217L264.447 310.053Z" fill="#02257E"/>
</g>
<g style="mix-blend-mode:color" filter="url(#filter5_f_89_1246)">
<path d="M263.65 238.09L284.605 246.839L293.123 260.713L297.913 283.248L285.455 301.933L274.002 304.451L252.067 301.985L230.815 272.152L237.539 249.675L244.797 242.703L254.351 238.941L263.65 238.09Z" fill="url(#paint4_radial_89_1246)"/>
</g>
<g style="mix-blend-mode:overlay" filter="url(#filter6_f_89_1246)">
<path d="M279.686 265.697L234.359 259.849L252.972 243.146L288.144 234.527L279.686 265.697Z" fill="url(#paint5_radial_89_1246)"/>
</g>
<g opacity="0.7" filter="url(#filter7_f_89_1246)">
<path d="M292.393 233.443C283.681 212.728 268.919 214.164 262.627 217.471L255.126 218.923C257.949 226.586 271.291 242.106 272.065 242.881C273.033 243.849 294.813 255.948 306.187 256.916C315.286 257.691 316.108 249.172 315.382 244.817C311.349 249.656 301.105 254.158 292.393 233.443Z" fill="url(#paint6_radial_89_1246)"/>
</g>
<g opacity="0.4" filter="url(#filter8_f_89_1246)">
<path d="M288.994 258.977C288.994 261.082 276.572 261.901 267.447 261.901C258.321 261.901 244.977 254.764 244.977 252.659C244.977 250.554 254.673 249.589 263.798 249.589C272.924 249.589 288.994 256.872 288.994 258.977Z" fill="black"/>
</g>
<g filter="url(#filter9_f_89_1246)">
<path d="M284.829 258.309C284.979 259.019 279.597 257.771 277.037 258.309C274.476 258.848 270.226 257.23 270.076 256.52C269.927 255.81 272.579 254.913 275.14 254.374C277.7 253.835 284.68 257.6 284.829 258.309Z" fill="url(#paint7_linear_89_1246)"/>
</g>
<g filter="url(#filter10_f_89_1246)">
<path d="M296.194 260.782C296.471 260.111 288.474 259.494 286.056 258.494C283.638 257.495 272.054 255.107 271.777 255.777C270.287 259.383 291.53 264.545 293.948 265.544C296.366 266.544 295.917 261.452 296.194 260.782Z" fill="url(#paint8_linear_89_1246)"/>
</g>
<g filter="url(#filter11_f_89_1246)">
<path d="M271.013 261.594C271.162 262.303 265.781 261.055 263.221 261.594C260.66 262.132 256.41 260.514 256.26 259.804C256.111 259.095 258.763 258.197 261.324 257.658C263.884 257.12 270.864 260.884 271.013 261.594Z" fill="url(#paint9_linear_89_1246)"/>
</g>
<g filter="url(#filter12_f_89_1246)">
<path d="M257.36 255.532C257.461 256.015 253.774 255.171 252.019 255.541C250.264 255.91 247.352 254.813 247.251 254.331C247.149 253.848 248.968 253.234 250.723 252.865C252.479 252.496 257.258 255.05 257.36 255.532Z" fill="url(#paint10_linear_89_1246)"/>
</g>
<g filter="url(#filter13_f_89_1246)">
<path d="M264.766 253.918C264.868 254.401 261.181 253.557 259.426 253.926C257.67 254.296 254.759 253.199 254.657 252.716C254.556 252.234 256.374 251.62 258.13 251.251C259.885 250.881 264.665 253.435 264.766 253.918Z" fill="url(#paint11_linear_89_1246)"/>
</g>
<path d="M274.735 226.55L272.491 222.791L266.495 220.624L269.555 223.904L274.735 226.55Z" fill="#3D72AE"/>
<path d="M274.195 230.58L276.5 231.461L274.741 226.592L269.639 223.989L274.195 230.58Z" fill="#245693"/>
<path d="M271.939 257.26L275.019 257.908L275.019 255.914L271.939 255.346L271.939 257.26Z" fill="#044659"/>
<path d="M272.844 253.127L275.034 253.577L275.034 255.873L271.948 255.31L272.844 253.127Z" fill="#0C5C6F"/>
<path d="M271.719 246.306L274.681 249.133L275.034 253.547L272.846 253.095L271.719 246.306Z" fill="#044B5E"/>
<path d="M275.059 253.541L277.687 252.913L277.687 251.551L274.717 249.188L275.059 253.541Z" fill="#001C17"/>
<path d="M275.068 253.586C275.068 253.586 275.076 255.844 275.057 255.891L278.553 255.058L277.711 252.936L275.068 253.586Z" fill="#02354E"/>
<path d="M275.064 255.918L275.064 257.908L278.591 257.022L278.591 255.085L275.064 255.918Z" fill="#001100"/>
<path d="M264.516 242.826L263.439 244.33L259.383 245.284L260.4 241.151L262.876 241.049L264.516 242.826Z" fill="#011A1C"/>
<path d="M264.529 242.803L267.932 242.718L266.046 240.948L262.93 241.066L264.529 242.803Z" fill="#011D1F"/>
<path d="M256.178 251.25L257.357 251.54L256.264 248.277L256.178 251.25Z" fill="#044B5E"/>
<path d="M256.247 253.146L258.024 253.573L257.392 251.574L256.247 251.232L256.247 253.146Z" fill="#023F4F"/>
<path d="M255.29 250.703L256.247 249.131L256.161 251.198L255.29 250.703Z" fill="#003A3B"/>
<path d="M256.213 251.215L256.243 253.125L255.307 252.531L255.307 250.72L256.213 251.215Z" fill="#082E2F"/>
<path d="M264.299 228.758L259.855 225.362L258.361 232.259L262.521 234.165L268.964 233.004L264.299 228.758Z" fill="#157484"/>
<path d="M266.055 240.904L268.964 233.051L262.447 234.199L260.409 241.111L266.055 240.904Z" fill="#003538"/>
<path d="M262.447 234.128L258.374 232.313L257.3 240.275L260.373 241.126L262.447 234.128Z" fill="#0E6678"/>
<path d="M257.096 245.541L259.336 245.274L260.364 241.165L257.298 240.327L257.096 245.541Z" fill="#064C5B"/>
<path d="M257.04 224.537L259.815 225.357L258.324 232.268L255.38 232.352L257.04 224.537Z" fill="#0C6375"/>
<path d="M254.388 239.631L251.714 232.393L255.36 232.393L254.388 239.631Z" fill="#033034"/>
<path d="M251.701 232.42L250.067 232.042L254.415 239.806L251.701 232.42Z" fill="#021C1F"/>
<path d="M254.376 239.112L257.266 240.206L258.338 232.327L255.371 232.385L254.376 239.112Z" fill="#0A5A6C"/>
<path d="M254.893 245.533L257.078 245.533L257.262 240.246L254.374 239.164L254.893 245.533Z" fill="#044655"/>
<path d="M260.607 247.81L259.383 245.316L263.447 244.348L263.817 247.162L260.607 247.81Z" fill="#075165"/>
<path d="M260.625 247.846L263.826 247.189L264.272 256.215L261.494 256.99L260.625 247.846Z" fill="#042B37"/>
<path d="M261.625 259.466L265.376 258.467L264.285 256.261L261.512 257.026L261.625 259.466Z" fill="#003841"/>
<path d="M261.647 259.493L261.647 261.429L265.376 260.286L265.376 258.502L261.647 259.493Z" fill="#000217"/>
<path d="M258.85 260.672L258.959 258.944L261.607 259.479L261.607 261.406L258.85 260.672Z" fill="#04475B"/>
<path d="M261.602 259.443L261.476 257.021L259.504 256.486L258.973 258.908L261.602 259.443Z" fill="#0B5E6F"/>
<path d="M257.837 248.107L260.594 247.859L261.458 256.981L259.5 256.449L257.837 248.107Z" fill="#044B5E"/>
<path d="M259.342 245.307L257.091 245.572L257.874 248.075L260.571 247.823L259.342 245.307Z" fill="#054554"/>
<path d="M270.305 247.459L271.669 246.261L267.95 242.745L270.305 247.459Z" fill="#023E4E"/>
<path d="M271.953 252.69L272.817 253.073L271.688 246.268L270.326 247.477L271.953 252.69Z" fill="#013453"/>
<path d="M271.917 255.297L270.197 254.257L271.958 252.725L272.808 253.113C272.831 253.113 271.917 255.297 271.917 255.297Z" fill="#074F60"/>
<path d="M271.911 255.343L271.911 257.245L270.103 256.012L270.185 254.286L271.911 255.343Z" fill="#002F35"/>
<path d="M257.064 245.563L254.894 245.563L256.308 248.43L257.849 248.135L257.064 245.563Z" fill="#003541"/>
<path d="M256.8 257.716L258.948 258.901L259.473 256.485L258.919 256.085L256.8 257.716Z" fill="#095768"/>
<path d="M258.928 258.935L258.815 260.677L256.837 259.605L256.837 257.753L258.928 258.935Z" fill="#003A45"/>
<path d="M256.982 224.552L253.164 224.552L251.708 232.387L255.349 232.349L256.982 224.552Z" fill="#0B5A6D"/>
<path d="M251.661 232.366L250.109 232.06L250.841 225.331L253.107 224.547L251.661 232.366Z" fill="#064C5B"/>
<path d="M250.069 231.971L247.81 227.236L250.788 225.335L250.069 231.971Z" fill="#07515B"/>
<path d="M250.06 232.091L246.815 231.542L247.781 227.27L250.06 232.091Z" fill="#054856"/>
<path d="M250.052 238.562L246.692 237.292L246.815 231.588L250.052 232.123L250.052 238.562Z" fill="#044B5E"/>
<path d="M248.394 246.126L250.898 246.571L250.067 238.619L246.69 237.312C247.307 240.213 248.394 246.126 248.394 246.126Z" fill="#023C48"/>
<path d="M249.392 250.567L251.154 251.394L250.904 246.604L248.477 246.111L249.392 250.567Z" fill="#003841"/>
<path d="M249.378 250.63L249.281 252.929L251.403 253.452L251.186 251.482L249.378 250.63Z" fill="#044B5E"/>
<path d="M251.411 253.524L251.411 255.397L249.305 254.835L249.305 253.002L251.411 253.524Z" fill="#02414E"/>
<path d="M249.233 252.889L249.305 250.622L248.139 252.383L249.233 252.889Z" fill="#04465B"/>
<path d="M248.11 254.307L249.239 254.828L249.239 252.946L248.11 252.425L248.11 254.307Z" fill="#002E41"/>
<path d="M250.093 238.641L250.093 232.068C251.189 234.086 253.423 238.178 253.423 238.178L250.093 238.641Z" fill="#02434F"/>
<path d="M253.526 245.903C253.526 245.903 250.999 246.56 250.91 246.575L250.117 238.681L253.435 238.212L253.526 245.903Z" fill="#00322F"/>
<path d="M253.541 250.828L251.194 251.378L250.931 246.607L253.541 245.94L253.541 250.828Z" fill="#00151C"/>
<path d="M253.759 252.913L251.46 253.484L251.243 251.434L253.55 250.871L253.759 252.913Z" fill="#002231"/>
<path d="M251.486 253.549L251.486 255.406L253.782 254.957L253.782 252.958L251.486 253.549Z" fill="#01001C"/>
<path d="M258.929 256.031L259.474 256.444L257.86 248.131L256.3 248.422L258.929 256.031Z" fill="#05322F"/>
<path d="M269.522 223.924L266.42 220.603L259.896 225.322L264.331 228.722L269.522 223.924Z" fill="#2B92AA"/>
<path d="M264.36 228.747L268.973 232.955L274.172 230.611L269.558 223.935C267.879 225.508 264.36 228.747 264.36 228.747Z" fill="#1F7A95"/>
<path d="M269.013 232.98L274.208 230.638L278.909 244.399L275.432 246.414L269.013 232.98Z" fill="#12687C"/>
<path d="M274.244 230.648L276.5 231.507L280.809 244.956L278.945 244.384L274.244 230.648Z" fill="#011F49"/>
<path d="M278.94 244.424L280.827 244.996L286.897 253.078L286.36 253.456L278.94 244.424Z" fill="#205191"/>
<path d="M284.581 254.775L286.342 253.469L278.909 244.442L275.469 246.419L284.581 254.775Z" fill="#1C758E"/>
<path d="M286.373 253.469L297.494 261.154L292.693 259.618L284.604 254.805L286.373 253.469Z" fill="#217995"/>
<path d="M286.391 253.456L286.906 253.097L291.775 257.189L286.391 253.456Z" fill="#275792"/>
<path d="M292.388 260.965L292.699 259.673L297.531 261.205L292.388 260.965Z" fill="#073E4A"/>
<path d="M284.176 256.67L284.595 254.838L292.663 259.655L292.34 260.953L284.176 256.67Z" fill="#064C5B"/>
<path d="M274.816 249.201L275.419 246.423L284.572 254.802L284.149 256.625C281.033 254.088 274.816 249.201 274.816 249.201Z" fill="#034453"/>
<path d="M266.076 240.941L269.001 233.054L275.388 246.405L274.794 249.183L266.076 240.941Z" fill="#064C5B"/>
<path d="M257.01 224.497L262.539 218.82L257.647 219.619C256.182 221.245 253.237 224.499 253.177 224.499C253.117 224.499 255.7 224.497 257.01 224.497Z" fill="#1A718C"/>
<path d="M259.815 225.312L266.397 220.567L262.575 218.829L257.073 224.497L259.815 225.312Z" fill="#27809C"/>
<path d="M253.143 224.479L257.564 219.644L254.127 221.035L250.812 225.281L253.143 224.479Z" fill="#156689"/>
<path d="M250.756 225.281L247.823 227.185L250.689 222.444L254.079 221.031L250.756 225.281Z" fill="#0D5873"/>
<path d="M247.758 227.2L245.876 217.277L244.23 218.741C245.068 222.937 246.773 231.504 246.773 231.504C246.773 231.504 247.435 228.683 247.758 227.2Z" fill="#034453"/>
<path d="M247.793 227.159L250.632 222.417L249.1 216.249L245.912 217.276L247.793 227.159Z" fill="#136479"/>
<path d="M250.684 222.381L252.224 221.756L250.431 216.344L249.144 216.247L250.684 222.381Z" fill="#092D5E"/>
<path d="M243.705 199.095L241.094 196.367L242.732 196.923C243.57 197.771 245.254 199.535 245.254 199.535L243.705 199.095Z" fill="#4772B5"/>
<path d="M243.841 207.358L242.376 208.928L244.21 218.694L245.858 217.249L243.841 207.358Z" fill="#075368"/>
<path d="M243.864 207.29L246.439 206.277L249.068 216.209L245.894 217.235L243.864 207.29Z" fill="#166B84"/>
<path d="M246.468 206.262L247.986 206.465L250.438 216.278L249.109 216.189L246.468 206.262Z" fill="#0D3773"/>
<path d="M245.266 199.556L243.722 199.115L246.455 206.241L247.975 206.446L245.266 199.556Z" fill="#275A98"/>
<path d="M241.523 200.275L243.703 199.124L246.412 206.236L243.868 207.254L241.523 200.275Z" fill="#1F7A91"/>
<path d="M243.831 207.301C243.084 204.993 241.521 200.354 241.521 200.354L241.231 203.646L242.376 208.891L243.831 207.301Z" fill="#054760"/>
<path d="M239.545 197.485L241.042 196.344L243.693 199.105L241.507 200.248L239.545 197.485Z" fill="#247E97"/>
<path d="M238.403 199.75L237.488 199.87L237.488 201.853L238.403 202.421L238.403 199.75Z" fill="#07515B"/>
<path d="M239.264 202.09L239.264 199.393L238.429 199.745L238.413 202.426L239.264 202.09Z" fill="#054550"/>
<path d="M239.283 199.398L241.497 200.32L241.202 203.634L239.283 202.085L239.283 199.398Z" fill="#075365"/>
<path d="M237.476 201.845L237.476 199.865L236.321 199.115L236.599 201.429L237.476 201.845Z" fill="#034453"/>
<path d="M236.304 199.113L235.96 198.303L235.619 198.614L235.247 198.565L235.006 200.545L236.583 201.422L236.304 199.113Z" fill="#034453"/>
<path d="M238.138 198.397L237.488 198.22L237.488 199.177L238.138 199.24L238.138 198.397Z" fill="#075365"/>
<path d="M237.162 198.135L236.664 197.689L235.97 198.291L236.314 199.09L237.162 198.951L237.162 198.135Z" fill="#07515B"/>
<path d="M238.142 199.267L238.419 199.728L237.487 199.844L236.345 199.104L237.158 198.966L237.473 199.198L238.142 199.267Z" fill="#0C5C6F"/>
<path d="M236.15 198.114L235.25 198.547L235.613 198.599L236.15 198.114Z" fill="#0B3F6C"/>
<path d="M234.965 199.161L235.23 198.562L234.99 200.544L234.965 199.161Z" fill="#04303E"/>
<path d="M237.188 198.955L237.188 198.144L237.47 198.22L237.47 199.159L237.188 198.955Z" fill="#012127"/>
<path d="M238.517 198.195L238.155 198.393L238.155 199.244L238.41 199.678L238.517 198.195Z" fill="#044955"/>
<path d="M239.049 196.53L240.174 196.561L238.523 198.177L236.661 197.661L237.302 196.948L239.049 196.53Z" fill="#1F6E92"/>
<path d="M237.196 198.133L236.661 197.661L238.541 198.178L238.149 198.383L237.196 198.133Z" fill="black"/>
<path d="M241.492 200.286L239.271 199.367L239.531 197.494L241.492 200.286Z" fill="#0D6375"/>
<path d="M238.537 198.197L239.511 197.511L239.246 199.374L238.428 199.721L238.537 198.197Z" fill="#0C5A6A"/>
<path d="M240.278 196.483C239.706 197.036 238.57 198.152 238.53 198.185L239.521 197.478L241.045 196.314L240.278 196.483Z" fill="#135B7D"/>
<g opacity="0.7">
<path d="M77.9581 250.392L95.3204 247.12L100.733 258.022L77.9581 250.392Z" fill="#D4B295"/>
<path d="M122.262 296.461L111.062 300.946L109.626 313.931L122.262 296.461Z" fill="#A78260"/>
<path d="M109.346 313.753L91.3599 317.182L110.755 301.053L109.346 313.753Z" fill="#9F7959"/>
<path d="M91.0672 317.438L92.8085 320.812L109.341 314.059L91.0672 317.438Z" fill="#8B644D"/>
<path d="M111.255 300.368L122.138 296.014L123.161 275.96L119.809 276.589L111.255 300.368Z" fill="#B69272"/>
<path d="M110.941 300.467L103.629 279.736L119.517 276.715L110.941 300.467Z" fill="#BF9A7D"/>
<path d="M103.422 279.916L86.385 297.498L110.648 300.534L103.422 279.916Z" fill="#B99374"/>
<path d="M110.628 300.803L90.9075 317.26L86.216 297.758L110.628 300.803Z" fill="#A88462"/>
<path d="M85.9179 297.91L69.7047 311.396L90.6215 317.137L85.9179 297.91Z" fill="#A07A5A"/>
<path d="M69.5805 311.092L60.9963 288.407L85.6947 297.771L69.5805 311.092Z" fill="#AA8564"/>
<path d="M86.1607 297.397L103.243 279.78L80.5499 270.128L86.1607 297.397Z" fill="#C29D80"/>
<path d="M80.2975 270.237L60.9768 288.111L85.9202 297.522L80.2975 270.237Z" fill="#BA9576"/>
<path d="M100.857 258.59L80.7018 269.956L103.337 279.548L100.857 258.59Z" fill="#CEAC8F"/>
<path d="M101.142 258.488L113.906 257.679L119.52 276.427L103.577 279.523L101.142 258.488Z" fill="#CBA98C"/>
<path d="M119.773 276.354L123.173 275.77L114.257 257.748L119.773 276.354Z" fill="#C6A385"/>
<path d="M95.625 247.116L101.164 258.182L113.793 257.354L95.625 247.116Z" fill="#D2B094"/>
<path d="M80.4163 269.786L77.663 250.523L100.73 258.316L80.4163 269.786Z" fill="#D1AF92"/>
<path d="M80.1128 269.815L60.614 265.012L77.3452 250.617L80.1128 269.815Z" fill="#CAA88B"/>
<path d="M60.488 264.835L58.7576 256.608L77.4797 246.882L77.3793 250.207L60.488 264.835Z" fill="#C29C80"/>
<path d="M77.6837 250.22L95.1503 246.816L77.784 246.899L77.6837 250.22Z" fill="#CDAA8E"/>
<path d="M60.9632 287.829L80.1141 270.081L60.588 265.28L60.9632 287.829Z" fill="#BD9779"/>
<path d="M60.3241 265.129L48.531 277.337L58.5716 256.879L60.3241 265.129Z" fill="#B38E6E"/>
<path d="M48.6544 277.484L60.6893 287.809L60.3109 265.564L48.6544 277.484Z" fill="#AE8969"/>
<path d="M60.6537 288.398L53.6106 302.089L49.2719 290.802L60.6537 288.398Z" fill="#9A7355"/>
<path d="M49.2145 290.578L48.5529 277.672L60.6794 288.137L49.2145 290.578Z" fill="#9F7959"/>
<path d="M69.3789 311.783L54.6412 303.341L70.494 318.62L69.3789 311.783Z" fill="#936C4B"/>
<path d="M60.8099 288.564L53.7208 302.391L69.3707 311.42L60.8099 288.564Z" fill="#9D7757"/>
<path d="M92.5103 320.81L90.7601 317.423L69.6301 311.661L70.7873 318.79L92.5103 320.81Z" fill="#9C7556"/>
<g style="mix-blend-mode:overlay">
<path d="M78.0449 250.37L95.4156 247.143L100.8 258.059L78.0449 250.37Z" fill="#02257E"/>
<path d="M122.231 296.555L111.019 301.011L109.55 313.993L122.231 296.555Z" fill="#02257E"/>
<path d="M109.27 313.814L91.2757 317.196L110.713 301.117L109.27 313.814Z" fill="#02257E"/>
<path d="M90.9822 317.452L92.7149 320.831L109.265 314.12L90.9822 317.452Z" fill="#02257E"/>
<path d="M111.214 300.434L122.108 296.108L123.182 276.056L119.829 276.676L111.214 300.434Z" fill="#02257E"/>
<path d="M110.899 300.532L103.641 279.781L119.537 276.802L110.899 300.532Z" fill="#02257E"/>
<path d="M103.433 279.961L86.3512 297.499L110.607 300.598L103.433 279.961Z" fill="#02257E"/>
<path d="M110.586 300.867L90.8231 317.274L86.1816 297.759L110.586 300.867Z" fill="#02257E"/>
<path d="M85.8831 297.91L69.6353 311.354L90.5374 317.15L85.8831 297.91Z" fill="#02257E"/>
<path d="M69.5118 311.05L60.9857 288.342L85.6602 297.77L69.5118 311.05Z" fill="#02257E"/>
<path d="M86.1271 297.397L103.255 279.825L80.5861 270.113L86.1271 297.397Z" fill="#02257E"/>
<path d="M80.3335 270.222L60.9669 288.046L85.8863 297.522L80.3335 270.222Z" fill="#02257E"/>
<path d="M100.923 258.627L80.7384 269.941L103.349 279.592L100.923 258.627Z" fill="#02257E"/>
<path d="M101.208 258.526L113.975 257.75L119.54 276.514L103.589 279.568L101.208 258.526Z" fill="#02257E"/>
<path d="M119.793 276.441L123.194 275.866L114.325 257.82L119.793 276.441Z" fill="#02257E"/>
<path d="M95.7201 247.14L101.23 258.22L113.862 257.425L95.7201 247.14Z" fill="#02257E"/>
<path d="M80.4533 269.77L77.7494 250.5L100.796 258.353L80.4533 269.77Z" fill="#02257E"/>
<path d="M80.1498 269.799L60.6633 264.945L77.4314 250.593L80.1498 269.799Z" fill="#02257E"/>
<path d="M60.5378 264.768L58.8284 256.536L77.5755 246.859L77.4666 250.184L60.5378 264.768Z" fill="#02257E"/>
<path d="M77.7709 250.197L95.2462 246.838L77.8797 246.876L77.7709 250.197Z" fill="#02257E"/>
<path d="M60.9541 287.763L80.1504 270.065L60.6366 265.213L60.9541 287.763Z" fill="#02257E"/>
<path d="M60.3731 265.061L48.5487 277.239L58.6417 256.806L60.3731 265.061Z" fill="#02257E"/>
<path d="M48.6718 277.386L60.6803 287.743L60.3588 265.496L48.6718 277.386Z" fill="#02257E"/>
<path d="M60.6431 288.332L53.5648 302.005L49.255 290.707L60.6431 288.332Z" fill="#02257E"/>
<path d="M49.1984 290.482L48.5698 277.574L60.6695 288.07L49.1984 290.482Z" fill="#02257E"/>
<path d="M69.3085 311.74L54.5923 303.259L70.406 318.581L69.3085 311.74Z" fill="#02257E"/>
<path d="M60.7988 288.498L53.6743 302.307L69.3011 311.377L60.7988 288.498Z" fill="#02257E"/>
<path d="M92.4168 320.828L90.6753 317.436L69.56 311.619L70.699 318.751L92.4168 320.828Z" fill="#02257E"/>
</g>
<g style="mix-blend-mode:overlay" filter="url(#filter14_f_89_1246)">
<path d="M135.988 265.118L138.035 291.17L128.29 307.134L107.709 323.788L82.0068 320.745L73.4049 310.31L64.4024 286.528L83.812 249.186L110.387 244.373L121.349 248.185L130.228 256.024L135.988 265.118Z" fill="url(#paint12_radial_89_1246)"/>
</g>
<g style="mix-blend-mode:color" filter="url(#filter15_f_89_1246)">
<path d="M72.9354 260.4L97.0702 270.42L106.86 286.357L112.337 312.26L97.9428 333.769L84.7382 336.687L59.4625 333.894L35.026 299.631L42.8199 273.772L51.1982 265.742L62.217 261.397L72.9354 260.4Z" fill="url(#paint13_radial_89_1246)"/>
</g>
</g>
<g opacity="0.6" filter="url(#filter16_f_89_1246)">
<path d="M250.269 181.875C250.269 186.552 207.895 188.799 154.203 193.072C97.3851 193.072 76.2891 186.552 76.2891 181.875C76.2891 177.198 91.0269 169.052 147.845 169.052C205.776 174.67 250.269 177.198 250.269 181.875Z" fill="#FF00B8"/>
</g>
<g filter="url(#filter17_f_89_1246)">
<path d="M170.66 181.841C170.66 186.518 159.664 190.31 138.955 190.31C118.247 190.31 107.25 186.518 107.25 181.841C107.25 177.164 118.247 173.373 138.955 173.373C159.664 173.373 170.66 177.164 170.66 181.841Z" fill="#FF00B8"/>
</g>
<g filter="url(#filter18_f_89_1246)">
<path d="M168.753 182.362C168.753 189.342 158.087 195 138.001 195C117.916 195 107.25 189.342 107.25 182.362C107.25 175.383 117.916 169.725 138.001 169.725C158.087 169.725 168.753 175.383 168.753 182.362Z" fill="url(#paint14_linear_89_1246)"/>
</g>
<path d="M164.314 181.45C164.314 187.926 154.418 193.176 135.782 193.176C117.146 193.176 107.25 187.926 107.25 181.45C107.25 174.975 117.146 169.725 135.782 169.725C154.418 169.725 164.314 174.975 164.314 181.45Z" fill="url(#paint15_linear_89_1246)"/>
<path d="M107.793 183.858C110.093 189.105 119.672 193.028 135.782 193.028C151.741 193.028 161.291 189.178 163.705 184.006C157.36 186.056 148.056 187.318 135.973 187.318C123.603 187.318 114.145 185.995 107.793 183.858Z" fill="url(#paint16_linear_89_1246)"/>
<path d="M107.793 184.006C110.093 189.253 119.672 193.176 135.782 193.176C151.741 193.176 161.291 189.326 163.705 184.154C157.36 186.204 148.056 187.466 135.973 187.466C123.603 187.466 114.145 186.143 107.793 184.006Z" fill="#DF1BFF"/>
<path fill-rule="evenodd" clip-rule="evenodd" d="M107.793 184.006C110.093 189.253 119.672 193.176 135.782 193.176C151.741 193.176 161.29 189.326 163.705 184.154C157.36 186.204 148.056 187.466 135.973 187.466C123.603 187.466 114.145 186.143 107.793 184.006Z" fill="url(#paint17_linear_89_1246)"/>
<ellipse cx="136.758" cy="184.137" rx="1.00894" ry="0.998633" fill="url(#paint18_linear_89_1246)"/>
<circle cx="136.909" cy="184.239" r="0.804479" fill="url(#paint19_linear_89_1246)"/>
<ellipse cx="147.925" cy="183.435" rx="1.00894" ry="0.998633" fill="url(#paint20_linear_89_1246)"/>
<circle cx="148.077" cy="183.536" r="0.804479" fill="url(#paint21_linear_89_1246)"/>
<ellipse cx="158.295" cy="182.14" rx="1.00894" ry="0.998633" fill="url(#paint22_linear_89_1246)"/>
<circle cx="158.446" cy="182.242" r="0.804479" fill="url(#paint23_linear_89_1246)"/>
<ellipse cx="125.468" cy="183.731" rx="1.00894" ry="0.998633" fill="url(#paint24_linear_89_1246)"/>
<circle cx="125.619" cy="183.833" r="0.804479" fill="url(#paint25_linear_89_1246)"/>
<ellipse cx="114.178" cy="182.362" rx="1.00894" ry="0.998633" fill="url(#paint26_linear_89_1246)"/>
<circle cx="114.329" cy="182.464" r="0.804479" fill="url(#paint27_linear_89_1246)"/>
</g>
<defs>
<filter id="filter0_f_89_1246" x="-56.8665" y="20.6194" width="972.596" height="717.17" filterUnits="userSpaceOnUse" color-interpolation-filters="sRGB">
<feFlood flood-opacity="0" result="BackgroundImageFix"/>
<feBlend mode="normal" in="SourceGraphic" in2="BackgroundImageFix" result="shape"/>
<feGaussianBlur stdDeviation="12" result="effect1_foregroundBlur_89_1246"/>
</filter>
<filter id="filter1_f_89_1246" x="-75.0018" y="54.2963" width="178.073" height="154.449" filterUnits="userSpaceOnUse" color-interpolation-filters="sRGB">
<feFlood flood-opacity="0" result="BackgroundImageFix"/>
<feBlend mode="normal" in="SourceGraphic" in2="BackgroundImageFix" result="shape"/>
<feGaussianBlur stdDeviation="20" result="effect1_foregroundBlur_89_1246"/>
</filter>
<filter id="filter2_f_89_1246" x="-51.4323" y="29.0757" width="152.924" height="168.552" filterUnits="userSpaceOnUse" color-interpolation-filters="sRGB">
<feFlood flood-opacity="0" result="BackgroundImageFix"/>
<feBlend mode="normal" in="SourceGraphic" in2="BackgroundImageFix" result="shape"/>
<feGaussianBlur stdDeviation="20" result="effect1_foregroundBlur_89_1246"/>
</filter>
<filter id="filter3_f_89_1246" x="-75.0018" y="54.2963" width="178.073" height="154.449" filterUnits="userSpaceOnUse" color-interpolation-filters="sRGB">
<feFlood flood-opacity="0" result="BackgroundImageFix"/>
<feBlend mode="normal" in="SourceGraphic" in2="BackgroundImageFix" result="shape"/>
<feGaussianBlur stdDeviation="20" result="effect1_foregroundBlur_89_1246"/>
</filter>
<filter id="filter4_f_89_1246" x="234.516" y="60.6793" width="270.415" height="404.984" filterUnits="userSpaceOnUse" color-interpolation-filters="sRGB">
<feFlood flood-opacity="0" result="BackgroundImageFix"/>
<feBlend mode="normal" in="SourceGraphic" in2="BackgroundImageFix" result="shape"/>
<feGaussianBlur stdDeviation="9.85263" result="effect1_foregroundBlur_89_1246"/>
</filter>
<filter id="filter5_f_89_1246" x="211.109" y="218.384" width="106.509" height="105.772" filterUnits="userSpaceOnUse" color-interpolation-filters="sRGB">
<feFlood flood-opacity="0" result="BackgroundImageFix"/>
<feBlend mode="normal" in="SourceGraphic" in2="BackgroundImageFix" result="shape"/>
<feGaussianBlur stdDeviation="9.85263" result="effect1_foregroundBlur_89_1246"/>
</filter>
<filter id="filter6_f_89_1246" x="226.477" y="226.645" width="69.5497" height="46.9339" filterUnits="userSpaceOnUse" color-interpolation-filters="sRGB">
<feFlood flood-opacity="0" result="BackgroundImageFix"/>
<feBlend mode="normal" in="SourceGraphic" in2="BackgroundImageFix" result="shape"/>
<feGaussianBlur stdDeviation="3.94105" result="effect1_foregroundBlur_89_1246"/>
</filter>
<filter id="filter7_f_89_1246" x="245.273" y="205.683" width="80.1647" height="61.1353" filterUnits="userSpaceOnUse" color-interpolation-filters="sRGB">
<feFlood flood-opacity="0" result="BackgroundImageFix"/>
<feBlend mode="normal" in="SourceGraphic" in2="BackgroundImageFix" result="shape"/>
<feGaussianBlur stdDeviation="4.92631" result="effect1_foregroundBlur_89_1246"/>
</filter>
<filter id="filter8_f_89_1246" x="241.528" y="246.141" width="50.9141" height="19.2093" filterUnits="userSpaceOnUse" color-interpolation-filters="sRGB">
<feFlood flood-opacity="0" result="BackgroundImageFix"/>
<feBlend mode="normal" in="SourceGraphic" in2="BackgroundImageFix" result="shape"/>
<feGaussianBlur stdDeviation="1.72421" result="effect1_foregroundBlur_89_1246"/>
</filter>
<filter id="filter9_f_89_1246" x="269.085" y="253.336" width="16.7324" height="6.18278" filterUnits="userSpaceOnUse" color-interpolation-filters="sRGB">
<feFlood flood-opacity="0" result="BackgroundImageFix"/>
<feBlend mode="normal" in="SourceGraphic" in2="BackgroundImageFix" result="shape"/>
<feGaussianBlur stdDeviation="0.492631" result="effect1_foregroundBlur_89_1246"/>
</filter>
<filter id="filter10_f_89_1246" x="270.224" y="254.182" width="27.4544" height="12.9696" filterUnits="userSpaceOnUse" color-interpolation-filters="sRGB">
<feFlood flood-opacity="0" result="BackgroundImageFix"/>
<feBlend mode="normal" in="SourceGraphic" in2="BackgroundImageFix" result="shape"/>
<feGaussianBlur stdDeviation="0.738947" result="effect1_foregroundBlur_89_1246"/>
</filter>
<filter id="filter11_f_89_1246" x="255.269" y="256.621" width="16.7324" height="6.18278" filterUnits="userSpaceOnUse" color-interpolation-filters="sRGB">
<feFlood flood-opacity="0" result="BackgroundImageFix"/>
<feBlend mode="normal" in="SourceGraphic" in2="BackgroundImageFix" result="shape"/>
<feGaussianBlur stdDeviation="0.492631" result="effect1_foregroundBlur_89_1246"/>
</filter>
<filter id="filter12_f_89_1246" x="246.261" y="251.843" width="12.0856" height="4.82767" filterUnits="userSpaceOnUse" color-interpolation-filters="sRGB">
<feFlood flood-opacity="0" result="BackgroundImageFix"/>
<feBlend mode="normal" in="SourceGraphic" in2="BackgroundImageFix" result="shape"/>
<feGaussianBlur stdDeviation="0.492631" result="effect1_foregroundBlur_89_1246"/>
</filter>
<filter id="filter13_f_89_1246" x="253.668" y="250.229" width="12.0856" height="4.82767" filterUnits="userSpaceOnUse" color-interpolation-filters="sRGB">
<feFlood flood-opacity="0" result="BackgroundImageFix"/>
<feBlend mode="normal" in="SourceGraphic" in2="BackgroundImageFix" result="shape"/>
<feGaussianBlur stdDeviation="0.492631" result="effect1_foregroundBlur_89_1246"/>
</filter>
<filter id="filter14_f_89_1246" x="24.4025" y="204.373" width="153.632" height="159.415" filterUnits="userSpaceOnUse" color-interpolation-filters="sRGB">
<feFlood flood-opacity="0" result="BackgroundImageFix"/>
<feBlend mode="normal" in="SourceGraphic" in2="BackgroundImageFix" result="shape"/>
<feGaussianBlur stdDeviation="20" result="effect1_foregroundBlur_89_1246"/>
</filter>
<filter id="filter15_f_89_1246" x="-4.974" y="220.4" width="157.311" height="156.287" filterUnits="userSpaceOnUse" color-interpolation-filters="sRGB">
<feFlood flood-opacity="0" result="BackgroundImageFix"/>
<feBlend mode="normal" in="SourceGraphic" in2="BackgroundImageFix" result="shape"/>
<feGaussianBlur stdDeviation="20" result="effect1_foregroundBlur_89_1246"/>
</filter>
<filter id="filter16_f_89_1246" x="52.7576" y="145.52" width="221.043" height="71.0831" filterUnits="userSpaceOnUse" color-interpolation-filters="sRGB">
<feFlood flood-opacity="0" result="BackgroundImageFix"/>
<feBlend mode="normal" in="SourceGraphic" in2="BackgroundImageFix" result="shape"/>
<feGaussianBlur stdDeviation="11.7658" result="effect1_foregroundBlur_89_1246"/>
</filter>
<filter id="filter17_f_89_1246" x="89.032" y="155.155" width="99.8464" height="53.3729" filterUnits="userSpaceOnUse" color-interpolation-filters="sRGB">
<feFlood flood-opacity="0" result="BackgroundImageFix"/>
<feBlend mode="normal" in="SourceGraphic" in2="BackgroundImageFix" result="shape"/>
<feGaussianBlur stdDeviation="9.109" result="effect1_foregroundBlur_89_1246"/>
</filter>
<filter id="filter18_f_89_1246" x="97.3819" y="159.857" width="81.239" height="45.0113" filterUnits="userSpaceOnUse" color-interpolation-filters="sRGB">
<feFlood flood-opacity="0" result="BackgroundImageFix"/>
<feBlend mode="normal" in="SourceGraphic" in2="BackgroundImageFix" result="shape"/>
<feGaussianBlur stdDeviation="4.93404" result="effect1_foregroundBlur_89_1246"/>
</filter>
<radialGradient id="paint0_radial_89_1246" cx="0" cy="0" r="1" gradientUnits="userSpaceOnUse" gradientTransform="translate(-61.5485 138.924) rotate(5.84836) scale(116.801 25.4393)">
<stop/>
<stop offset="1"/>
</radialGradient>
<radialGradient id="paint1_radial_89_1246" cx="0" cy="0" r="1" gradientUnits="userSpaceOnUse" gradientTransform="translate(6.5586 117.854) rotate(-9.48645) scale(38.9197 8.4767)">
<stop stop-color="#620000" stop-opacity="0.29"/>
<stop offset="1" stop-color="#330404" stop-opacity="0.64"/>
</radialGradient>
<radialGradient id="paint2_radial_89_1246" cx="0" cy="0" r="1" gradientUnits="userSpaceOnUse" gradientTransform="translate(-61.5485 138.924) rotate(5.84836) scale(116.801 25.4393)">
<stop stop-color="#620000"/>
<stop offset="1" stop-color="#330404" stop-opacity="0.8"/>
</radialGradient>
<radialGradient id="paint3_radial_89_1246" cx="0" cy="0" r="1" gradientUnits="userSpaceOnUse" gradientTransform="translate(270.451 310.368) rotate(-42.4317) scale(249.782 222.579)">
<stop/>
<stop offset="0.5" stop-opacity="0.74"/>
<stop offset="1" stop-color="#010101" stop-opacity="0"/>
</radialGradient>
<radialGradient id="paint4_radial_89_1246" cx="0" cy="0" r="1" gradientUnits="userSpaceOnUse" gradientTransform="translate(274.987 241.106) rotate(114.277) scale(75.539 64.3031)">
<stop stop-color="#620000"/>
<stop offset="1" stop-color="#010101" stop-opacity="0"/>
</radialGradient>
<radialGradient id="paint5_radial_89_1246" cx="0" cy="0" r="1" gradientUnits="userSpaceOnUse" gradientTransform="translate(257.838 257.072) rotate(8.3717) scale(35.4094 12.5896)">
<stop stop-color="#134162"/>
<stop offset="1" stop-color="#081648" stop-opacity="0"/>
</radialGradient>
<radialGradient id="paint6_radial_89_1246" cx="0" cy="0" r="1" gradientUnits="userSpaceOnUse" gradientTransform="translate(262.627 230.297) rotate(26.9742) scale(75.7584 96.8383)">
<stop stop-color="#181616"/>
<stop offset="1" stop-color="#181616" stop-opacity="0"/>
</radialGradient>
<linearGradient id="paint7_linear_89_1246" x1="274.083" y1="256.261" x2="281.704" y2="259.636" gradientUnits="userSpaceOnUse">
<stop/>
<stop offset="1" stop-opacity="0"/>
</linearGradient>
<linearGradient id="paint8_linear_89_1246" x1="265.847" y1="255.95" x2="297.147" y2="265.204" gradientUnits="userSpaceOnUse">
<stop stop-opacity="0.74"/>
<stop offset="1" stop-opacity="0"/>
</linearGradient>
<linearGradient id="paint9_linear_89_1246" x1="260.267" y1="259.546" x2="267.888" y2="262.92" gradientUnits="userSpaceOnUse">
<stop/>
<stop offset="1" stop-opacity="0"/>
</linearGradient>
<linearGradient id="paint10_linear_89_1246" x1="249.997" y1="254.15" x2="255.199" y2="256.477" gradientUnits="userSpaceOnUse">
<stop/>
<stop offset="1" stop-opacity="0"/>
</linearGradient>
<linearGradient id="paint11_linear_89_1246" x1="257.403" y1="252.536" x2="262.605" y2="254.863" gradientUnits="userSpaceOnUse">
<stop/>
<stop offset="1" stop-opacity="0"/>
</linearGradient>
<radialGradient id="paint12_radial_89_1246" cx="0" cy="0" r="1" gradientUnits="userSpaceOnUse" gradientTransform="translate(78.9684 280.762) rotate(26.1818) scale(31.318 6.82107)">
<stop stop-color="#620000" stop-opacity="0.29"/>
<stop offset="1" stop-color="#330404" stop-opacity="0.64"/>
</radialGradient>
<radialGradient id="paint13_radial_89_1246" cx="0" cy="0" r="1" gradientUnits="userSpaceOnUse" gradientTransform="translate(24.5586 262.58) rotate(41.5166) scale(93.9882 20.4706)">
<stop stop-color="#620000"/>
<stop offset="1" stop-color="#330404" stop-opacity="0.8"/>
</radialGradient>
<linearGradient id="paint14_linear_89_1246" x1="129.816" y1="168.321" x2="152.564" y2="202.021" gradientUnits="userSpaceOnUse">
<stop stop-color="#D9D9D9"/>
<stop offset="1" stop-color="#D9D9D9" stop-opacity="0"/>
</linearGradient>
<linearGradient id="paint15_linear_89_1246" x1="128.188" y1="168.422" x2="149.294" y2="199.69" gradientUnits="userSpaceOnUse">
<stop stop-color="#D9D9D9"/>
<stop offset="1" stop-color="#D9D9D9" stop-opacity="0"/>
</linearGradient>
<linearGradient id="paint16_linear_89_1246" x1="166.357" y1="192.029" x2="104.871" y2="180.642" gradientUnits="userSpaceOnUse">
<stop/>
<stop offset="0.307292" stop-color="#CBCBCB"/>
<stop offset="0.703125" stop-color="white"/>
<stop offset="1" stop-color="#141414"/>
</linearGradient>
<linearGradient id="paint17_linear_89_1246" x1="128.188" y1="168.423" x2="149.293" y2="199.69" gradientUnits="userSpaceOnUse">
<stop stop-color="#D9D9D9"/>
<stop offset="1" stop-color="#D9D9D9" stop-opacity="0"/>
</linearGradient>
<linearGradient id="paint18_linear_89_1246" x1="136.758" y1="183.138" x2="135.333" y2="184.236" gradientUnits="userSpaceOnUse">
<stop stop-color="#530F5E"/>
<stop offset="1" stop-opacity="0"/>
</linearGradient>
<linearGradient id="paint19_linear_89_1246" x1="136.909" y1="183.434" x2="136.909" y2="185.043" gradientUnits="userSpaceOnUse">
<stop stop-color="#D5C4D2"/>
<stop offset="1" stop-color="#9D909C"/>
</linearGradient>
<linearGradient id="paint20_linear_89_1246" x1="147.925" y1="182.436" x2="146.5" y2="183.534" gradientUnits="userSpaceOnUse">
<stop stop-color="#530F5E"/>
<stop offset="1" stop-opacity="0"/>
</linearGradient>
<linearGradient id="paint21_linear_89_1246" x1="148.077" y1="182.732" x2="148.077" y2="184.341" gradientUnits="userSpaceOnUse">
<stop stop-color="#D5C4D2"/>
<stop offset="1" stop-color="#9D909C"/>
</linearGradient>
<linearGradient id="paint22_linear_89_1246" x1="158.295" y1="181.141" x2="156.87" y2="182.239" gradientUnits="userSpaceOnUse">
<stop stop-color="#530F5E"/>
<stop offset="1" stop-opacity="0"/>
</linearGradient>
<linearGradient id="paint23_linear_89_1246" x1="158.446" y1="181.437" x2="158.446" y2="183.046" gradientUnits="userSpaceOnUse">
<stop stop-color="#D5C4D2"/>
<stop offset="1" stop-color="#9D909C"/>
</linearGradient>
<linearGradient id="paint24_linear_89_1246" x1="125.468" y1="182.732" x2="124.043" y2="183.83" gradientUnits="userSpaceOnUse">
<stop stop-color="#530F5E"/>
<stop offset="1" stop-opacity="0"/>
</linearGradient>
<linearGradient id="paint25_linear_89_1246" x1="125.619" y1="183.028" x2="125.619" y2="184.637" gradientUnits="userSpaceOnUse">
<stop stop-color="#D5C4D2"/>
<stop offset="1" stop-color="#9D909C"/>
</linearGradient>
<linearGradient id="paint26_linear_89_1246" x1="114.178" y1="181.364" x2="112.753" y2="182.462" gradientUnits="userSpaceOnUse">
<stop stop-color="#530F5E"/>
<stop offset="1" stop-opacity="0"/>
</linearGradient>
<linearGradient id="paint27_linear_89_1246" x1="114.329" y1="181.66" x2="114.329" y2="183.269" gradientUnits="userSpaceOnUse">
<stop stop-color="#D5C4D2"/>
<stop offset="1" stop-color="#9D909C"/>
</linearGradient>
</defs>
</svg>
