<svg width="20" height="21" viewBox="0 0 20 21" fill="none" xmlns="http://www.w3.org/2000/svg">
<path d="M2.89445 0.870728C1.46998 0.870728 0.538635 1.93061 0.538635 3.32368C0.538635 4.68598 1.44224 5.77609 2.83979 5.77609H2.86683C4.31916 5.77609 5.223 4.68598 5.223 3.32368C5.19585 1.93061 4.31916 0.870728 2.89445 0.870728Z" fill="white"/>
<path d="M1.12432 7.00225H5.22314V20.4917H1.12432V7.00225Z" fill="white"/>
<path d="M15.0033 7.00225C12.7266 7.00225 11.2 9.22301 11.2 9.22301V7.31159H6.97971V20.4917H11.1998V13.1314C11.1998 12.7374 11.2273 12.344 11.3388 12.0622C11.6439 11.2754 12.3382 10.4602 13.504 10.4602C15.0311 10.4602 15.6419 11.6689 15.6419 13.4408V20.4917H19.8617V12.9345C19.8617 8.88611 17.7796 7.00225 15.0033 7.00225Z" fill="white"/>
</svg>
