<svg width="233" height="92" viewBox="0 0 233 92" fill="none" xmlns="http://www.w3.org/2000/svg">
<g filter="url(#filter0_f_1_626)">
<path d="M103.677 60.5844C103.002 58.8436 102.381 57.1692 101.814 55.562C101.247 53.9548 100.705 52.3893 100.188 50.8654H82.9008C82.3103 52.3968 81.7319 53.9663 81.167 55.5745C80.6021 57.1827 80.0036 58.8532 79.3725 60.5844H75.7471C77.0909 56.894 78.36 53.4562 79.5555 50.269C80.6901 47.2391 81.8626 44.2237 83.0727 41.2233C84.1814 38.4769 85.3228 35.7439 86.4967 33.0248C87.642 30.375 88.8331 27.7453 90.0695 25.1369H93.1306C94.3682 27.7383 95.5529 30.3646 96.6839 33.0142C97.8036 35.6411 98.941 38.3765 100.094 41.2183C101.247 44.0606 102.416 47.0777 103.6 50.269C104.784 53.4602 106.088 56.8985 107.51 60.5844H103.677ZM91.5005 29.127C90.209 32.0963 88.9614 35.0845 87.7583 38.0908C86.4599 41.344 85.2037 44.6138 83.99 47.8996H99.0948C97.8732 44.606 96.6007 41.3315 95.2779 38.0773C94.055 35.0787 92.7957 32.095 91.5005 29.127ZM125.925 34.1399C126.229 35.845 126.628 37.6595 127.12 39.586C127.612 41.5125 128.154 43.4727 128.747 45.4665C129.336 47.4485 129.966 49.4183 130.635 51.3746C131.263 53.2169 131.937 55.043 132.658 56.8508C133.239 55.556 133.854 53.9809 134.503 52.1242C135.183 50.1755 135.832 48.2163 136.451 46.2472C137.102 44.18 137.708 42.0989 138.269 40.0053C138.833 37.9045 139.302 35.9499 139.678 34.1394H142.948C141.719 39.3335 140.379 44.0767 138.927 48.3696C137.475 52.6629 135.877 56.7344 134.134 60.5844H131.056C130.489 59.252 129.948 57.9085 129.433 56.5546C128.832 54.9772 128.249 53.3928 127.684 51.8018C127.061 50.0448 126.48 48.2729 125.942 46.4877C125.371 44.5983 124.836 42.6984 124.335 40.789C123.836 42.7023 123.301 44.6063 122.733 46.5003C122.198 48.2883 121.619 50.0632 120.999 51.8234C120.401 53.5115 119.821 55.096 119.257 56.5797C118.694 58.0634 118.159 59.3979 117.65 60.5849H114.459C112.714 56.7344 111.118 52.6599 109.672 48.363C108.225 44.0662 106.892 39.3255 105.671 34.1399H109.195C109.57 35.9469 110.04 37.8985 110.604 39.9952C111.167 42.0872 111.774 44.1669 112.425 46.2332C113.042 48.1992 113.7 50.152 114.398 52.0905C115.063 53.9337 115.686 55.5032 116.267 56.7996C116.958 54.9913 117.612 53.1687 118.227 51.3329C118.882 49.3827 119.498 47.4193 120.073 45.4439C121.162 41.7009 122.16 37.9318 123.065 34.1399H125.925ZM152.037 46.1855C153.24 47.0345 154.455 48.0141 155.681 49.1257C156.944 50.2749 158.153 51.4809 159.306 52.7397C160.485 54.022 161.608 55.3543 162.673 56.7328C163.726 58.098 164.623 59.3814 165.365 60.5844H161.376C160.548 59.1991 159.618 57.877 158.595 56.6289C157.555 55.3526 156.446 54.134 155.274 52.9782C154.166 51.8822 153.005 50.8401 151.797 49.8557C150.639 48.9158 149.612 48.2094 148.717 47.7379V60.5849H145.398V21.5053L148.717 20.8913V45.5298C149.427 44.9207 150.313 44.0898 151.372 43.0369C152.431 41.985 153.512 40.9261 154.611 39.8617C155.71 38.7973 156.749 37.766 157.726 36.7678C158.703 35.7697 159.523 34.8935 160.186 34.1389H164.241C163.358 35.0612 162.461 35.9704 161.551 36.8662L155.148 43.1875C154.085 44.2369 153.048 45.236 152.037 46.1855ZM172.053 35.1626C172.632 34.7876 173.509 34.3955 174.683 33.9863C175.858 33.5771 177.211 33.3727 178.743 33.3727C180.65 33.3727 182.343 33.7141 183.824 34.396C185.305 35.0783 186.556 36.0328 187.577 37.2604C188.598 38.488 189.373 39.9546 189.901 41.6597C190.428 43.3653 190.693 45.2401 190.693 47.2861C190.693 49.4345 190.377 51.37 189.748 53.0917C189.117 54.8139 188.223 56.2719 187.067 57.4649C185.909 58.6589 184.513 59.5797 182.879 60.2269C181.245 60.8741 179.407 61.1989 177.364 61.1989C175.151 61.1989 173.194 61.0453 171.492 60.7385C169.789 60.4317 168.393 60.1245 167.304 59.8177V21.7102L172.053 20.8918L172.053 35.1626ZM172.053 56.4416C172.53 56.5782 173.203 56.7062 174.07 56.8252C174.939 56.9452 176.019 57.004 177.313 57.004C179.867 57.004 181.909 56.16 183.441 54.4719C184.973 52.7839 185.739 50.389 185.739 47.2856C185.739 45.9224 185.603 44.6436 185.331 43.4491C185.058 42.2561 184.615 41.2239 184.003 40.3542C183.39 39.4846 182.599 38.8033 181.629 38.3082C180.659 37.8142 179.492 37.5661 178.131 37.5661C176.837 37.5661 175.645 37.7886 174.556 38.2314C173.466 38.6747 172.632 39.1352 172.054 39.6121L172.053 56.4416ZM196.666 29.1783C195.815 29.1783 195.091 28.8971 194.496 28.3342C193.9 27.7714 193.602 27.0133 193.602 26.0583C193.602 25.1038 193.9 24.3447 194.496 23.7818C195.091 23.219 195.815 22.9378 196.666 22.9378C197.516 22.9378 198.24 23.219 198.836 23.7818C199.432 24.3447 199.73 25.1038 199.73 26.0583C199.73 27.0133 199.431 27.7719 198.836 28.3342C198.24 28.8971 197.516 29.1783 196.666 29.1783ZM199.066 60.5844H194.317V33.9863H199.066V60.5844ZM208.615 33.9863H218.674V37.9758H208.615V50.2519C208.615 51.5819 208.717 52.6815 208.921 53.5511C209.125 54.4207 209.432 55.1031 209.84 55.5971C210.24 56.086 210.772 56.45 211.372 56.646C211.985 56.8503 212.699 56.9528 213.517 56.9528C214.947 56.9528 216.096 56.7916 216.964 56.4667C217.57 56.2428 218.174 56.0127 218.776 55.7764L219.695 59.7147C219.218 59.9537 218.385 60.252 217.193 60.61C216.001 60.968 214.64 61.1472 213.108 61.1472C211.304 61.1472 209.815 60.9173 208.64 60.4568C207.466 59.9964 206.521 59.306 205.806 58.3852C205.091 57.4649 204.589 56.3312 204.3 54.9841C204.01 53.6375 203.866 52.077 203.866 50.3036V26.5694L208.615 25.751L208.615 33.9863Z" fill="#F44F59"/>
<path d="M45.779 47.2901C45.779 45.8832 43.7931 44.7435 41.3431 44.7435C38.893 44.7435 36.9071 45.8837 36.9071 47.2901C36.9071 48.6015 38.6344 52.1212 40.8544 52.434C40.9496 52.4475 40.8879 53.7796 40.3366 54.0532C39.3817 54.5011 37.5231 53.7971 37.3336 53.8132C37.1447 53.8288 36.9848 53.9452 37.278 54.1521C38.9637 55.1332 40.6714 55.1397 41.3426 55.1397C42.0137 55.1397 43.7214 55.1332 45.4071 54.1521C45.7003 53.9452 45.5409 53.8288 45.352 53.8132C45.1625 53.7971 43.3034 54.5006 42.3491 54.0532C41.7977 53.7796 41.7355 52.448 41.8308 52.434C44.0513 52.1217 45.779 48.602 45.779 47.2901ZM69.1659 43.3838C68.2106 38.8008 66.8878 35.4789 64.6167 32.2746L63.0703 30.3928C62.1486 29.127 61.0799 27.185 60.7225 25.3112C60.5942 24.6379 60.517 23.6588 60.6619 22.9137C60.8032 22.1862 60.914 21.4767 61.117 20.819C61.6538 19.0807 62.6498 17.6543 64.0107 16.4312V16.3097C60.4694 15.6098 55.6745 16.1606 52.5764 16.9167C51.6776 17.1362 50.1378 17.327 49.4832 17.7969H49.4526C49.5253 17.3892 49.602 16.5889 50.1524 15.645C50.7022 14.7015 51.8506 13.856 52.8796 13.1531V13.0316L52.7282 13.0015L49.2712 13.3047C47.2522 13.6707 45.3369 13.9348 43.4783 14.3973C37.5026 15.885 32.415 18.6033 28.0717 21.7724C22.7445 25.6596 17.27 31.6756 14.7267 38.3147C14.1598 39.7954 13.831 41.4096 13.453 43.0801C12.631 46.7132 13.3192 51.4092 14.1808 54.4011C16.455 62.2965 21.8954 67.9811 28.8602 71.186C29.8822 71.6564 30.9554 72.0526 32.0736 72.4025C32.0751 72.4136 32.0716 72.4241 32.0741 72.4351C33.1358 73.4217 31.9553 75.6465 31.6872 75.6063C33.9603 75.9829 37.9918 74.2286 37.9918 74.2286C37.9918 74.2286 38.7572 76.371 36.1307 78.2719C46.1089 77.9536 58.3055 68.6298 58.3055 68.6298L57.9993 68.6951C62.6638 65.4561 66.1966 61.1085 68.2567 55.2512C68.7293 53.9091 69.0105 52.4084 69.2882 50.9106L69.5303 48.0271C69.7408 46.7413 69.385 44.4332 69.1659 43.3838ZM53.0405 38.49C49.8862 37.8378 46.9489 39.5439 46.1439 42.3525C45.3385 45.1617 47.3179 48.2777 50.0792 48.8214C51.8315 49.1664 53.8801 48.5041 58.7737 49.4676C60.715 49.8497 61.9711 50.3066 62.8523 50.7048C62.5611 52.8572 62.109 55.2607 61.4328 56.7685C59.9677 60.0366 59.6133 59.8644 58.5211 61.231C54.453 66.3192 45.5635 70.8501 35.9262 68.424C28.4812 66.5502 23.6859 62.0128 20.7621 55.5856C20.2464 54.5603 19.906 52.6283 19.7025 50.76C20.5887 50.3493 21.8699 49.8678 23.9004 49.4681C28.7945 48.5046 30.8431 49.1664 32.5954 48.8219C35.3562 48.2782 37.3361 45.1622 36.5307 42.353C35.7252 39.5439 32.7874 37.8378 29.6336 38.49C29.1724 38.5808 28.0111 38.8615 26.18 39.6985C24.1239 40.659 21.7065 42.711 19.686 44.8881C20.0293 43.0394 20.4463 41.5145 21.126 39.9837C23.4773 34.6877 27.8021 30.7804 33.3789 28.7234C33.8826 28.5371 34.4094 28.3819 34.9452 28.2368C34.6535 29.3731 35.0866 31.3197 35.3578 31.3151C36.5843 28.5531 40.115 28.0631 40.115 28.0631C40.115 28.0631 38.9151 30.2412 39.7722 32.6221C45.4658 26.6824 53.2124 30.6519 53.2485 30.6705C53.8166 31.0115 54.3714 31.3743 54.9116 31.758C55.9758 32.5186 57.0404 33.3576 57.8534 34.3683C59.1055 35.9253 60.6298 37.4808 61.4323 39.4675C61.9836 40.8317 62.5706 42.2265 62.949 43.7775L63.1591 45.0759C61.1045 42.8295 58.6083 40.6861 56.4936 39.698C54.6625 38.8615 53.5012 38.5808 53.0405 38.49ZM53.9708 44.3021C53.5267 44.1144 52.8425 44.0325 52.0836 44.1129C51.5102 44.1736 51.0025 44.3167 50.6155 44.5005C50.5701 44.4015 50.5325 44.2991 50.5032 44.1942C50.2401 43.186 50.803 42.1768 51.7603 41.9408C52.7182 41.7043 53.7072 42.3304 53.9708 43.3391C54.052 43.655 54.052 43.9863 53.9708 44.3021ZM28.7043 43.3386C28.9674 42.3299 29.9569 41.7038 30.9143 41.9403C31.8716 42.1768 32.4345 43.1855 32.1714 44.1937C32.1426 44.2988 32.1051 44.4012 32.0591 44.5C31.6726 44.3157 31.1644 44.1726 30.591 44.1124C29.8321 44.0325 29.1479 44.1144 28.7038 44.3016C28.6227 43.9858 28.6229 43.6544 28.7043 43.3386Z" fill="#F44F59"/>
</g>
<path d="M103.677 60.5844C103.002 58.8437 102.381 57.1692 101.814 55.562C101.246 53.9549 100.705 52.3893 100.188 50.8655H82.9006C82.3101 52.3969 81.7317 53.9664 81.1668 55.5746C80.6019 57.1828 80.0034 58.8532 79.3723 60.5844H75.7469C77.0907 56.8941 78.3598 53.4563 79.5553 50.269C80.6899 47.2392 81.8624 44.2238 83.0725 41.2234C84.1812 38.477 85.3226 35.744 86.4965 33.0248C87.6418 30.3751 88.8329 27.7454 90.0693 25.137H93.1304C94.368 27.7383 95.5527 30.3646 96.6837 33.0143C97.8034 35.6412 98.9408 38.3766 100.094 41.2184C101.247 44.0607 102.416 47.0778 103.6 50.269C104.784 53.4603 106.087 56.8986 107.509 60.5844H103.677V60.5844ZM91.5003 29.1271C90.2088 32.0963 88.9612 35.0846 87.7581 38.0909C86.4597 41.344 85.2035 44.6139 83.9898 47.8997H99.0946C97.873 44.606 96.6005 41.3315 95.2777 38.0773C94.0548 35.0787 92.7955 32.0951 91.5003 29.1271V29.1271ZM125.925 34.14C126.229 35.845 126.628 37.6596 127.12 39.5861C127.612 41.5126 128.154 43.4728 128.747 45.4666C129.336 47.4486 129.965 49.4184 130.635 51.3746C131.263 53.217 131.937 55.043 132.658 56.8509C133.239 55.556 133.854 53.981 134.503 52.1242C135.183 50.1756 135.832 48.2163 136.451 46.2473C137.102 44.1801 137.708 42.0989 138.269 40.0053C138.832 37.9046 139.302 35.95 139.678 34.1395H142.948C141.719 39.3336 140.379 44.0768 138.927 48.3696C137.475 52.663 135.877 56.7344 134.134 60.5844H131.056C130.489 59.2521 129.947 57.9086 129.433 56.5547C128.832 54.9772 128.249 53.3929 127.684 51.8019C127.061 50.0448 126.48 48.2729 125.942 46.4878C125.371 44.5983 124.835 42.6984 124.335 40.7891C123.835 42.7023 123.301 44.6064 122.733 46.5004C122.197 48.2883 121.619 50.0632 120.998 51.8235C120.401 53.5115 119.82 55.0961 119.257 56.5798C118.694 58.0634 118.159 59.398 117.65 60.5849H114.459C112.713 56.7344 111.117 52.66 109.671 48.3631C108.225 44.0662 106.891 39.3255 105.671 34.14H109.195C109.57 35.947 110.04 37.8986 110.604 39.9953C111.167 42.0872 111.774 44.167 112.425 46.2332C113.042 48.1992 113.699 50.1521 114.398 52.0906C115.063 53.9338 115.686 55.5033 116.267 56.7997C116.958 54.9914 117.612 53.1688 118.227 51.333C118.882 49.3827 119.497 47.4193 120.073 45.444C121.162 41.701 122.16 37.9319 123.065 34.14H125.925V34.14ZM152.037 46.1855C153.24 47.0346 154.455 48.0142 155.681 49.1258C156.943 50.275 158.153 51.4809 159.306 52.7398C160.485 54.0221 161.608 55.3544 162.672 56.7329C163.726 58.0981 164.623 59.3814 165.365 60.5844H161.376C160.547 59.1992 159.618 57.8771 158.594 56.629C157.554 55.3527 156.446 54.134 155.274 52.9783C154.165 51.8822 153.005 50.8402 151.797 49.8558C150.639 48.9159 149.612 48.2095 148.717 47.738V60.5849H145.398V21.5054L148.717 20.8914V45.5298C149.427 44.9208 150.312 44.0898 151.372 43.037C152.431 41.9851 153.512 40.9262 154.611 39.8617C155.71 38.7973 156.749 37.766 157.726 36.7679C158.703 35.7697 159.523 34.8936 160.185 34.1389H164.241C163.358 35.0613 162.461 35.9705 161.551 36.8663L158.387 39.9888L155.147 43.1876C154.085 44.2369 153.048 45.2361 152.037 46.1855V46.1855ZM172.053 35.1627C172.632 34.7876 173.509 34.3955 174.683 33.9863C175.858 33.5771 177.211 33.3728 178.743 33.3728C180.649 33.3728 182.343 33.7142 183.824 34.396C185.305 35.0784 186.556 36.0328 187.577 37.2604C188.598 38.488 189.373 39.9546 189.901 41.6597C190.428 43.3653 190.692 45.2401 190.692 47.2861C190.692 49.4346 190.377 51.3701 189.747 53.0918C189.117 54.8139 188.223 56.272 187.066 57.465C185.908 58.6589 184.513 59.5797 182.879 60.2269C181.244 60.8741 179.406 61.199 177.364 61.199C175.15 61.199 173.194 61.0453 171.491 60.7386C169.789 60.4318 168.393 60.1245 167.304 59.8177V21.7103L172.053 20.8919V35.1627H172.053ZM172.053 56.4417C172.53 56.5783 173.203 56.7063 174.07 56.8253C174.938 56.9453 176.019 57.004 177.313 57.004C179.867 57.004 181.909 56.16 183.441 54.472C184.973 52.784 185.739 50.389 185.739 47.2856C185.739 45.9225 185.603 44.6436 185.331 43.4492C185.057 42.2562 184.615 41.2239 184.003 40.3543C183.39 39.4847 182.599 38.8033 181.629 38.3083C180.658 37.8142 179.492 37.5662 178.131 37.5662C176.837 37.5662 175.645 37.7886 174.556 38.2315C173.466 38.6748 172.632 39.1352 172.054 39.6122V56.4417H172.053ZM196.666 29.1783C195.815 29.1783 195.091 28.8972 194.496 28.3343C193.9 27.7715 193.602 27.0133 193.602 26.0583C193.602 25.1039 193.9 24.3447 194.496 23.7819C195.091 23.219 195.815 22.9379 196.666 22.9379C197.516 22.9379 198.24 23.219 198.836 23.7819C199.431 24.3447 199.73 25.1039 199.73 26.0583C199.73 27.0133 199.431 27.772 198.836 28.3343C198.24 28.8972 197.516 29.1783 196.666 29.1783ZM199.066 60.5844H194.317V33.9863H199.066V60.5844ZM208.615 33.9863H218.674V37.9759H208.615V50.252C208.615 51.582 208.716 52.6816 208.92 53.5512C209.125 54.4208 209.432 55.1031 209.84 55.5972C210.24 56.0861 210.772 56.45 211.372 56.6461C211.985 56.8504 212.699 56.9528 213.516 56.9528C214.946 56.9528 216.096 56.7917 216.963 56.4668C217.57 56.2429 218.174 56.0128 218.776 55.7764L219.695 59.7148C219.218 59.9538 218.384 60.252 217.193 60.61C216.001 60.968 214.64 61.1473 213.108 61.1473C211.303 61.1473 209.815 60.9173 208.64 60.4569C207.465 59.9965 206.52 59.3061 205.806 58.3853C205.091 57.465 204.589 56.3312 204.3 54.9841C204.01 53.6375 203.866 52.077 203.866 50.3037V26.5695L208.615 25.7511V33.9863H208.615Z" fill="white"/>
<path d="M45.779 47.2901C45.779 45.8832 43.7931 44.7435 41.3431 44.7435C38.893 44.7435 36.9071 45.8837 36.9071 47.2901C36.9071 48.6015 38.6344 52.1212 40.8544 52.434C40.9496 52.4475 40.8879 53.7796 40.3366 54.0532C39.3817 54.5011 37.5231 53.7971 37.3336 53.8132C37.1447 53.8288 36.9848 53.9452 37.278 54.1521C38.9637 55.1332 40.6714 55.1397 41.3426 55.1397C42.0137 55.1397 43.7214 55.1332 45.4071 54.1521C45.7003 53.9452 45.541 53.8288 45.352 53.8132C45.1625 53.7971 43.3034 54.5006 42.3491 54.0532C41.7977 53.7796 41.7355 52.448 41.8308 52.434C44.0513 52.1217 45.779 48.602 45.779 47.2901ZM69.1659 43.3838C68.2106 38.8008 66.8878 35.4789 64.6167 32.2746L63.0703 30.3928C62.1486 29.127 61.0799 27.185 60.7225 25.3112C60.5942 24.6379 60.517 23.6588 60.6619 22.9137C60.8032 22.1862 60.914 21.4767 61.117 20.819C61.6538 19.0807 62.6498 17.6543 64.0107 16.4312V16.3097C60.4694 15.6098 55.6745 16.1606 52.5764 16.9167C51.6776 17.1362 50.1378 17.327 49.4832 17.7969H49.4526C49.5253 17.3892 49.602 16.5889 50.1524 15.645C50.7022 14.7015 51.8506 13.856 52.8796 13.1531V13.0316L52.7282 13.0015L49.2712 13.3047C47.2522 13.6707 45.3369 13.9348 43.4783 14.3973C37.5026 15.885 32.415 18.6033 28.0717 21.7724C22.7445 25.6596 17.27 31.6756 14.7267 38.3147C14.1598 39.7954 13.831 41.4096 13.453 43.0801C12.631 46.7132 13.3192 51.4092 14.1808 54.4011C16.455 62.2965 21.8954 67.9811 28.8602 71.1859C29.8822 71.6564 30.9554 72.0526 32.0736 72.4025C32.0751 72.4136 32.0716 72.4241 32.0741 72.4351C33.1357 73.4217 31.9553 75.6465 31.6872 75.6063C33.9603 75.9829 37.9918 74.2286 37.9918 74.2286C37.9918 74.2286 38.7572 76.371 36.1307 78.2719C46.1089 77.9536 58.3055 68.6298 58.3055 68.6298L57.9993 68.6951C62.6638 65.4561 66.1966 61.1085 68.2567 55.2512C68.7293 53.9091 69.0105 52.4084 69.2882 50.9106L69.5303 48.0271C69.7408 46.7413 69.385 44.4332 69.1659 43.3838V43.3838ZM53.0405 38.49C49.8862 37.8378 46.9489 39.5439 46.1439 42.3525C45.3385 45.1617 47.3178 48.2777 50.0792 48.8214C51.8315 49.1664 53.8801 48.5041 58.7737 49.4676C60.715 49.8497 61.9711 50.3066 62.8523 50.7048C62.5611 52.8572 62.109 55.2607 61.4328 56.7685C59.9677 60.0366 59.6133 59.8644 58.5211 61.231C54.453 66.3192 45.5635 70.8501 35.9262 68.424C28.4812 66.5502 23.6859 62.0128 20.7621 55.5856C20.2464 54.5603 19.906 52.6283 19.7025 50.76C20.5887 50.3493 21.8699 49.8678 23.9004 49.4681C28.7945 48.5046 30.8431 49.1664 32.5954 48.8219C35.3562 48.2782 37.3361 45.1622 36.5307 42.353C35.7252 39.5439 32.7874 37.8378 29.6336 38.49C29.1724 38.5808 28.0111 38.8615 26.18 39.6985C24.1239 40.659 21.7065 42.711 19.686 44.8881C20.0293 43.0394 20.4463 41.5145 21.126 39.9837C23.4773 34.6877 27.802 30.7804 33.3789 28.7234C33.8826 28.5371 34.4094 28.3819 34.9452 28.2368C34.6535 29.3731 35.0866 31.3196 35.3578 31.3151C36.5843 28.5531 40.115 28.0631 40.115 28.0631C40.115 28.0631 38.9151 30.2412 39.7722 32.6221C45.4658 26.6824 53.2124 30.6519 53.2485 30.6704C53.8166 31.0115 54.3714 31.3743 54.9116 31.758C55.9758 32.5186 57.0404 33.3576 57.8534 34.3683C59.1055 35.9253 60.6298 37.4808 61.4323 39.4675C61.9836 40.8317 62.5706 42.2265 62.949 43.7775L63.1591 45.0759C61.1045 42.8295 58.6083 40.6861 56.4936 39.698C54.6625 38.8615 53.5012 38.5808 53.0405 38.49V38.49ZM53.9708 44.3021C53.5267 44.1144 52.8425 44.0325 52.0836 44.1129C51.5102 44.1736 51.0025 44.3167 50.6155 44.5005C50.5701 44.4015 50.5325 44.2991 50.5032 44.1942C50.2401 43.186 50.803 42.1768 51.7603 41.9408C52.7182 41.7043 53.7072 42.3304 53.9708 43.3391C54.052 43.655 54.052 43.9863 53.9708 44.3021V44.3021ZM28.7043 43.3386C28.9674 42.3299 29.9569 41.7038 30.9143 41.9403C31.8716 42.1768 32.4345 43.1855 32.1714 44.1937C32.1426 44.2988 32.1051 44.4012 32.0591 44.5C31.6726 44.3157 31.1644 44.1726 30.591 44.1124C29.8321 44.0325 29.1479 44.1144 28.7038 44.3016C28.6227 43.9858 28.6229 43.6544 28.7043 43.3386Z" fill="white"/>
<defs>
<filter id="filter0_f_1_626" x="0.0839844" y="0.00146484" width="232.611" height="91.2705" filterUnits="userSpaceOnUse" color-interpolation-filters="sRGB">
<feFlood flood-opacity="0" result="BackgroundImageFix"/>
<feBlend mode="normal" in="SourceGraphic" in2="BackgroundImageFix" result="shape"/>
<feGaussianBlur stdDeviation="6.5" result="effect1_foregroundBlur_1_626"/>
</filter>
</defs>
</svg>
