<svg width="126" height="50" viewBox="0 0 126 50" fill="none" xmlns="http://www.w3.org/2000/svg">
<g id="logo">
<g id="Vector" filter="url(#filter0_f_89_760)">
<path d="M56.1281 33.0118C55.7631 32.0708 55.4276 31.1656 55.1209 30.2968C54.8142 29.4281 54.5216 28.5818 54.242 27.7581H44.897C44.5778 28.5859 44.2652 29.4343 43.9598 30.3036C43.6544 31.173 43.3309 32.076 42.9898 33.0118H41.03C41.7564 31.0169 42.4424 29.1585 43.0887 27.4356C43.702 25.7978 44.3358 24.1677 44.99 22.5459C45.5893 21.0612 46.2063 19.5838 46.8408 18.114C47.46 16.6816 48.1039 15.2601 48.7722 13.8501H50.4269C51.096 15.2563 51.7364 16.676 52.3477 18.1083C52.953 19.5283 53.5678 21.0069 54.191 22.5431C54.8145 24.0796 55.4463 25.7105 56.0863 27.4356C56.7263 29.1607 57.4311 31.0193 58.1998 33.0118H56.1281ZM49.5458 16.007C48.8476 17.6121 48.1732 19.2274 47.5228 20.8525C46.821 22.6111 46.1419 24.3786 45.4858 26.1548H53.651C52.9906 24.3744 52.3028 22.6043 51.5877 20.8452C50.9266 19.2242 50.2459 17.6114 49.5458 16.007ZM68.1544 18.7168C68.3191 19.6385 68.5348 20.6194 68.8006 21.6608C69.0664 22.7022 69.3593 23.7618 69.6801 24.8396C69.9985 25.911 70.3387 26.9758 70.7005 28.0333C71.0399 29.0292 71.4046 30.0163 71.7944 30.9936C72.1084 30.2936 72.4406 29.4422 72.7917 28.4385C73.1591 27.3851 73.5101 26.326 73.8444 25.2616C74.1964 24.1441 74.5241 23.0191 74.8274 21.8874C75.132 20.7518 75.3856 19.6952 75.5888 18.7165H77.3568C76.6924 21.5243 75.9679 24.0883 75.1829 26.4089C74.3982 28.7297 73.5342 30.9306 72.592 33.0118H70.9284C70.6215 32.2916 70.329 31.5653 70.051 30.8334C69.7259 29.9807 69.4107 29.1243 69.1054 28.2642C68.7685 27.3144 68.4544 26.3566 68.1636 25.3916C67.8551 24.3702 67.5656 23.3432 67.2952 22.3111C67.025 23.3453 66.7363 24.3746 66.4292 25.3984C66.1395 26.3649 65.8269 27.3244 65.4914 28.2759C65.1684 29.1884 64.8547 30.045 64.5501 30.847C64.2456 31.649 63.9565 32.3704 63.6814 33.0121H61.9563C61.0128 30.9306 60.1501 28.7281 59.3684 26.4053C58.5864 24.0826 57.8657 21.5199 57.2059 18.7168H59.1107C59.3137 19.6936 59.5678 20.7486 59.8726 21.882C60.1769 23.0128 60.5051 24.1371 60.8568 25.254C61.1902 26.3167 61.5458 27.3724 61.9232 28.4203C62.2828 29.4167 62.6196 30.2651 62.9336 30.9659C63.3075 29.9884 63.6608 29.0031 63.9933 28.0107C64.3475 26.9565 64.6801 25.8952 64.991 24.8273C65.5799 22.804 66.1192 20.7666 66.6086 18.7168H68.1544ZM82.2697 25.2282C82.92 25.6872 83.5771 26.2167 84.2398 26.8176C84.9221 27.4388 85.576 28.0907 86.1994 28.7712C86.8364 29.4644 87.4435 30.1846 88.0191 30.9298C88.5886 31.6677 89.0734 32.3615 89.4744 33.0118H87.3184C86.8704 32.2629 86.3677 31.5483 85.8146 30.8736C85.2524 30.1837 84.6531 29.5249 84.0195 28.9002C83.4205 28.3077 82.7933 27.7444 82.1402 27.2122C81.514 26.7042 80.9591 26.3223 80.4752 26.0674V33.0121H78.6812V11.887L80.4752 11.555V24.8738C80.8591 24.5445 81.3376 24.0953 81.9102 23.5262C82.4829 22.9576 83.0671 22.3852 83.6613 21.8098C84.2555 21.2344 84.8169 20.6769 85.3453 20.1373C85.8731 19.5978 86.3167 19.1242 86.6746 18.7162H88.8669C88.3894 19.2148 87.9046 19.7063 87.4127 20.1905L83.9513 23.6076C83.3768 24.1749 82.8165 24.715 82.2697 25.2282ZM93.09 19.2696C93.4027 19.0669 93.8768 18.8549 94.5117 18.6337C95.1465 18.4125 95.8781 18.3021 96.7064 18.3021C97.7369 18.3021 98.6524 18.4866 99.4528 18.8552C100.253 19.224 100.93 19.74 101.482 20.4036C102.034 21.0672 102.452 21.86 102.738 22.7817C103.023 23.7037 103.166 24.7172 103.166 25.8232C103.166 26.9845 102.995 28.0308 102.655 28.9615C102.314 29.8924 101.831 30.6806 101.206 31.3255C100.58 31.9709 99.8254 32.4687 98.942 32.8185C98.0585 33.1684 97.0649 33.344 95.9607 33.344C94.7642 33.344 93.7064 33.2609 92.7863 33.0951C91.8661 32.9293 91.1115 32.7632 90.5227 32.5973V11.9977L93.0897 11.5553L93.09 19.2696ZM93.09 30.7724C93.3477 30.8462 93.7113 30.9154 94.1803 30.9797C94.6496 31.0446 95.2338 31.0763 95.9334 31.0763C97.3136 31.0763 98.4175 30.6201 99.2458 29.7076C100.074 28.7951 100.488 27.5005 100.488 25.8229C100.488 25.086 100.414 24.3947 100.267 23.749C100.12 23.1042 99.8806 22.5461 99.5498 22.076C99.2184 21.606 98.7906 21.2376 98.2663 20.97C97.7417 20.703 97.1109 20.5689 96.3753 20.5689C95.6757 20.5689 95.0316 20.6891 94.4429 20.9285C93.8538 21.1682 93.4029 21.4171 93.0903 21.6749L93.09 30.7724ZM106.395 16.0347C105.935 16.0347 105.543 15.8827 105.222 15.5784C104.9 15.2742 104.739 14.8643 104.739 14.3481C104.739 13.8322 104.9 13.4218 105.222 13.1175C105.544 12.8133 105.935 12.6613 106.395 12.6613C106.854 12.6613 107.246 12.8133 107.568 13.1175C107.89 13.4218 108.051 13.8322 108.051 14.3481C108.051 14.8643 107.889 15.2745 107.568 15.5784C107.246 15.8827 106.854 16.0347 106.395 16.0347ZM107.692 33.0118H105.125V18.6337H107.692V33.0118ZM112.854 18.6337H118.292V20.7904H112.854V27.4264C112.854 28.1454 112.909 28.7398 113.019 29.2098C113.13 29.6799 113.296 30.0488 113.516 30.3158C113.733 30.5801 114.02 30.7769 114.344 30.8828C114.676 30.9933 115.062 31.0487 115.504 31.0487C116.277 31.0487 116.898 30.9615 117.367 30.7859C117.695 30.6649 118.021 30.5405 118.347 30.4127L118.844 32.5417C118.586 32.6709 118.135 32.8321 117.491 33.0256C116.847 33.2191 116.111 33.316 115.283 33.316C114.307 33.316 113.503 33.1917 112.868 32.9428C112.233 32.694 111.722 32.3208 111.336 31.823C110.949 31.3255 110.678 30.7126 110.521 29.9844C110.365 29.2565 110.287 28.413 110.287 27.4543V14.6244L112.854 14.182L112.854 18.6337Z" fill="#F44F59"/>
<path d="M24.8302 25.8253C24.8302 25.0648 23.7567 24.4487 22.4323 24.4487C21.1079 24.4487 20.0344 25.0651 20.0344 25.8253C20.0344 26.5343 20.9681 28.4369 22.1681 28.6059C22.2196 28.6133 22.1863 29.3333 21.8882 29.4812C21.3721 29.7233 20.3674 29.3428 20.2649 29.3515C20.1628 29.3599 20.0764 29.4229 20.2349 29.5347C21.1461 30.0651 22.0692 30.0686 22.432 30.0686C22.7948 30.0686 23.718 30.0651 24.6292 29.5347C24.7877 29.4229 24.7015 29.3599 24.5994 29.3515C24.497 29.3428 23.492 29.7231 22.9761 29.4812C22.6781 29.3333 22.6445 28.6135 22.6959 28.6059C23.8963 28.4371 24.8302 26.5345 24.8302 25.8253ZM37.4724 23.7137C36.956 21.2363 36.2409 19.4406 35.0132 17.7085L34.1773 16.6912C33.6791 16.007 33.1014 14.9572 32.9082 13.9443C32.8388 13.5803 32.7971 13.051 32.8754 12.6483C32.9518 12.255 33.0117 11.8715 33.1214 11.5159C33.4116 10.5763 33.95 9.80522 34.6857 9.14406V9.07837C32.7714 8.70003 30.1794 8.99777 28.5046 9.40651C28.0188 9.52512 27.1865 9.62826 26.8326 9.8823H26.8161C26.8554 9.66191 26.8968 9.22928 27.1943 8.71902C27.4916 8.20904 28.1123 7.75198 28.6686 7.37201V7.30632L28.5867 7.29004L26.718 7.45397C25.6266 7.65183 24.5913 7.79459 23.5866 8.04457C20.3562 8.84876 17.6061 10.3182 15.2582 12.0313C12.3785 14.1326 9.41919 17.3847 8.04436 20.9736C7.73791 21.774 7.56017 22.6465 7.35587 23.5495C6.91151 25.5135 7.28353 28.052 7.7493 29.6693C8.97861 33.9373 11.9195 37.0102 15.6845 38.7427C16.2369 38.997 16.817 39.2111 17.4215 39.4003C17.4224 39.4063 17.4205 39.4119 17.4218 39.4179C17.9957 39.9512 17.3576 41.1539 17.2126 41.1322C18.4414 41.3357 20.6207 40.3874 20.6207 40.3874C20.6207 40.3874 21.0344 41.5455 19.6146 42.5731C25.0085 42.401 31.6017 37.3609 31.6017 37.3609L31.4361 37.3962C33.9576 35.6453 35.8673 33.2951 36.9809 30.1288C37.2364 29.4034 37.3884 28.5921 37.5385 27.7825L37.6694 26.2238C37.7832 25.5287 37.5908 24.281 37.4724 23.7137ZM28.7556 21.0683C27.0504 20.7157 25.4626 21.638 25.0275 23.1563C24.5921 24.6748 25.6621 26.3592 27.1548 26.6531C28.102 26.8396 29.2094 26.4816 31.8547 27.0024C32.9041 27.209 33.5831 27.456 34.0595 27.6712C33.9021 28.8347 33.6577 30.134 33.2921 30.949C32.5001 32.7157 32.3086 32.6226 31.7182 33.3614C29.5191 36.1118 24.7137 38.5611 19.5041 37.2496C15.4796 36.2367 12.8874 33.7839 11.3069 30.3096C11.0281 29.7554 10.8441 28.711 10.7341 27.7011C11.2132 27.479 11.9057 27.2188 13.0034 27.0027C15.649 26.4819 16.7564 26.8396 17.7036 26.6534C19.196 26.3595 20.2663 24.6751 19.8309 23.1565C19.3954 21.638 17.8074 20.7157 16.1025 21.0683C15.8533 21.1174 15.2255 21.2691 14.2357 21.7216C13.1242 22.2408 11.8174 23.35 10.7252 24.5269C10.9108 23.5276 11.1362 22.7033 11.5036 21.8757C12.7747 19.0129 15.1125 16.9007 18.1271 15.7888C18.3994 15.6881 18.6842 15.6042 18.9738 15.5258C18.8161 16.14 19.0502 17.1922 19.1968 17.1898C19.8599 15.6968 21.7685 15.4319 21.7685 15.4319C21.7685 15.4319 21.1198 16.6093 21.5831 17.8963C24.6609 14.6855 28.8485 16.8313 28.868 16.8413C29.1751 17.0257 29.475 17.2218 29.767 17.4292C30.3423 17.8404 30.9178 18.2939 31.3573 18.8403C32.0341 19.6819 32.8581 20.5227 33.2919 21.5967C33.5899 22.3341 33.9072 23.0881 34.1118 23.9265L34.2253 24.6284C33.1147 23.4141 31.7653 22.2554 30.6222 21.7213C29.6324 21.2691 29.0046 21.1174 28.7556 21.0683ZM29.2584 24.2102C29.0184 24.1086 28.6485 24.0644 28.2383 24.1078C27.9283 24.1407 27.6539 24.218 27.4447 24.3174C27.4201 24.2639 27.3998 24.2085 27.384 24.1518C27.2417 23.6068 27.546 23.0613 28.0635 22.9337C28.5813 22.8059 29.1159 23.1443 29.2584 23.6896C29.3024 23.8603 29.3024 24.0394 29.2584 24.2102ZM15.6002 23.6893C15.7424 23.144 16.2773 22.8056 16.7948 22.9334C17.3123 23.0613 17.6166 23.6065 17.4744 24.1515C17.4588 24.2083 17.4385 24.2637 17.4137 24.3171C17.2048 24.2175 16.93 24.1401 16.6201 24.1076C16.2098 24.0644 15.84 24.1086 15.5999 24.2099C15.5561 24.0391 15.5562 23.86 15.6002 23.6893Z" fill="#F44F59"/>
</g>
<path id="Vector_2" d="M56.1279 33.0119C55.7629 32.071 55.4275 31.1658 55.1207 30.297C54.814 29.4282 54.5214 28.5819 54.2418 27.7582H44.8968C44.5777 28.586 44.265 29.4345 43.9596 30.3038C43.6542 31.1731 43.3307 32.0761 42.9896 33.0119H41.0298C41.7562 31.0171 42.4423 29.1587 43.0885 27.4358C43.7018 25.798 44.3356 24.1679 44.9898 22.546C45.5891 21.0614 46.2061 19.584 46.8407 18.1141C47.4598 16.6818 48.1037 15.2602 48.772 13.8502H50.4267C51.0958 15.2564 51.7362 16.6761 52.3475 18.1084C52.9528 19.5285 53.5676 21.0071 54.1908 22.5433C54.8143 24.0798 55.4462 25.7107 56.0862 27.4358C56.7262 29.1609 57.4309 31.0195 58.1996 33.0119H56.1279V33.0119ZM49.5456 16.0071C48.8474 17.6122 48.173 19.2276 47.5227 20.8527C46.8208 22.6112 46.1417 24.3788 45.4856 26.155H53.6508C52.9904 24.3745 52.3026 22.6045 51.5875 20.8453C50.9264 19.2244 50.2457 17.6116 49.5456 16.0071V16.0071ZM68.1542 18.7169C68.3189 19.6386 68.5346 20.6195 68.8004 21.6609C69.0662 22.7023 69.3591 23.7619 69.6799 24.8397C69.9983 25.9111 70.3385 26.9759 70.7003 28.0334C71.0397 29.0294 71.4045 30.0164 71.7942 30.9937C72.1082 30.2937 72.4404 29.4423 72.7916 28.4386C73.159 27.3852 73.5099 26.3262 73.8442 25.2618C74.1962 24.1443 74.524 23.0193 74.8272 21.8876C75.1318 20.752 75.3854 19.6954 75.5886 18.7167H77.3566C76.6922 21.5244 75.9677 24.0884 75.1827 26.409C74.398 28.7299 73.534 30.9307 72.5919 33.0119H70.9282C70.6213 32.2917 70.3288 31.5655 70.0509 30.8336C69.7257 29.9809 69.4105 29.1244 69.1052 28.2644C68.7683 27.3146 68.4543 26.3568 68.1634 25.3918C67.855 24.3704 67.5654 23.3434 67.295 22.3112C67.0248 23.3455 66.7361 24.3747 66.429 25.3986C66.1394 26.3651 65.8267 27.3245 65.4912 28.2761C65.1683 29.1886 64.8545 30.0451 64.5499 30.8472C64.2454 31.6492 63.9563 32.3706 63.6813 33.0122H61.9561C61.0126 30.9308 60.1499 28.7282 59.3682 26.4055C58.5863 24.0827 57.8655 21.5201 57.2057 18.7169H59.1105C59.3135 19.6937 59.5676 20.7487 59.8725 21.8821C60.1768 23.013 60.5049 24.1372 60.8566 25.2542C61.1901 26.3169 61.5456 27.3726 61.9231 28.4205C62.2826 29.4168 62.6194 30.2652 62.9334 30.966C63.3073 29.9885 63.6606 29.0033 63.9931 28.0109C64.3473 26.9567 64.6799 25.8953 64.9908 24.8275C65.5797 22.8042 66.1191 20.7667 66.6084 18.7169H68.1542V18.7169ZM82.2695 25.2284C82.9198 25.6873 83.5769 26.2169 84.2396 26.8178C84.9219 27.439 85.5758 28.0909 86.1992 28.7714C86.8362 29.4646 87.4434 30.1847 88.0189 30.9299C88.5885 31.6679 89.0732 32.3616 89.4742 33.0119H87.3182C86.8702 32.2631 86.3675 31.5484 85.8144 30.8738C85.2522 30.1838 84.653 29.5251 84.0194 28.9003C83.4203 28.3078 82.7931 27.7445 82.14 27.2124C81.5138 26.7043 80.9589 26.3224 80.475 26.0676V33.0122H78.681V11.8871L80.475 11.5552V24.8739C80.8589 24.5447 81.3374 24.0955 81.91 23.5264C82.4828 22.9577 83.0669 22.3853 83.6612 21.8099C84.2554 21.2345 84.8168 20.6771 85.3451 20.1375C85.8729 19.5979 86.3165 19.1243 86.6744 18.7164H88.8667C88.3893 19.215 87.9045 19.7065 87.4125 20.1907L85.7025 21.8786L83.9511 23.6078C83.3767 24.175 82.8163 24.7151 82.2695 25.2284V25.2284ZM93.0898 19.2698C93.4025 19.0671 93.8767 18.8551 94.5115 18.6339C95.1464 18.4127 95.8779 18.3022 96.7062 18.3022C97.7367 18.3022 98.6522 18.4868 99.4526 18.8553C100.253 19.2242 100.93 19.7402 101.482 20.4038C102.033 21.0674 102.452 21.8602 102.738 22.7819C103.023 23.7039 103.166 24.7173 103.166 25.8233C103.166 26.9847 102.995 28.031 102.655 28.9617C102.314 29.8926 101.831 30.6808 101.205 31.3257C100.58 31.9711 99.8252 32.4688 98.9419 32.8187C98.0583 33.1685 97.0647 33.3441 95.9606 33.3441C94.764 33.3441 93.7062 33.2611 92.7861 33.0953C91.8659 32.9294 91.1113 32.7633 90.5225 32.5975V11.9978L93.0895 11.5554V19.2698H93.0898ZM93.0898 30.7725C93.3475 30.8463 93.7111 30.9156 94.1801 30.9799C94.6494 31.0447 95.2336 31.0765 95.9332 31.0765C97.3134 31.0765 98.4173 30.6203 99.2456 29.7078C100.074 28.7953 100.488 27.5006 100.488 25.823C100.488 25.0862 100.414 24.3949 100.267 23.7492C100.119 23.1043 99.8805 22.5463 99.5496 22.0762C99.2183 21.6061 98.7904 21.2378 98.2661 20.9702C97.7416 20.7031 97.1108 20.569 96.3751 20.569C95.6755 20.569 95.0315 20.6893 94.4427 20.9287C93.8536 21.1683 93.4028 21.4172 93.0901 21.6751V30.7725H93.0898ZM106.394 16.0348C105.934 16.0348 105.543 15.8828 105.222 15.5786C104.899 15.2743 104.738 14.8645 104.738 14.3483C104.738 13.8323 104.899 13.4219 105.222 13.1177C105.543 12.8134 105.934 12.6615 106.394 12.6615C106.854 12.6615 107.246 12.8134 107.568 13.1177C107.89 13.4219 108.051 13.8323 108.051 14.3483C108.051 14.8645 107.889 15.2746 107.568 15.5786C107.246 15.8828 106.854 16.0348 106.394 16.0348ZM107.692 33.0119H105.125V18.6339H107.692V33.0119ZM112.854 18.6339H118.292V20.7905H112.854V27.4265C112.854 28.1455 112.909 28.7399 113.019 29.21C113.13 29.6801 113.295 30.0489 113.516 30.316C113.732 30.5803 114.02 30.777 114.344 30.883C114.676 30.9934 115.062 31.0488 115.503 31.0488C116.276 31.0488 116.898 30.9617 117.367 30.7861C117.695 30.6651 118.021 30.5406 118.347 30.4129L118.843 32.5419C118.586 32.671 118.135 32.8323 117.491 33.0258C116.847 33.2193 116.111 33.3162 115.283 33.3162C114.307 33.3162 113.502 33.1919 112.868 32.943C112.232 32.6941 111.722 32.3209 111.336 31.8232C110.949 31.3257 110.677 30.7128 110.521 29.9846C110.365 29.2567 110.287 28.4131 110.287 27.4545V14.6246L112.854 14.1822V18.6339H112.854Z" fill="white"/>
<path id="Vector_3" d="M24.8302 25.8253C24.8302 25.0648 23.7567 24.4487 22.4323 24.4487C21.1079 24.4487 20.0344 25.0651 20.0344 25.8253C20.0344 26.5343 20.9681 28.4369 22.1681 28.6059C22.2196 28.6133 22.1863 29.3333 21.8882 29.4812C21.3721 29.7233 20.3674 29.3428 20.2649 29.3515C20.1628 29.3599 20.0763 29.4229 20.2349 29.5347C21.1461 30.0651 22.0692 30.0686 22.432 30.0686C22.7948 30.0686 23.718 30.0651 24.6292 29.5347C24.7877 29.4229 24.7015 29.3599 24.5994 29.3515C24.497 29.3428 23.492 29.7231 22.9761 29.4812C22.6781 29.3333 22.6445 28.6135 22.6959 28.6059C23.8963 28.4371 24.8302 26.5345 24.8302 25.8253ZM37.4724 23.7137C36.956 21.2363 36.2409 19.4406 35.0132 17.7085L34.1773 16.6912C33.6791 16.007 33.1014 14.9572 32.9082 13.9443C32.8388 13.5803 32.7971 13.051 32.8754 12.6483C32.9518 12.255 33.0117 11.8715 33.1214 11.5159C33.4116 10.5763 33.95 9.80522 34.6857 9.14406V9.07837C32.7714 8.70003 30.1794 8.99777 28.5046 9.40651C28.0188 9.52512 27.1865 9.62826 26.8326 9.8823H26.8161C26.8553 9.66191 26.8968 9.22928 27.1943 8.71902C27.4916 8.20904 28.1123 7.75198 28.6686 7.37201V7.30632L28.5867 7.29004L26.718 7.45397C25.6266 7.65183 24.5913 7.79459 23.5866 8.04457C20.3562 8.84876 17.6061 10.3182 15.2582 12.0313C12.3785 14.1326 9.41918 17.3847 8.04436 20.9736C7.73791 21.774 7.56017 22.6465 7.35587 23.5495C6.91151 25.5135 7.28353 28.052 7.7493 29.6693C8.97861 33.9373 11.9195 37.0102 15.6845 38.7426C16.2369 38.997 16.817 39.2111 17.4215 39.4003C17.4224 39.4063 17.4205 39.4119 17.4218 39.4179C17.9957 39.9512 17.3576 41.1539 17.2126 41.1322C18.4414 41.3357 20.6207 40.3874 20.6207 40.3874C20.6207 40.3874 21.0344 41.5455 19.6146 42.5731C25.0085 42.401 31.6017 37.3609 31.6017 37.3609L31.4361 37.3962C33.9576 35.6453 35.8673 33.2951 36.9809 30.1288C37.2364 29.4034 37.3884 28.5921 37.5385 27.7825L37.6694 26.2238C37.7832 25.5287 37.5908 24.281 37.4724 23.7137V23.7137ZM28.7556 21.0683C27.0504 20.7157 25.4626 21.638 25.0275 23.1563C24.5921 24.6748 25.6621 26.3592 27.1548 26.6531C28.102 26.8396 29.2094 26.4816 31.8547 27.0024C32.9041 27.209 33.5831 27.456 34.0595 27.6712C33.9021 28.8347 33.6577 30.134 33.2921 30.949C32.5001 32.7157 32.3086 32.6226 31.7182 33.3614C29.5191 36.1118 24.7137 38.5611 19.5041 37.2496C15.4796 36.2367 12.8874 33.7839 11.3069 30.3096C11.0281 29.7554 10.8441 28.711 10.7341 27.7011C11.2132 27.479 11.9057 27.2188 13.0034 27.0027C15.649 26.4819 16.7563 26.8396 17.7036 26.6534C19.196 26.3595 20.2663 24.6751 19.8309 23.1565C19.3954 21.638 17.8074 20.7157 16.1025 21.0683C15.8533 21.1174 15.2255 21.2691 14.2357 21.7216C13.1242 22.2408 11.8174 23.35 10.7252 24.5269C10.9108 23.5275 11.1362 22.7033 11.5036 21.8757C12.7747 19.0129 15.1125 16.9007 18.1271 15.7888C18.3994 15.6881 18.6842 15.6042 18.9738 15.5258C18.8161 16.14 19.0502 17.1922 19.1968 17.1898C19.8599 15.6968 21.7685 15.4319 21.7685 15.4319C21.7685 15.4319 21.1198 16.6092 21.5831 17.8963C24.6609 14.6855 28.8485 16.8313 28.868 16.8413C29.1751 17.0257 29.475 17.2218 29.767 17.4292C30.3423 17.8404 30.9178 18.2939 31.3573 18.8403C32.0341 19.6819 32.8581 20.5227 33.2919 21.5967C33.5899 22.3341 33.9072 23.0881 34.1118 23.9265L34.2253 24.6284C33.1147 23.4141 31.7653 22.2554 30.6222 21.7213C29.6324 21.2691 29.0046 21.1174 28.7556 21.0683V21.0683ZM29.2584 24.2102C29.0184 24.1086 28.6485 24.0644 28.2383 24.1078C27.9283 24.1407 27.6539 24.218 27.4447 24.3174C27.4201 24.2639 27.3998 24.2085 27.384 24.1518C27.2417 23.6068 27.546 23.0613 28.0635 22.9337C28.5813 22.8059 29.1159 23.1443 29.2584 23.6896C29.3024 23.8603 29.3024 24.0394 29.2584 24.2102V24.2102ZM15.6002 23.6893C15.7424 23.144 16.2773 22.8056 16.7948 22.9334C17.3123 23.0613 17.6166 23.6065 17.4744 24.1515C17.4588 24.2083 17.4385 24.2637 17.4137 24.3171C17.2048 24.2175 16.93 24.1401 16.6201 24.1076C16.2098 24.0644 15.84 24.1086 15.5999 24.2099C15.5561 24.0391 15.5562 23.86 15.6002 23.6893Z" fill="white"/>
</g>
<defs>
<filter id="filter0_f_89_760" x="0.129001" y="0.262668" width="125.742" height="49.3377" filterUnits="userSpaceOnUse" color-interpolation-filters="sRGB">
<feFlood flood-opacity="0" result="BackgroundImageFix"/>
<feBlend mode="normal" in="SourceGraphic" in2="BackgroundImageFix" result="shape"/>
<feGaussianBlur stdDeviation="3.51369" result="effect1_foregroundBlur_89_760"/>
</filter>
</defs>
</svg>
