<svg width="25" height="14" viewBox="0 0 25 14" fill="none" xmlns="http://www.w3.org/2000/svg">
<path d="M6.95952 0.116211C10.7467 0.116211 13.8166 3.20754 13.8166 7.02062C13.8166 10.8337 10.7465 13.9248 6.95952 13.9248C3.17253 13.9248 0.102173 10.8337 0.102173 7.02062C0.102173 3.20754 3.1723 0.116211 6.95952 0.116211ZM17.9102 0.520654C19.8038 0.520654 21.3389 3.4305 21.3389 7.02062H21.3391C21.3391 10.6098 19.8041 13.5206 17.9105 13.5206C16.0168 13.5206 14.4818 10.6098 14.4818 7.02062C14.4818 3.43143 16.0166 0.520654 17.9102 0.520654ZM23.2101 1.19768C23.876 1.19768 24.416 3.80465 24.416 7.02062C24.416 10.2357 23.8762 12.8436 23.2101 12.8436C22.5441 12.8436 22.0045 10.2364 22.0045 7.02062C22.0045 3.80489 22.5443 1.19768 23.2101 1.19768Z" fill="white"/>
</svg>
