<svg width="1361" height="1090" viewBox="0 0 1361 1090" fill="none" xmlns="http://www.w3.org/2000/svg">
<g opacity="0.3" filter="url(#filter0_f_381_5346)">
<path d="M1157.98 608.869C1157.98 732.281 845.026 557.162 700.016 718.76C500.755 917.649 266.951 728.489 298.611 596.946C298.611 473.534 362.197 86.5746 845.026 359.864C1038.76 359.864 1157.98 485.457 1157.98 608.869Z" fill="url(#paint0_linear_381_5346)"/>
</g>
<g opacity="0.9" filter="url(#filter1_f_381_5346)">
<path d="M614.252 589.412C614.252 681.903 501.487 745.84 418.341 745.84C335.195 745.84 231.841 679.061 245.429 580.477C245.429 487.987 396.792 402.798 479.938 402.798C563.084 402.798 614.252 496.922 614.252 589.412Z" fill="url(#paint1_radial_381_5346)"/>
</g>
<g filter="url(#filter2_f_381_5346)">
<path d="M207.732 511.96L341.435 402.798V447.679H384.016L486.707 505.277L514.064 673.588L404.055 732.824L350.016 776.679L292.016 742.132L217.016 698.679L168.016 661.679L173.883 585.581L207.732 511.96Z" fill="#010101"/>
</g>
<path d="M317.115 680.795L323.128 671.755L363.264 671.755L363.264 680.795L317.115 680.795Z" fill="#0B0C0E"/>
<path d="M354.247 651.713L336.166 651.713L323.607 670.761L354.247 670.761L354.247 651.713Z" fill="#46403F"/>
<path d="M316.669 681.79L363.268 681.79L363.268 730.886L306.602 730.886L316.669 681.79Z" fill="#5B5B5B"/>
<path d="M299.753 744.146L305.625 731.892L355.255 731.908L355.095 744.146L299.753 744.146Z" fill="#181619"/>
<path d="M355.247 650.707L348.815 650.707L330.135 619.816L355.247 619.644L355.247 650.707Z" fill="#1B1A18"/>
<path d="M363.261 618.65L363.261 610.624L318.744 610.624L329.899 618.818L363.261 618.65Z" fill="#524139"/>
<path d="M347.697 650.7L318.131 611.595L328.615 619.565L347.697 650.7Z" fill="#2B2C2C"/>
<path d="M319.112 609.619L354.249 609.619L353.839 566.677L319.112 609.619Z" fill="#CFBDB5"/>
<path d="M239.009 585.524L229.477 529.457L298.616 517.439L286.985 578.6L239.009 585.524Z" fill="#C2BBBA"/>
<path d="M288.103 578.038L299.587 517.411L352.762 525.356L288.103 578.038Z" fill="#D9CAC3"/>
<path d="M289.116 578.528L353.238 526.386L353.238 564.515L289.116 578.528Z" fill="#D1BEB8"/>
<path d="M322.196 671.74L279.089 652.659L316.153 680.86L322.196 671.74Z" fill="#1B1C1D"/>
<path d="M322.67 670.779L334.668 651.695L279.12 651.695L322.67 670.779Z" fill="#4F565D"/>
<path d="M346.214 650.684L316.708 611.58L279.12 650.684L346.214 650.684Z" fill="#5B636B"/>
<path d="M278.078 650.73L268.268 623.052L314.594 612.455L278.078 650.73Z" fill="#636D74"/>
<path d="M266.883 623.13L234.511 628.389L277.573 651.694L266.883 623.13Z" fill="#636B74"/>
<path d="M233.327 628.884L193.507 675.322L227.622 700.382L277.098 652.69L233.327 628.884Z" fill="#4C545C"/>
<path d="M304.916 731.045L278.078 653.149L228.119 701.397L304.916 731.045Z" fill="#5A646B"/>
<path d="M305.711 730.915L315.711 681.788L279.089 653.685L305.711 730.915Z" fill="#4F555A"/>
<path d="M304.637 731.903L229.794 703.168L298.645 743.924L304.637 731.903Z" fill="#2F373B"/>
<path d="M267.705 620.051L288.136 580.575L262.922 607.016L267.705 620.051Z" fill="#292929"/>
<path d="M261.984 607.485L233.658 627.693L267.423 621.739L261.984 607.485Z" fill="#2C2D2C"/>
<path d="M287.129 579.791L238.856 586.852L234.094 625.924L262.265 605.798L287.129 579.791Z" fill="#060506"/>
<path d="M237.456 587.47C220.139 598.123 184.946 618.698 184.946 618.698L232.68 627.713L237.456 587.47Z" fill="#35363A"/>
<path d="M231.737 628.938L192.812 674.555L183.941 619.673L231.737 628.938Z" fill="#36353B"/>
<path d="M237.497 585.549L228.445 530.434L183.94 618.09L237.497 585.549Z" fill="#7E8891"/>
<path d="M227.972 528.978L219.935 510.363L183.863 614.648L227.972 528.978Z" fill="#353533"/>
<path d="M220.424 509.393L281.072 454.256L228.882 528.437L220.424 509.393Z" fill="#3F3E3C"/>
<path d="M298.617 516.417L282.076 454.242C264.88 478.775 229.956 528.465 229.956 528.465L298.617 516.417Z" fill="#574943"/>
<path d="M299.547 516.378L353.255 524.37L283.109 453.759C288.6 473.797 299.547 516.378 299.547 516.378Z" fill="#69554E"/>
<path d="M353.242 522.567L353.242 465.804L283.065 452.293L353.242 522.567Z" fill="#826C61"/>
<path d="M353.199 565.744L289.661 579.541L317.152 610.615L353.199 565.744Z" fill="#DAC9C4"/>
<path d="M316.157 611.151L289.073 580.542L268.174 621.927L316.157 611.151Z" fill="#818991"/>
<path d="M390.4 680.796L384.386 671.755L354.274 671.755L354.274 680.796L390.4 680.796Z" fill="#0B0C0E"/>
<path d="M354.269 651.714L371.348 651.714L383.908 670.761L354.269 670.761L354.269 651.714Z" fill="#46403F"/>
<path d="M390.845 681.79L354.269 681.79L354.269 730.886L400.912 730.886L390.845 681.79Z" fill="#5B5B5B"/>
<path d="M407.703 744.177L401.889 731.893L354.264 731.908L354.264 744.176L407.703 744.177Z" fill="#181619"/>
<path d="M354.271 650.707L358.699 650.707L377.379 619.817L354.271 619.644L354.271 650.707Z" fill="#1B1A18"/>
<path d="M354.276 618.65L354.276 610.624L388.77 610.624L377.615 618.819L354.276 618.65Z" fill="#524139"/>
<path d="M359.817 650.7L389.383 611.595L378.898 619.565L359.817 650.7Z" fill="#3E312A"/>
<path d="M388.403 609.618L353.265 609.618L353.838 566.677L388.403 609.618Z" fill="#CFBDB5"/>
<path d="M468.506 585.524L478.037 529.457L408.899 517.439L420.53 578.6L468.506 585.524Z" fill="#FBEDE0"/>
<path d="M419.411 578.038L407.928 517.411L354.798 525.356L419.411 578.038Z" fill="#DCC6BC"/>
<path d="M418.398 578.528L354.251 526.387L354.276 564.515L418.398 578.528Z" fill="#E9D3C9"/>
<path d="M385.318 671.74L428.425 652.659L391.361 680.86L385.318 671.74Z" fill="#1B1C1D"/>
<path d="M384.845 670.779L372.847 651.695L428.395 651.695L384.845 670.779Z" fill="#605650"/>
<path d="M361.082 650.684L390.806 611.58L428.394 650.684L361.082 650.684Z" fill="#81736A"/>
<path d="M429.368 650.038L439.247 623.052L392.921 612.455L429.368 650.038Z" fill="#A18E85"/>
<path d="M440.632 623.13L473.004 628.389L429.941 651.694L440.632 623.13Z" fill="#887B71"/>
<path d="M474.187 628.884L514.007 675.322L479.892 700.382L430.416 652.69L474.187 628.884Z" fill="#6A5E58"/>
<path d="M402.63 730.955L429.436 653.149L479.396 701.397L402.63 730.955Z" fill="#927F75"/>
<path d="M401.804 730.915L391.803 681.788L428.425 653.685L401.804 730.915Z" fill="#706763"/>
<path d="M402.878 731.903L477.72 703.168L408.87 743.924L402.878 731.903Z" fill="#41332E"/>
<path d="M439.81 620.051L419.378 580.575L444.592 607.016L439.81 620.051Z" fill="#2F211A"/>
<path d="M445.737 607.641L473.857 627.693L440.419 621.989L445.737 607.641Z" fill="#473830"/>
<path d="M420.385 579.791L468.525 587.2L473.42 625.924L445.249 605.798L420.385 579.791Z" fill="#2C2D30"/>
<path d="M470.058 587.47C487.375 598.123 522.569 618.698 522.569 618.698L474.834 627.713L470.058 587.47Z" fill="#635046"/>
<path d="M475.777 628.938L514.702 674.555L523.573 619.673L475.777 628.938Z" fill="#614B43"/>
<path d="M470.017 585.549L479.07 530.434L523.574 618.09L470.017 585.549Z" fill="#E7CAB9"/>
<path d="M479.543 528.978L487.58 510.363L523.652 614.648L479.543 528.978Z" fill="#7C6356"/>
<path d="M487.09 509.393L426.442 454.256L478.633 528.437L487.09 509.393Z" fill="#6C5346"/>
<path d="M408.898 516.417L425.439 454.242C442.635 478.775 477.559 528.465 477.559 528.465L408.898 516.417Z" fill="#735D52"/>
<path d="M407.967 516.378L354.284 524.413L424.406 453.759C418.915 473.797 407.967 516.378 407.967 516.378Z" fill="#7C6960"/>
<path d="M354.272 522.767L354.272 465.812L424.449 452.293L354.272 522.767Z" fill="#6A564D"/>
<path d="M354.315 565.744L417.854 579.541L390.363 610.615L354.315 565.744Z" fill="#F4DFD5"/>
<path d="M391.358 611.151L418.442 580.542L439.341 621.927L391.358 611.151Z" fill="#D6BCB0"/>
<path d="M358.002 745.206L393.94 745.206L364.229 769.91L358.002 745.206Z" fill="#121D2F"/>
<path d="M356.998 745.197L321.674 745.197L365.39 778.807L356.998 745.197Z" fill="#1A2930"/>
<path d="M324.283 797.015L342.71 762.778L364.518 779.461L324.283 797.015Z" fill="#3F3F5B"/>
<path d="M353.232 464.694L283.061 451.163L322.581 420.03L353.232 464.694Z" fill="#6B5954"/>
<path d="M353.606 463.254L323.146 419.48L364.829 384.922L353.606 463.254Z" fill="#4D3C35"/>
<path d="M382.884 417.645L354.749 461.767L365.775 383.976L382.884 417.645Z" fill="#3C2C26"/>
<path d="M444.458 394.443L383.794 417.07L366.279 383.32L444.458 394.443Z" fill="#6A564D"/>
<path d="M393.349 457.24L354.216 464.68L372.519 436.225L393.349 457.24Z" fill="#2C201B"/>
<path d="M394.492 456.898L373.333 435.146L394.886 419.053L407.066 454.28L394.492 456.898Z" fill="#43332D"/>
<path d="M434.947 436.086L408.216 453.897L395.802 419.038L434.947 436.086Z" fill="#5F4C44"/>
<defs>
<filter id="filter0_f_381_5346" x="11.7117" y="-19.7422" width="1430.27" height="1108.88" filterUnits="userSpaceOnUse" color-interpolation-filters="sRGB">
<feFlood flood-opacity="0" result="BackgroundImageFix"/>
<feBlend mode="normal" in="SourceGraphic" in2="BackgroundImageFix" result="shape"/>
<feGaussianBlur stdDeviation="142" result="effect1_foregroundBlur_381_5346"/>
</filter>
<filter id="filter1_f_381_5346" x="0.216553" y="158.798" width="858.035" height="831.042" filterUnits="userSpaceOnUse" color-interpolation-filters="sRGB">
<feFlood flood-opacity="0" result="BackgroundImageFix"/>
<feBlend mode="normal" in="SourceGraphic" in2="BackgroundImageFix" result="shape"/>
<feGaussianBlur stdDeviation="122" result="effect1_foregroundBlur_381_5346"/>
</filter>
<filter id="filter2_f_381_5346" x="134.016" y="368.798" width="414.048" height="441.881" filterUnits="userSpaceOnUse" color-interpolation-filters="sRGB">
<feFlood flood-opacity="0" result="BackgroundImageFix"/>
<feBlend mode="normal" in="SourceGraphic" in2="BackgroundImageFix" result="shape"/>
<feGaussianBlur stdDeviation="17" result="effect1_foregroundBlur_381_5346"/>
</filter>
<linearGradient id="paint0_linear_381_5346" x1="415.079" y1="626.292" x2="882.88" y2="570.361" gradientUnits="userSpaceOnUse">
<stop stop-color="#35E8F3"/>
<stop offset="1" stop-color="#191778"/>
</linearGradient>
<radialGradient id="paint1_radial_381_5346" cx="0" cy="0" r="1" gradientUnits="userSpaceOnUse" gradientTransform="translate(429.234 574.319) rotate(-1.67241) scale(362.303 390.812)">
<stop offset="0.292136" stop-color="#F02788"/>
<stop offset="1" stop-color="#27C0F0"/>
</radialGradient>
</defs>
</svg>
