<svg width="24" height="19" viewBox="0 0 24 19" fill="none" xmlns="http://www.w3.org/2000/svg">
<path d="M23.1075 2.20352C22.268 2.57624 21.3656 2.82726 20.4186 2.94041C21.3856 2.36136 22.1282 1.44381 22.4771 0.350355C21.5729 0.886622 20.5707 1.27646 19.5039 1.4866C18.651 0.576652 17.433 0.00805664 16.0866 0.00805664C13.0639 0.00805664 10.8428 2.82821 11.5255 5.75582C7.63566 5.5609 4.18606 3.69727 1.87649 0.864753C0.649924 2.96894 1.24039 5.72158 3.3246 7.1155C2.55824 7.09078 1.83561 6.88065 1.20521 6.52979C1.15386 8.69863 2.70847 10.7277 4.96003 11.1793C4.30111 11.3581 3.57943 11.3999 2.84539 11.2592C3.44061 13.119 5.16921 14.4721 7.2192 14.5101C5.25098 16.0533 2.77122 16.7426 0.287659 16.4498C2.35951 17.7781 4.82121 18.553 7.46451 18.553C16.157 18.553 21.068 11.2117 20.7714 4.62718C21.6861 3.96636 22.48 3.14199 23.1075 2.20352V2.20352Z" fill="white"/>
</svg>
